<mxfile host="app.diagrams.net" modified="2024-02-07T22:11:10.878Z" agent="Mozilla/5.0 (Windows NT 10.0; Win64; x64) AppleWebKit/537.36 (KHTML, like Gecko) Chrome/121.0.0.0 Safari/537.36" etag="sJ2rJowog4G25UouU9Pz" version="23.0.1" type="github">
  <diagram name="PÃ¡gina-1" id="lilQEkSNJpYVIGrR2ZtI">
    <mxGraphModel dx="2074" dy="818" grid="1" gridSize="10" guides="1" tooltips="1" connect="1" arrows="1" fold="1" page="1" pageScale="1" pageWidth="827" pageHeight="1169" math="0" shadow="0">
      <root>
        <mxCell id="0" />
        <mxCell id="1" parent="0" />
        <mxCell id="Suv0DpIHWNhefQ5BGXe--1" value="VPC" style="points=[[0,0],[0.25,0],[0.5,0],[0.75,0],[1,0],[1,0.25],[1,0.5],[1,0.75],[1,1],[0.75,1],[0.5,1],[0.25,1],[0,1],[0,0.75],[0,0.5],[0,0.25]];outlineConnect=0;gradientColor=none;html=1;whiteSpace=wrap;fontSize=12;fontStyle=0;container=1;pointerEvents=0;collapsible=0;recursiveResize=0;shape=mxgraph.aws4.group;grIcon=mxgraph.aws4.group_vpc2;strokeColor=#8C4FFF;fillColor=none;verticalAlign=top;align=left;spacingLeft=30;fontColor=#AAB7B8;dashed=0;" parent="1" vertex="1">
          <mxGeometry x="70" y="120" width="530" height="450" as="geometry" />
        </mxCell>
        <mxCell id="79gVoxD1A6hShXNbsFjD-2" value="Subnet" style="sketch=0;outlineConnect=0;gradientColor=none;html=1;whiteSpace=wrap;fontSize=12;fontStyle=0;shape=mxgraph.aws4.group;grIcon=mxgraph.aws4.group_subnet;strokeColor=#879196;fillColor=none;verticalAlign=top;align=left;spacingLeft=30;fontColor=#879196;dashed=0;" vertex="1" parent="Suv0DpIHWNhefQ5BGXe--1">
          <mxGeometry x="30" y="21.5" width="490" height="418.5" as="geometry" />
        </mxCell>
        <mxCell id="79gVoxD1A6hShXNbsFjD-4" value="Internet Gateway" style="outlineConnect=0;dashed=0;verticalLabelPosition=bottom;verticalAlign=top;align=center;html=1;shape=mxgraph.aws3.internet_gateway;fillColor=#F58534;gradientColor=none;" vertex="1" parent="Suv0DpIHWNhefQ5BGXe--1">
          <mxGeometry x="234.5" y="350" width="49" height="52" as="geometry" />
        </mxCell>
        <mxCell id="79gVoxD1A6hShXNbsFjD-5" value="Api Gateway" style="sketch=0;points=[[0,0,0],[0.25,0,0],[0.5,0,0],[0.75,0,0],[1,0,0],[0,1,0],[0.25,1,0],[0.5,1,0],[0.75,1,0],[1,1,0],[0,0.25,0],[0,0.5,0],[0,0.75,0],[1,0.25,0],[1,0.5,0],[1,0.75,0]];outlineConnect=0;fontColor=#232F3E;fillColor=#8C4FFF;strokeColor=#ffffff;dashed=0;verticalLabelPosition=bottom;verticalAlign=top;align=center;html=1;fontSize=12;fontStyle=0;aspect=fixed;shape=mxgraph.aws4.resourceIcon;resIcon=mxgraph.aws4.api_gateway;" vertex="1" parent="Suv0DpIHWNhefQ5BGXe--1">
          <mxGeometry x="223.5" y="50" width="60" height="60" as="geometry" />
        </mxCell>
        <mxCell id="79gVoxD1A6hShXNbsFjD-6" value="AWS Batch&lt;br&gt;Fargate" style="outlineConnect=0;dashed=0;verticalLabelPosition=bottom;verticalAlign=top;align=center;html=1;shape=mxgraph.aws3.batch;fillColor=#F58534;gradientColor=none;" vertex="1" parent="Suv0DpIHWNhefQ5BGXe--1">
          <mxGeometry x="220.25" y="185" width="66.5" height="83" as="geometry" />
        </mxCell>
        <mxCell id="79gVoxD1A6hShXNbsFjD-7" value="ECR" style="sketch=0;points=[[0,0,0],[0.25,0,0],[0.5,0,0],[0.75,0,0],[1,0,0],[0,1,0],[0.25,1,0],[0.5,1,0],[0.75,1,0],[1,1,0],[0,0.25,0],[0,0.5,0],[0,0.75,0],[1,0.25,0],[1,0.5,0],[1,0.75,0]];outlineConnect=0;fontColor=#232F3E;fillColor=#ED7100;strokeColor=#ffffff;dashed=0;verticalLabelPosition=bottom;verticalAlign=top;align=center;html=1;fontSize=12;fontStyle=0;aspect=fixed;shape=mxgraph.aws4.resourceIcon;resIcon=mxgraph.aws4.ecr;" vertex="1" parent="Suv0DpIHWNhefQ5BGXe--1">
          <mxGeometry x="420" y="197.5" width="58" height="58" as="geometry" />
        </mxCell>
        <mxCell id="79gVoxD1A6hShXNbsFjD-9" value="" style="endArrow=classic;html=1;rounded=0;" edge="1" parent="Suv0DpIHWNhefQ5BGXe--1">
          <mxGeometry width="50" height="50" relative="1" as="geometry">
            <mxPoint x="259" y="-30" as="sourcePoint" />
            <mxPoint x="258.5" y="40" as="targetPoint" />
          </mxGeometry>
        </mxCell>
        <mxCell id="79gVoxD1A6hShXNbsFjD-17" value="" style="endArrow=classic;html=1;rounded=0;" edge="1" parent="Suv0DpIHWNhefQ5BGXe--1">
          <mxGeometry width="50" height="50" relative="1" as="geometry">
            <mxPoint x="258.5" y="135" as="sourcePoint" />
            <mxPoint x="258.5" y="185" as="targetPoint" />
          </mxGeometry>
        </mxCell>
        <mxCell id="79gVoxD1A6hShXNbsFjD-18" value="" style="endArrow=classic;html=1;rounded=0;" edge="1" parent="Suv0DpIHWNhefQ5BGXe--1">
          <mxGeometry width="50" height="50" relative="1" as="geometry">
            <mxPoint x="258.5" y="310" as="sourcePoint" />
            <mxPoint x="258.5" y="350" as="targetPoint" />
          </mxGeometry>
        </mxCell>
        <mxCell id="79gVoxD1A6hShXNbsFjD-19" value="" style="endArrow=classic;html=1;rounded=0;" edge="1" parent="Suv0DpIHWNhefQ5BGXe--1">
          <mxGeometry width="50" height="50" relative="1" as="geometry">
            <mxPoint x="302.5" y="230.25" as="sourcePoint" />
            <mxPoint x="412.5" y="230.25" as="targetPoint" />
          </mxGeometry>
        </mxCell>
        <mxCell id="79gVoxD1A6hShXNbsFjD-20" value="docker pull" style="edgeLabel;html=1;align=center;verticalAlign=middle;resizable=0;points=[];" vertex="1" connectable="0" parent="79gVoxD1A6hShXNbsFjD-19">
          <mxGeometry x="0.2571" y="1" relative="1" as="geometry">
            <mxPoint x="-19" y="1" as="offset" />
          </mxGeometry>
        </mxCell>
        <mxCell id="79gVoxD1A6hShXNbsFjD-32" value="git:caixa-preta" style="text;html=1;strokeColor=none;fillColor=none;align=center;verticalAlign=middle;whiteSpace=wrap;rounded=0;" vertex="1" parent="Suv0DpIHWNhefQ5BGXe--1">
          <mxGeometry x="419" y="300" width="60" height="30" as="geometry" />
        </mxCell>
        <mxCell id="79gVoxD1A6hShXNbsFjD-21" value="" style="endArrow=classic;html=1;rounded=0;" edge="1" parent="1">
          <mxGeometry width="50" height="50" relative="1" as="geometry">
            <mxPoint x="330" y="550" as="sourcePoint" />
            <mxPoint x="250" y="610" as="targetPoint" />
          </mxGeometry>
        </mxCell>
        <mxCell id="79gVoxD1A6hShXNbsFjD-22" value="" style="endArrow=classic;html=1;rounded=0;" edge="1" parent="1">
          <mxGeometry width="50" height="50" relative="1" as="geometry">
            <mxPoint x="330" y="550" as="sourcePoint" />
            <mxPoint x="400" y="610" as="targetPoint" />
          </mxGeometry>
        </mxCell>
        <mxCell id="79gVoxD1A6hShXNbsFjD-23" value="" style="aspect=fixed;sketch=0;html=1;dashed=0;whitespace=wrap;fillColor=#2875E2;strokeColor=#ffffff;points=[[0.005,0.63,0],[0.1,0.2,0],[0.9,0.2,0],[0.5,0,0],[0.995,0.63,0],[0.72,0.99,0],[0.5,1,0],[0.28,0.99,0]];shape=mxgraph.kubernetes.icon2;kubernetesLabel=1;prIcon=api" vertex="1" parent="1">
          <mxGeometry x="440" y="622.4" width="60" height="57.6" as="geometry" />
        </mxCell>
        <mxCell id="79gVoxD1A6hShXNbsFjD-24" value="Turnon K8s environment" style="text;html=1;strokeColor=none;fillColor=none;align=center;verticalAlign=middle;whiteSpace=wrap;rounded=0;" vertex="1" parent="1">
          <mxGeometry x="510" y="634.9000000000001" width="60" height="30" as="geometry" />
        </mxCell>
        <mxCell id="79gVoxD1A6hShXNbsFjD-25" value="" style="outlineConnect=0;dashed=0;verticalLabelPosition=bottom;verticalAlign=top;align=center;html=1;shape=mxgraph.aws3.cloud_2;fillColor=#F58534;gradientColor=none;" vertex="1" parent="1">
          <mxGeometry x="170" y="625" width="55" height="55" as="geometry" />
        </mxCell>
        <mxCell id="79gVoxD1A6hShXNbsFjD-26" value="AWS Subaccounts creation" style="text;html=1;strokeColor=none;fillColor=none;align=center;verticalAlign=middle;whiteSpace=wrap;rounded=0;" vertex="1" parent="1">
          <mxGeometry x="80" y="636.2" width="80" height="30" as="geometry" />
        </mxCell>
        <mxCell id="79gVoxD1A6hShXNbsFjD-28" value="" style="shape=image;verticalLabelPosition=bottom;labelBackgroundColor=default;verticalAlign=top;aspect=fixed;imageAspect=0;image=data:image/png,iVBORw0KGgoAAAANSUhEUgAAAqQAAAD3CAYAAADLw0bZAAAgAElEQVR4Aeydd5gc1ZX2NXk6Vujqqu6enpzzaDSjDNKMAhIi2IDBaxvb7HqdWKclCEXMYuPsXSdsDNgEA2uDAyaDyM4Gm2Cvc9jPOIIkgsLk99tzq2umprqqu6qDGIm7z3Oee+tWUA/P/vHze857zqKmmuOQPVajKbEKjaloiK9EI4XpLNue3rGL+sRK5BN18RXwFstRF58fydhyJONuYxmS8aVpURMbxpGMeGwIMZvQtCXIPxZD09JDVQdQ7IhG+2GEovYjW0SifdCjF5FoT0FCVrpRyJCUbkiRLtchRrqQHp0Q5faihCC1oRgRltoQlFpdR0BsRnGiCX7BZYiN8IsNrsMn1MNThOvhs0R1uA75hk+ohS+cRHUqqkI1KGZUBhOwjxgqg5mjIqChUFHuV2GNCr+KSk8RRaXfe1T4FOQS5dURpIeM8mopryirllBWJeYX1QLKqsMZo7QqhFyirDIEuyitCCK/CKC0ws+ipNyHIxGLyqphjZKyKpTmGCWllShclKOkND0WlZTBLkpKyuAuSlFSUpIxFi1ahLwiO4wSsB4rQLoctbH0OJaAVFUHYQ1NHfQIqekwSoBabBil7xswSms2GKX7xySQygSf80OQOyDI7WlRCEgtBozSNzmQWmC1AODpBK4cSOfAlANpHlBaRCDNDzozQSsH0vkwmw6jBKh2MEpn7mCUnlugQKqrox4V0tgKNFiiPr4iL3WUlFWv6mg6kC6DVyCtiS+FNRLaEOyiEKppIjYMazgppFYYNa69qaYcSF9WhdQCowSnDEildgiW4EDqRlV1qY6SilpMhbTIQGqoo7QWUx2lb9uro6SaZlZH6X6h1FH6jlUdNa6Lp5AqqPTr4V0djaDCZ6eO0lkhFNI8QNRQVjmQulJYreooXS9EhXQRgagRR7tC2phYDT3m0vXZUvPZ7lvT9vmk670DqZ7eN0NpUiMgpTS8u5R9TWzZEU3NE9DagW5cK17K/kgooaopNW9WRc37YiukcrSnoKl5J4j1mrKn9L4oU+gqqSCROtqRd7qeKazFSs+LrQhbIuSUrhdbERBbbMINXLp7xnWK3prKLwaQFhFEDcW02ADKvu+Ypjen748skBpwa4AorcVUSL1D6FxaPz1Nb4bT3IA07xS9AaLG6gJIzSl9T6n7vFPzTippwBVEFjKVfzQA6aJS+xS9VSktpEJqTunnlLrPlLLnQJoOqRxIC1RHyoE0Y00pB1J34OlUc8qBtAg1pBxIc6oZNSCWA6kTUOZ7zoHULmXPgdSFyYkrpN7NT1whda4nzaeGlCukhTMzWdVRuuYKaaqGlCuk81L5hqpZyLXwCqmCCr9N5GhkIijlQJoveDq9z4GUA6kL+LRL33Mg5UDKSgK4QsoV0rS0fX6qqFkt5QopV0jd15GmO+wZjOYBn4Yqal45kDoBZb7nHEg5kHIgPWK1pFwh5QopryH1BqscSDmQciDNweTEa0hd1aPyGtLM7Z+olrRwNaSJ49CUOE43NMVzMDTVrEJDYmXWyNfQ5N3UlN7yqXbW1ETGpuzB3PVF6jlqB55OZ3FtCWI2Ye+mp7ZP7qPgpqZoP8jEZA6zeclpP5eON3qNZlod+pCq889lhYxMRhS232hupqZOSBE9xEgnZoOZmMjIZBiavJma7FpEFcLURK2cQrahp+gpTW+OoNQCuzCrmbnsg1IzKObebUJAnIt5QMqMStRf1E1YepAK9fBnCFc9SHNO2deiOuwuCmJqCtagKkM4O+uLb2qqDGiYDb+GSkuQkckcufQVJfe8WdHMd19OjnqfPBfMSU/mJbtw6EHqk1BOYepRWlYtYjYMM1KmlUEm9Rd1E/Y9SD2Zl1J9Sksqg5iNQhmaygMotURJeREV0gofSiqq9SivRkkqFpVXwRreXPZe+o5WoKTUIcrmnzNHvamVk9XAZL12b2jK3PYpJ/i061lqZ2qaNTPFV6PBI5A2EIzWrMq7nZNbWM2/7dPylMs+vdm9bQN8avm0AICUYNQePu3OCUbtWznZnRcaSJ2AM9t5IYBUSQPSIwOhZjh1dtkTiHbMRiFaOBnfKFZvUYJRL83u7WB0PkiaodL9Xv+u+fkMrZ08OudnG+MLDd6a3js1yc8JSAlE5xrdZ9sXAkjdAacZPu328132haoTJRitIihlIOqm8X16Gj47pBYaSHNzzpvhk4C2gqA2BaQMRDPBp909j6qn2UVv7PMF0kUV1Cs039R8EDp8EoCaw+9K1czJZW/AaEV1GoAeWSC16S1aVo5SBqRz9wzg9AaabnuROvch5UCamvDEgdQOQK1nHEiNKU5mUDxSew6kVpXUDJK57TmQzodVDqRWSOVAOtsSigNp7sDKgdTUOJ8DaVallQOpFT7trjmQciAtjKOeK6SW6UtOqqj5nCukeTfD5wqpnrbnCqlZGTX2XCE1RoVyhdRibuIpe+8ueqMEwKle1O6cp+yt9aTza0UNAOUp+8KAqFECwIGUA2nm1D5P2Ru1p6x+1FT7aaTdPa08ZT8v1T8/Vc+BlKfsLQBqbe3EgZQDqbUGNVutqNN9XkPanvN0JgMgC71yIOVAyoHUXa0pB9I5UxOvIa1CaZk5vJqa5upEDTW05JivITWc9bMjQ51HhzYlVqGphu7PufCpx6hbM1Iuz3lJz5vHg2bb66ND001NhnJ5pFY7JdR6FleXgCKm2qXmnc5e3pS9GVDt4NN837wvBJAaSql51V32hTM30ajP3KJwpqZCOOjdwGsuQDrnhG8Gud91N3xutaPmb9nt57nrjbGgLkxNrtzy5jR8lr0x0jP31cHUFCpCO6fUNzOD5nwDk33NKj0zXyE1rt2am+yeX8jjQA01lFZzn9GyKhll+aqjGd6frQ+1MzFZz1zUkOZiWnJ6p6QyNOeuNzntj0ZTk9W4lOnayWU/v0eoFxA1niUnvQ2QOp2ZXPaFMDctWlQKPXJs5WTnpnc6m+ey50AKs7P+SIGo8e9Y4dPu+pgEUktLKDbnXu0HB1L3CikHUh1wOZDmDqwcSN0pn2YINe85kIZAkMqB1KyEVoED6SL3PUlnWzylqaKGOjpfBTUUUa6Q5p6aNwDUutoBqPWsoECqFmguvYfv2CmkTmeFANIj4aTPTR0lVZUrpHYqp7uzDG2eDGXUWLlCCntFcz68egFS+2fj+ZuXUgqrWVF9JSukOZmYuEKau6u+3Dfv3UyKqPXekVZIjZ6jhpHJvBZCGTW+cUQVUg6kzn1IrcBYqGsrZHq5PlqA1Aky3Z4r0cIopBxIczc1eZpPL7U69CdtMTWvL2TKngOpG8gsxDP28Dk/ha8/w4HUUEkLlbLnQDq/d2kxTU1205es0JnpmgOpByXUKWXfGF+N2XBUSefqRLlCmr8y6gVArc8ei0CqKH2wC66Qvrwpew6kORiYUrWludeO1kF/98jXkDrBqx2QVgQIPu1Cy0sl5TWkNlOZrIqn12teQzpP9XRqkM+B1L5B/pFVSGkSkxG2QJoOowxKawptalqB+kTmsDc1LUddPD3IyJR0G2xk6HxTUzFGhCZiw2ChDcEKmnQddxFkZjIi30lNZCCyUyzNxqJc93bftZ6RCsrCBkgjCrV1olZObqMHZuMS7eVoD6RId3oohTM0kQJbiJS9GPE2GtSYyGSs+dSQhuU2zIbUBhoPqo8InT8G1BgJ6n5SEzXEt5qXyNRkPct2bRih5la/0Aj7sFFOXaTszeNB8zY4hetTUGnAZS7rQgFSOyU0gcpAnMUclMZQEaBYCEDqpim+AhoVmv+40AgqfHoY6iitBVNIq0SUVglpsWBMTZUhlKZFECUV6aGbmmhiU+5RUk49R+1ifqrdCTozndsBKame7qMSJWU2UWqYk8zr/JGfjqNBZ0eGppuaFpWWYVFJqU3Yg6WRgk9fqeG9cyxaRGYmIwqggjqpo3RuKJ6ZVqOVk3VtTK5mY0KN81yc88Y79rC5AtnOnRz0DEbjy5F0FcuQTNAcex1Ka+L5q6DW9H4mEDXglIA0FssSnkaGGq77OZd9roDp9T0rfBrXitoPI7IroOmQaYVO4/pIpObN/4YOunbu+vl1oebRoNZ9vhBKMCpIFLmn5eldgtFQKrLDpnXqkt11NsD0ct8GMI3aULerGyAV52bYewHS/JVQJ1idA1In5fLInDs750nNzBdAre87K6RuINP9M2YzUu77yDxnvRlI9f3cyE9PvUdN7voFn7L3NA6UQNTvOjLBY6Hu2UGo+cwpDT+/hZNuYmIwagufZhA19h6d8zaO+sLUkNpPXyrYKNBM8Gl3LxOIGvcM4LSuHEjdgysH0n6mxhowSisH0vxUUQ6kLmGVA6krU5M94HIgdQZWDqTeWjlxIJ1z3HMgtYVeAzozrVYQNa45kHIgdVJODUXUur4SgbQQSqiRmreuXCF1AaUcSDmQ+uerp86Q6aX1EwdSDqRzLZ64QlqAdH4mEDXuGQBqXTmQciDlQGpN26en7DmQeknRW591AZzZUvccSDmQciBFWXXYMZya3Gc95yn72QlMHEg5kILXkBp1oplWXkNqrv8sxN5LDSkBqV2dp1XtzOWaK6QugJUDKQdSDqSOMEqgmhU8q/Sm92nPcSDlQGpXC5rrmaGCZlqtyqh+XYAxofHspqUjYWqqiS2F1YSUz7VhUvK6Opma3LvplyBGxqi0IFhdzMJJ0Sz0uTVVb1xba0dlhVz05Ki3i8ymJn0EaA8KPQrUCqy2Tn3HcaGdYIooueYJRMl4JLtv3+QEpcZ30taX3dTUzJz05KY3h3cnvVUZNa5dAGeuCqlQD7O73thnNDWF6+ALp4xIITIeOZmSPJzTd9IiiepQDQv72s75Te1dPRNMoMpzxOeNA60I6i56O/OR1aBUqGu9Mf78lHulBTCdriv8XlLwzs+mG5aypevpvjdTEzMwVYuYt3pt8WT3vEPbpzS4dIJONn1pbi59Sc7jQO1rSMsqA7AGmZ8KZVyyfmdRuQ+zUVYNs4nJuncyNc3VghomJa+rtxpS5qgnV701Sshpnx7pTnon5/2xYmpKcCB1glavIGo8XxAgtXXpH3tASi2drOBYrGtvbZ1SQJqCUKZgFgpI83TT26m0+brsCweeBoBa1+IBaUbwdJhVbwbQqgIBKX0nPZJ5qJo2sBqsgV0/0exnOpCa4ZIBYp7tneh79B23UeESQK1gWpha0flz6t3DqUcgtYPJQpwtZCCt9KfBKMFpUYE0C4SaoXTBAKkNdNqBqHHGgTQXQOUK6bx+pAUBUo1U0vQ41hRSDqT5tXoyw2k+bZ84kHpQQh3U1HQYJUDlQGqGVQ6kIjz1HjWD7EIG0goOpCU2LZ2sZwZoul05kHIgnU37G4qn17UQQGqf3l9YNaTm9HyuKXsOpBxI/dlS9cZ9hxpSrpA6NL0Pms+5Qkoqq3tV1JzK5wrpfBe+fcreqTepNdVeqGuzApptzxXSAhiVvNSTZqodNe7Z1pDmAqDWd7hCWnCFVFMHYRvHWA0pB1IOpBxIbVLzIYcznrJHPul7DqTFqyG1A9KSYtaQ8pQ95hRUXkMKYzpTfVGBlCYvuYtimppI9fQSdpOa7FVPe1e9qg4iPXRDE6XtC21ecvqeYWIyr2xMqKUhvrNCSmYnZ1MTB1IOpPajQ21GinKFFFULEEgr/CrcR46mJp+zUckLoM4BKameXmL+bPpME5tyTsmb0/N2+2Kl7D057IOpkaHpk5oKpXy6/U42VdR8/2hUSHXYdB4Fmj4mtAQlJfPDtmm9F6Uz12cNFTTTWliFNHdnfT6z6Y2xoMbqZEgq5DlNZ2KOd4vRKB4bQjw+nBZewFPT5tLwRn3okQROA0SjplGg5qb35n0kakxlygyZmQDUem+hAqko5z99yc5pz9z1BTQ1sXn1YivCoj6vPvvI0Fboz9iNCm3JYT691bw0d+1K+XSATL9pBKjt3sGslDV971D/aTY5Zd/PjQOtDidhhCuHvJPymcN5ZZDS8NnCmE1f+PGgZGiqTEVVQIM52LlfRWVavLxAasBrJqB0e68g4OkAmXa9Rr246cuqwii3ifmpd4JL71FWGWQGJkMRLaYKmhFOPcynLy2vQll5dVoUe3SoPqd+zj0/p2g6ueXN5/aqpxU6jeuXDT7toDUTiBr3FgyQuppLT/Pr5+bSGwBqXQsJnk7fYkBqgVFDAWVQSmBqCg6kzoooB9L8Z9bPMzLRDHsOpMgKogbAHnNAGpvXzslo42Rezc76Qu8JPM0gOrv3azYwSoDKgXQeyGZocm+FUm9AGkJ5ZXrkAqDWdxYSkNoBZb5nhWyMz4E0sQoGgFrX2RS7tQY0p+s8FNIFDqRsXn1sGObVAFA3KwdSDqSkjprBsVj7fBTSYjvrj1mFtNDO+RzUUVJjdXX05QfSdBXUThk1zo4skJb7zOYk8959Ct5JMZ0HlnYpdjdnRQLS0soQymzCCpe5XB9LQFrsPqQcSDmQzrrknRTPTOd2jnon17zeuN6uNZN9Xag9qPKUfaH7jnrrN2odGapfFyJlXywINX+XA2m9e3WUVNJCKKQcSGEorc6peQNArSsH0nkgawOkpVV5TFwymuLbwCgBai4Aan3nSAMpa35vY2Byqgu1U0iZ6llWibS11GsjfOvzmRvjFwNIF1Rq3i5dT2dWNdTumiuk2WfWewNSL+Dp9CwHUg6kuRubcgVSUkftFMxCqqZ23087OxprSDmQHj1AWh1BWZWcFk6qp5fzeWDpRg21e6aIQGoFyUJdH5VA6gCei0oqkBalBJlW8HS65kBqC8h2ANqYWAlz2Lnh6SwrqNIzNpFtHOj8+8tRF1uOWtfp+vk1pDXxYdhGLDtkZlJErfdcASkb6akro/aqpxN82p0vDCA1m5fMe93IRGYmw9BEo0ELY2rSDU2FmdQkKd2YDcdxoPZqqFlRFSNdYJGjqck8EpTBItV4WsKscOa7N387JBmGpeyrDp5NCIjWmDMl5Q6n+jfT4NPoJ2pevQKp0AA/C6/KKKmjhVFI5zW7D9Yw5zu5318eU9PLm7JnSqlPRYVN2Kfyc1RIcxwdSq76vIHUJ6Gconouyqql3Bvcm8HUBKS6MkrqaIEU0hwMS66gNTWB6UiZmhaV248F9aSQWgBzUWkFWBQJSBeVls+NBzVNZyqEqckWAJ2Uypfr3AlIG+IrYURW8HSoJZ0PlrnWji5HLQFpjEDTbcyZmqzgWKxrd0BqB5Y5nqlHpoWTuW2T3d5o5WSGUdqbm9/P7fMH0kK7681Qmc9elDuhh3eXfaEd9F5h1QuQBqXCOurN8OoKRA0o9QKkhjEpl7UQqfrZb8y57IsJoW7HgZoNTLQ30unFXI3pS9TuyR48nc5zA1KzGcpwyrtZC1JD6pNQ4ZvfHL8g6iiB6TwgDcGLcSnjs6mUvRkwS8qpob13V731nZLy4s2nN7vqzW2b7PZegJTS+GazkqGKuldCvSmk1lS9MZkpVyA9KiDUDL8cSAujlHIg7YcZSucglJRRIziQHomWThxIGzCv5VMuIGq8MwuT+Y8IrQ5zIOVAmscIUEeFlAPp0QikuhpKiqg55lo9GTBKKwdSrpB6MjlxIOVAyhXS/NL2BVFIhXr4bcJ1eycDRI2VA2lBlVMOpBxIzfBYjL2dKmo+WygKqRk4s+05kHIg5UCqDsAuTW8+4yl7w13PU/bm9Hsu+0IAac7gaQCodeVAyoG0Ose2TzxlPy/Vz1P25vQ9maLs1VC7cw6kHEg5kHIghdu6Ul5Dmp86SgDLgbQwBideQ2pfb+qmdtR4hteQztWM8hrSOZAsVA2pbowqxaISa9hD6isGSGenMCVWosEUuRqZzO95NTUZ5iX7dc6oZJ26lOm6WCYm63cLk7In57zLKKKpyayAZtsrah8odAc91Yj2Qlaowb2+T189NL9XulHo1k7W77kBTlnpgjUkpRNShFRRMjF1QKCQ2lPXtLqPYpiawnIbrBGS2mAXaSNBxWYEHSIX5VN/x+rKT7/2M6NSI9ytpjpRU4rek0IarmP9RanHqFO4GwdKtaEOEUqiel4UBjrTTFHBBKpSkR1I7R32+ZqZDJOU03fKAyrmp+ztwdFsRMplX+HJWU/qp91s+jlnvNkl72VfVk3mI0uY60DNezYKVECZ6zU8a2zKaFIy+os6rCWVQRixqCKAEs/mJTI8OYeuipKZqciGpopqlFCQs768KmN4Sdmnm5d0l336OUFr5lZOJaXlMIedEkpn9vCZ22z6o87UZACpGSQLtedAOoR5E5q0bI56+1ZO5ln1s/sFBaRzZiXDBW8d9ZnLtRUei3HtDkg7ISvzQwfSOUe9AZVeQNR41njXqxnJ6XkC0ZBD2M+sN8+nz1/ptIPW7OongagJMj3sPUGoKSWfHTbdGJnmjErGbHrzmgaOOU5Xyvad7BCagPFMRaA4jno7IDUA1LrqLvuFAqT5w6cdqDIYNUNnpr2H2fRmhz3tX14g9cNo42S3FqNGNO2bFT4dRhmQZoZRgtX8gHROLU2HUm9Aag+eTkBaAmP2vJeVA6mpBRQHUg6kuYCo8U4xANT6TTdAKkU64BRWqDSuvawcSJvgFziQZoPOTPcN2HSzciBVYKTmK9iIUA6kpJLmppByIJ0DUw6keQMwV0gXUtsnrpAaMEqrFR5zubYFTlMpgO39tAb5HEjtVE8vZ1whLVKqPqW4ugFR4xkOpBxIDVXVSNdzIK2C7ehQS2P8Ofi0U0o5kHIgjS/FsVVDuhizaXktw56n7F0Bqy1wegJSqhO1qQdNqabGPUPlNK69rMa7Til4r+c8Ze9uGhNP2WsFddDzlP18pZWn7ItcN1ruA0vf85S9Yzo/b0A0N60/EnuukHKFVFUHYI5sRibzfd3UtHBrSDmQzq8n5TWkc7DKgZQDKU/Z52tq4in7OdWUK6R5A7ABpLQWwszktW7U7vlcXPZW13uhr+1c9NnO4toQvM2st0/Zm2HxSOzNwJltrxRoPr2eoi9Mmt6c2rcF0rSUvN5L1PyesZeULnuF1E41dTqzqKmknnpVPd08HxZbQeFtFCjNrz+6TU1mM5SdwYk1yrcxSRUTSDPVe+Z1LzhnTjJS8G7XikAcehTH1OTkrqfzQpqa5uo/zan37HuaT58e80d72pmTcj07UgqpYXJyO8venKZP23t22b98QDrb7N6Fs97svLczNZnHg84Bpl1aPtNZZiC1jgU9EqYmswEqb1g8kgopB9LMSmk2+LS7z4HUfYunhQCkTvDqJf1u+ywHUhc9RnM3NWUDUoJUu+lNHEgLq5ByIH15UvYcSLO3euJAWoKjAkjzU0VXoD4xP+wUT8ez2HLYq6F255n7kBZaEbV+zw44s51xID0WgNShhtRJDbU750D6sgOpnXLKgbTwQGpVQp2u82n7tBAV0rJMLZ3c3Muj7RMHUg6kZiXUaX9sA2l8BRxB0+09DqSWlP4RTtlH+7OOBn0lpexFmdLz1uBA6sVN7/Rszi57oQF2MOnpLFxv2/ieAykHUr0p/nxlM5cUPQdS+9R9Ws9Qw4hUgJWn7L31JuVAmgVMSR1NasvSwl415QppwetHOZDOGw06N/6TINQcNi57OyXU6YwrpLkrpAUBUjcN7nN9xr4xfl51opma5y/wGlInRdR6zhVSEfMgliukumPeA6hyID0GgdSscurp95XuzE1ZYNP8Xac9A9LYMiTTYjmSBKvzwh5Ia+JLPc2ct6biM13bpeQpDW8fSxDT0sOLqSnGxoZaWj0Vo71TdABqdMCTOqpE+2EX+mhQl6l5tRsRtQtsmlOUxo32Q1b6oER7oKg0JrQLktyFaHQAstwLMdoJMdoNUemBGOmDpFD0QKYzuR0RtRsSa+FE40rtQ4r0wD66IUWM0E1NomkUqD4OtJ2NBA3L7aCQop1spKYUpVGhbexajHSA3hMinQiJBK76KFFzLSlNdQqLbSzYs3InBKmLfSMst4CCRnWKSjvCUisb+RmSWth9MijRmah0IBzpQFjuYOM/Z8eCSq0QUkGGJoFFC+h999GMkNTEIig1ISjmG3OjRwOiPiI0Z4WUzEimGlBPyqhpKhONBp2niIYIJC1nOV0nYZ7MZOyLBaTOBqY4KoOZQ+8/SoamIpqa/FFU2IYKgtC58DaliY0DpZGgrsaCRlDuk9PDdkRobqYm60jQ0ioB1pgHnNnS9h6BVDcw0ZQmc4ScpzZVhlCaChoP6hSlR5GpaU59rWbTl8is5C4qwUxMZabVsd8oGZXcxvzRoMaYUGZmKk2fUc9NTYvS61pzriEtBJDGlyPpOhyANJbZjJQJOLPdcwLSeeNAY/o0Ji/g6fRsLDYIitk+pJZ2TIVSSLOm4dV+KNaI9iPCIJJA0hxzLZ/MTe1t9wSjsXZIBJ/0PWUx5Eg/JLkDEaUd0Wgn6uuXQxJ6IEt9ENQ2CGo3wkofwpHFEOl5tY+BlhLrhExgKFH0QI70MbglwJ0NgthIr02YIZWgVAdSNpueAWYbxEgbBLkVYqSdQXFAICd6KyglLakdqA7VQ1DoXid84RYosX6IkZ5Uyt+A0rmVfqdKz8hdDEYDIYLLVoQiTQgrzQhH6PvNqArUISTr/44YbYesdTFYrQw2oDLcjBCprVoPwko7e56gMyy2QEiFmFrDUhPcRkhshLdoQkiksHvPuKdDbXYQpSlNLic1mQEzh70ZQKsKBKRVoSSKBZ/m7zqDqOG6Jxi1n1FvnGcyHXm9Z1U86Tof1TPbzPoKX3YXvfFMeRGnLxnpfE8O+mwwSvc9A2kG+LTMrS+rDMEc3qEzCOd39FT9HBymeoN6UDrzf7fatqm9XaN7OvPmoreHTAM23azeZtbnPzr0qEjNOzn2OZA6Ay0HUhOYFgtISdmMdEDVuhAI1qG2dgiS0I1EfBiC2o5wtAuC0geRAWk/BFIX5VZEVILFVqaqKgxCdYWVVFZzEGSmhwGg6auukup1o9SwPrqQRhEAACAASURBVCy1IRzpRIQgUG6DrHUiIDZAS/bBF24EgaqgdCEsdyEk0ntUg2pO95OCqkdIaEVQoNZMHUwlDorUcongswVStBtBsQ0CqakRAtFuNo+e7gmRDnYtKB3wCy0Min3hBoRIXSUgZVCqt3wyWj/Nnhv3M6whsRmeQmhBiML0XlBoAgumrjYiKOrBgbQwE5o4kHIgNcxLtBqTltysZhilvTNcZgJPp3scSA0oXVRajlk1lBRRI0rS1VGC1GIppBxIc1RLa12ro6SkcoX02FNIB/RUe6QDUbUDUa0dmtaDqNIHQeiCqHYw2BOVfkjKIIRIL4O7aLwTUrQZcrQVUUrbSwShpJi2p4WktCEtWE1nOoxSCl+UKXRjkyBRar0TYoTKDAgYmyFF2xAQ6hGSGhFL9iKi0X1K4XciTM/OM0XpYEpgS+UFQaEZaqyHgRzBdFBoY0o0gWwg3IaQ2MFKEKqDjagO1LOUPaXxhUgbRPo7om0QIi3whxtYmp+gU0/LtyEktZuCygMsgJrhmsGlAZlZ11aEhPZU0F6H02C4WQdSoRFBoYFFgObTM/XTUEEzrS7aPuWgippT/FwhLZyJiSuklhpQNypopme4Quq5hnROWV0YCqm1z6iTMmqccyDlKXtP9aZcIS2GQtqRStn3IaJQDWkvRKkVUqQZMqWvhQbIcgdi2gBEtROC0g2Jak2jiyHIlOrvQCCcRFiuQ0iogyS1QlXpO6Q65guklHKnICjtgSAZgNrJlE1K41f5axCv7WFAXB1MoDpQw35TiGo3JUrRE8wa7+lqaTDciqjWA3+oAZLSiupgDQS5ntWbBkMdrMSAgJSUXYJWRetCRKW/hZrcN8IXrIUvWIOwVIeISiDewu4zhVIilZXS9/PDqFl1s5Jy6z4IRjtTQfs29m4w3MJ+e5ADaVFS+Fwh5QopV0idygE4kJpbPXGFlCuklvZNS3K6fmXUkHZCUsmYZABpN9o7VuLzX7gR199wK6657lt485vPgyi2QVa7IZDxiJ5VCUg7sPK4U3DdDbfiuq98A1+9+W6ccuo5CKdgzpyqN/bp6Xojhd8BKU0pNWC0G6LUy2pTqT41GG5nsEilAiGxAV+67pu46eY78fH/ugqvee3bUFYZY2Yt3dBkqKTzoZT+rURtHz72yatx1TU34/qbvoXTz3wHAiFSSXsREpohyM0MtlcctxkXbPsAPvnpq3DtDd/E12+9D9fd8E186tNXYduOy3D2m96Fjq6VrM41JLUxGA1I7aDwy+0IUKmB6D50qCSwdBMdCIW79GBgqkNpIEy/vQkBKmMI1+shkCEpkypqvscVUnPNqHXPgZQDKQfSowFIS7GoxBo8Ze8akt3UkDq55L2em9s5sXZP5K63SdvXJlagJnWP9gltKeLqEJLxpSyymZHc3LdTP92cMYd9fBhxS5DD3sms5PZcLbCjPpt5yel+mqGJDE4ea0gJsqxBdZhilOohdbORog4wQ9HA4Cj+8dwYxifB4tOfvg6C0IxIjNz13cyNT0aqaKwXZ5z1Vrx0CBifAsYngK0XfhjhUAuUaB9T7eib9CytZG4iN7saG2SqJSl7scQQq/GMRLtYqp0URPqdstIDhf2ubpamp/foLEq/UepBNNoDUWqBGGnEd3/wFCZngAOHgSuu+m9U+WLQYlQD2whKXStqDwKhFvYdMkyFCRbDzWhsHcbPf/UXvHBwBuMzwIXbPgxfoA5RrQO+YBzJ+k585aZv4IUD4zg4Po2xKeDwJDAFYHIamJrW15cOAh+47PPMfU+1pwGxHZLWC5/Ygiqq5YwQjLbBH2pKqa6toLKBQKhZV0LFNqbOVvnqQcpmVOuFsSeorg40pABc/44v2Mi+R9/wBZoRFjoRDHcgJJAi3Ikqfz2CAtWy0r/TwlRkRSMl+2UCUpNbnpmXCmRgMqf8jf1CNzV5NSu5fb54KXv34GmYmKxrQUxNPgkV5NSvnutR6sk1nyk9b3fPlLJ3OwLUqX7UPA50UUWgIDWjRh3qbP1peRAl5YE80uxOcJn5fLbVU1k1jH1J2ZFXSEvLKlBSNmd4MtLwXtZCpOxdg56TiWihnS9EII2rwyAQpZVgtD65KgWuCwRIY0OIW8ItdGZ67pUFpDo0ErD1D47g2b2HGGROTAGf/sw1EIQGRFQdSPWWTj1QY914zVlvwYHD06DnJiaBrVs/BIFAK9zBIDSqLWZgSq57KgkQpR6EhC52jyCV0vBUK0pAyhRSpRPUlonqQCntTivdk6Nknkq1ahJ7ECEnvtwKRW3Gd3/wBA6NA2OTwJVfugllFTJEqYk53amkgMw99K6hOJJaS7DW2DKEx574LSYAHJ4Cdr3/E6isjkGKNCASrcOXr78JBw6PY2xqEmNTU5iYmcE4QegMcHhCh3Dj333TP58HAkVfqBkBsQ0+oRlhpYMZwfzMAd/C4JhUSyoDCIkt8Ica2e8KhKjOUz8jhz7Vq0oK/e5m9jup/pSepaD3qK0UrboCSs8Q0FIZA53p79A9+purA3Ws1tUXrMPLVkPKgXTWce8WML0+x4G0eDWkRweQEoxyIJ01NDkYlzIBKgfSHGtIvSqhTs+7VUhJNa2rWckglICU1FJdMV0YQFqstk/HEpDat33qNimkBKT9zAHfP7gGz+47wOBrYhr49GevhiDWgb5BNZmkVMpKN1StA6856xwcODyJyVkg/SCEUBMEqZ2prYpKLal0xZPMN0zl1PoRZGn9HuZw11tFtbG6TkUjk1EL1HgPA0mq8aTaTQpRaUJIaIQk9iIUamVdAMJiEj987Cn2Gw5NzODqa26CICWhau1QouTKr2c1orGaHgZ5zFkf1mGurmkQH/nEFbj8yuvx+auvxZmvfQuqfTGEpSTWrtuM/S8exEuHD2ECU3jh4AHsefBhXPKBj+D8rbvwkU98Bl+4+iv4xm3347En/oCR9WcyICWzFTn9q4INEJRW+IQ6RGJkoiLAbERYaoaktMMfIuhsY9ekXBI00z1d0Uyy+tvqQC1TNclwRWBJJQpV/iQ7oz29I0fbEJabQMCp17bW6d0OoqSsUo1rJyp9SfYuPf+ypOw5kHIgNSmbZpXT9Z4rpPOU1XSFlAMpV0htgDJfxXUhKqSGOtpQu5qpowSjukq6QIBUG0LMEpmUT7f3OJDOQAfSKyGItSyVTgahiNILhYA01oEzX/tmHDw8jsnpaaaQXrT1gxBDTYgzAKRm8s0MmIRIM2obBljdJhmEyBwkU19TuYmZhki1ZGqoSgYiUvtIkW1FLNkJLdmOWLINsSSBaQti2jAEsR2xBLWWqsP3fvQTplpSKv2LV18HXyCKkFALOdICWa1HvLYdokJqJBmUulm6W433orwqjip/DH4hhqCksT11FwiEkrj4ko8xxXViBnj+pYO49LKPIaLWwRfQ4A/WoNKvwi/GUeZTIGvtKK9Osmb81f5GyEzR7UBQrGdmr2i8BYpG3QVaGBxHVHLwN7AoqVDYeUhqYNDtDxGMtsIXTEKMUB0oKZwtEBVSUKkWtA5hMlalnqsKxFAVVBGSaqHEmiGr1FC/DhU+qqNtQ3l1nNW2Epz6Qjxlb60FzfU61xpSr8qn2+e5QsoVUq6QHrmU/TGXmncC14UIpKSOEoTGolQ3qqulC6mG1C1gen3uWAJSXdUkZdMUNGEp2pmqITUU0g70Dx6PZ/e9hHGCTKaQXgFBTCKq9UOO9CKq9iGq9iAW78BZr30TDh4ew+T0FCYngYu2foABaUhIYumqDXjLO87Df37matzwtdvxjW/vYYrif99yJy772Odw6ulnI17XwRrG+4PNLGVPaWY13o3Xv/FduPraW/DN2+/H3fd/B3fteRi3fPsOfOHKm/Duf/soJGrJJDVBkpP40eNPYHxqCtOgGtJrWLp9zZpTsGPnx3HjzbfiW3fch1u+dR/e+o5t8AUb2FQpgkZSHrfu+Ag+9PHP4ZOfuQKbNr8eAX8DwuFG3HjjHUz1PXgY+NMzz2HlqhMQDtdBpnR5kMCvHWG1HmG1CX6pEZF4L/xCK7TEYlT56lDfuARn/tNbcc11N+Mbt96Db9/xKL7x7Qfxmc9/BVtOPRuySv1MG+EP10CINKC0UsG/X3gpPvKJL+KDH7kcg0vXoyoQx/LVm3Hphz6LgaER+EIJdPWuwsf/62r2zMmvfiPUmhZsPuUMfPQ/L8dXv3Enbv7mPbjqmlvw6tf8C8KyDuGkjBopfK6Qvrx9SN0CptfnOJByIOVAyoG04KD8cgIpS8VTf9HYilSf0WHQKFAtOoyGuuOgygPoaFiH9cvehqG2N6BeW4dadQ2S6ioktRWoYen8IdTElqRiCEltGEl2bjS8p/vmZ+jZIdRoQ0hoS2AYmezHgaaPCfVuXqLJS+6iUH1Gje84mZayneumJgJGU8ybzpR9UhOl2NMiSmlsGh9KqXoySpGpqR0Dg8fh2X0vYnx6ChPT0/j0Z78AQUxA1Xp0ZTRK5qIuxOLtOMukkDIgvVAH0rBYhxu/ejtIYaQgMxAF1XmSkkmgS/WYV1x9DRJ13ahrWMr6gSpaO6780i148ZD+PL17YGwahyaASQBjE8APf/AMamoGIYrNUNVm/PixJzA1PYOxiXH8+LHH8MijP8T0NHD4MPDiwSlWC0vGq789ewhvIygN1EJW2tHYPIyf/eIZHBjTf+Mll3wGQqgVQrgZ11/3bYyPg33n93/4O1at2gyR0u3U21TsQVWgHj4piaDciIBEk53INNSMKn8d1oy8Gk89/QdmfCLzE/1mqjnV/xb97/jGt+9DZ+8yiJF6yNEmlFbKePLnf2R/J5mnLtp5KauH3f/SNPvvdPpZ/4KyKgUnbDmL/Xek/34/+8Xv8cAj38fzB8ZT355hK9W40n+/3Zd8HKWVEaZG07SpCn8d/CK5591GA/w0KtQp3PYhzTtlT2NF3UWuiqfX97IppFXBOKqCpF7PBZvQFNBQaRNuAdTuXTqbGwFqHgeqItvEpez3C2Fqmm9Gcp2mN6f5C5WyZ2YlITWJKdsaht703lvje6u5qTimpiDKKs3N8Sll7y+qqam03AdrkIEpPaqyTGqqRGmZHmxkqOOY0EqbKU5z0GnUi9JaGFNTKUpK3EXBwc9JoXy5zwsNpGz+vI1z3s5NXxNfhkSc6kNXIxkfQjLRj0TNYmixVahJrEKdNoSu6CjOXXcN3rv+Dpw0fBl6EuegXjoZycgoEupy1MQJNvuRUPuQVAdRry1DXXQ5arWlSGpDSMaWIBlbjGRswBR0PYiktoQBLEGpXV3ovLOcXPSmMaCaZUZ96tqAx2Kvts55y3jQuZGgHsaBRu3n2KfBKPUTZWopjfZcDFlejKgyCElqx5Lhtfjbs/t11XN6Cld88WokaprQ2NiLxoZ+NDYsRn3dAGoSXTjnn8/FgYMTuut8Crjg/EshCS2orq7Hxe//HMiB/uzecfz1by/h2WfH8Ne/HMKBF4HJCWBsbBwHD+3Hue86H5W+GshqM048+UwcODyFsSkCsRk8u+8F/PVv+/GnZ/azd599DtjzyP9gUXmcOc8luRk/+P4TmJmewcTkIUzPHMLYxGH2exhQ/p9ZicHpGHB4fArf+/7jUKINiMhNaG5egief/C3GJ2cwOT2JXbs/jmpKvUsNuOGGbzIX/dQM8Ic//hmLh45DUKpHQG6DT+pEgCZGyVT32cqc8QJNfBIa0Nq+GI8/8TMcHh/DgUMHMTk1g+dfPIy9z4/jpcMTmMAMDk+RUWoKX7np6wiEYxDlelRUS3jspz9jqvQ0xvDSgf2YnJnG4YkZ5u6/cPsHGVyuP+FUZiCbmpnG9Mw4SBcmwN///GE8+9wBvHhgAmPjU5iamcLf9j6LvuGlKA9FUUVpfqnFGS6doDN1bm5o72ZvuN7zXwlE7efTG+deYTLX57NBqHG/KpgAK6UIaKhyEQwoCSpdBD1L36z0UxBwZgtvM+oNQLU65b1cl1dHYERZlYwyM1gWeO/JaW9yzptbNjntrWDp9bqkMgQzjBr7WWe8qzn15MrXpy+5Weea02d2x3t9rrS8GmWpcBoB6ubcDKCLSiuwqITm0tuBp9OZPZCa4XRu72X6EoFoScZ4xUCoGYKPDiC9Fuevuw9bT7kN5266Hlv6dqFXfS0a5PWoix6HWo0mOQ0hQbPg1QHE1cW6ejqrlBoK6SBqYhSkkg6jRluGGm054tpSDqSqeVb9kQXSrp7l+MfeF1gKnNLgf/3bc/j5//wWv/rV/+JXv/oTfvWrP+NXv/oLfv4/f2SwNjk9AwIkUgPf976dCARqQIB23PGn49x/24XNW85CZ9dStLUtwdLhDXjzm96FP/z+Lzh8eAxT04dw/Y23YNEiidV5XvKBTzD19NDEFF46PI5z/uVtSNa2IB5vxeKBtRhdfyZOOu1fUeGvZ+77cLgB3/vuE5icmMbY+EGMTxzE9Azw2989g5tvuRuXX349/vCHv8+2aNq3/yB6+1ZAEhvQ0rwETz39O5aan5yZxM6LP4YqXw0EqR433JgJSDsQlKgLADWfb2X1rATy/mASH/jQf2JsYhqHxsZwaGwCX/ryDViz9kR0di/DGWe9EQ8++l2m9B6emMLe5w/h+LUnwR+Mo7xSxE+f+gVz8s+ATGJjmJiaxksHJ/H4E7/Giae8HuVVUWzYdBr77zM9M4PpmQn8vz//Bf/5mSuw5eSzsGTJ8di16zLsf/4gJlhXgCnsvOQ/sKhSRCDSwtpQOaqdHEizNtA3gDPbyoGUAynBKwfSdKWUA2kRjEdmgCz0/mgB0gvX3o/tI3dh5+a7cMGmW/C20SuwofN96Iieijp5BDXRlaitWYGamiHEE0sQjy1DPLY8tS5FIkbAagS1k1qOhLYSCW0V4tqyYxpIqZfmwlBIKY1PDnhDIV3MFNKhpaP469/3MSCaARiYUs9NFinFkVRH42xscgwT02OYnJrG1ot2IxKph6p2we+vR7U/jrBYw1RJRWmESOBTreLGG76O6elpTE4dwt33PoSaun6EpHp88lNXshZOlJ7/y9+fw4rVayHJcUTVBkSjzQiEalEeSCIaJ8d/GxSlDd//3lMYp/w/ZvDEEz/FW/71XLR1DCEQrEUoVIMrr7xxFkipNVV//yqEQ3UMSJ9++vf63zEzhZ0XfxRVvgQEqRY33PiN1Pl8hTQot8EvdiIodbFxnWGxE2GhHZJMk50a8Z3v/xiHxicYEP7il79DS8sABKGeTb6q9ivYsOkU/PnvzzJVk8oXLtj6HwiLtSirFPCzX/6WlUlMz0xi//P78ePHn8D5F+5Gsr4bFdWkjCWwbuNpTCFlyusL+/GWt5+LRRUCqoNxZjxraOzBE0/+AhOT06yu9kvXfgUBMQ6/0IhqMjVlAU+n+25UUfMz+SujddC/wRVSs3L6SlVIy6oLUCN6DCmkXhXOfJ9f6AqpUzsn962cuEJqqwAfLUC6bc1DuOz4R3HJ8fdj18jd2L3lbvz75v/GP638KFa1vh3N2hYklFXQyAiVXIZYnGJ5Kpbpjexjwzp4kiKqrUBMXYWYuhqxYwhInepDFxaQDkCWBxCN6kDa07cKf3/2BQZkpNKNjc/ocEY9OKf0mJrSgXRsYgKTM+OYnBkDqYznXXARgkENkkTN8amHKLU5Isd7HYLBOAL+BCrLZXz+8i9hij6CcXzvBz9hk4TIYb5914dZM36Wtp8EvnbLt/Du91yAwSWrUVfXhSClb0O1rI0SawElN+GxH/0CU9TEf3wKX/rStajyyazlEznxo0oLPvu5LzPVlH47qaf9A05A+hHmtBfkJL5y49dB6fq5lP3xICc8TWLyi10IijQxinqh9iEUboMktyBZ34Gf//LXLNVO7z366GOoq+1DkBrbRwhaG9HVuxS/+f0zDEhp8MAn/vNKVPlUlFeJePp/fs16nk5NT2PP/Q+iq3sxgmECeqozbUd1IIl1G05jSjT9Hfv27cUJJ52GQKQBlcFa5tavq+/BU08bZQgzuOmrX4co16KyOoGw3MqBNJTd1JRNAc12nyukhVdIOZDOT9vnC5he3+dAWgJbYCu0IrnQvne0AOn2NQ/hgysfwgePexiXjjyMHWvuxUXr78COV92Jd266FqcOXYwl9W9AbXgEDdG1uvIZWzGnkrLJSkPQYoPQYrQOQ4stg6YtR+wYStkvfCAl133/PCBdvGQt/vaP51n9I0HcV2/+FkbXbcG6dSdh7VqKUzAycipGRk7Ejl3vx0sHX8LY5GEGb9u2XwxJqkU80QNBbMTA4Bq88Zx3YNfuD+FDH/4MPvaxK/DBSz+FH3zvp5icnMLE5EF85/uPMZiKaK1YvuoEPPPX51lamhmfJnWIHBsHHnn0MZz7rotQ3zrIHOSy0sqUTgLSaQLkKeCaa/8bFZVR+PyNzKQVDCZx+eXXsDpS+ltI1R1YvJqplpSyJ4WUTV2amcKO938Ylf4YwnIS199kBtJnMDh0HFNwdSDtREjsRSBII037IIgdoN+SrG/DT59+GhP/V49Keu13v/ckamsGEJF7IAjtrMaUyiF+/bs/M5VTB9KrUE31gD4ZTzxNKftpzMwA9977IIKhKMgcJkWo/2gda5i/cdNZs/+jYN++/dh0ylkoC9XCJzQhonWhvmEATz31W1YvS7/hm7fegWAohmCIpjc1cSDlQOrK6OSlZtT6rFE/Smuhakg5kHIg1WtN7WtIuUJapFKAeUAaXwGnpvbp58thbnRv7AtpamqIDaNTGcG5667FtrUP4tK1e3DJ2gdwychD2LX2AWwf2YNtG+7B1k2344ItX8c7N1yJU3u3Y1h7A5LiWtREj0N9/HjmyKepT+Tgj8eXgGbGq9pi0FQfRSWzEZ1lMTbla2pSB6DZRKHNTLkA6ayZSSHDEdWPFquGlCYgUdq+DzRJKUoue4lc9mvw7N6XQLWhVA/5iU9+Fj6/AokUwnADGyNKTnRBrMdrznwTDhyewPiUXkO69aJLGexVVcXxrvdcjF/86hnmrGfK6iQwMQFM0zoOzMyQEekgHvnOD1k/UlmlUZd1OO2MN+Guex/B3597kbnT6V1KtROUklv9W3c8hIjWwhRHWWrE4z/+JQNS+uaVV34F1WSQivQiEOpiraE++9kvM4hjiuc00Nu7HKLQwExNLGVPnQCmJ3HR7svgF2sRlGqY4YhAlZTIP/6/ZzA4vBohsRYhMgZR3ajcg2Com02dEiUC0hbEk8146n9+jon/q0elf+uRR34CNdqFmLoYwWALIko7BhYfj9/8/q/6f5Np4LIPfw7BUA1TSB9/8ucYn55kYH3XXQ8wkJRkGgZA5qk2VPvrsX7jmQxmSbU2gLQ0WIsANcoXW1DXMMAge2x8mv2Gb337TkQidawjAU2EckrJ254L9fCnwpyOt92H6+AzxRFL2bsATK8mpmwKaLb7xVZIdUPTwjQ16WNCTQppNTns83fZE5CWVglpUWhTkz6VKT9Xfab6UTI2FcLU5FXhzPd5UkjdmJbsnjHXjZoNTMzUVOrN1LSotByLSsvSI21ePc2v56amvFVdM5CmQ2cGQI0VD0hVqu1MrEJjfCk6ImsZkG4duR8719+JXevuxc7RPdg58gB2jjyE7WsfwI7R+7F93d3YecId2Ln5Vrxn5Bqs6/k3NEc2IRFYjWZtBHXRVdCkQSSp5VN8CeLxxVBj/YjVLEaMQWpxgbTQ4On0vXyAlIFi0YGUJi/1poCURnu2o2/gOB1IUyD4qU9TH9JaqGo3ZLkLitKHSKSXtYE640waHaq3caLxoRde9CGEhWZQg/knnvwDDpG7nSCUWhG9OI2DB4Cx/2tJNMNqUacxPnEAP/zxkyxlHxBqERSSUNRGVPkiDALf9o734Lbb78Vze19k36DvUVuk9RtPQzCYQLKmC9/7zhNUPorDh6Zx1dU3pepACRZ7IYqN+BwppJR+T5Uc9PevZLWszU2DDN6oTnZiagIX7rwM5YEE5FgLrr3hFpZWP3hoDH/43/+H3v4hKFoj1Dg1vKfxnk2oqKqHQG2g5HZEojSKtAdP/OxnODw5jvHJKXz3u0+gpXkpKsqSCIVboUTb0N45jN/87i8MSA+PA1/4Iv1eFWUVAn6eqiGl33n33Q+zEgcagRpiI0TbWA/VtaOvZnBOgL5//36sP/E0lAaSqAzVQ1Ta0Nw6xIxautMeuPPuPQxs/YFahD267G3B06nVk6m1U+FglOpInWtIvYKm2+ezAWe2+8UH0mzOevP9I+uyN6ujc/vCAKkn+Mwyn75YzvpsMJoLkOYLk4V5Pw8g9eSid3LX6+dOSqjTOa8hzVM5PVqA9ILRPdh6wu3YtvFOBp87Rvdg18hD2Hn8Q9i95hG8f+QR7FqzB7tH7sPFG+7Ge0+6Dq9d/UGsbnor2oQT0RAaQbM6gnp1BWKRASSoFVTtINRYD1RtoOgKqRNAFvp8YQNpJ5sRbw+kB5iqSODzqU9fCUGog6L0srGdEXkAstTPrk8/4604cIiATo8Ltn6EqYGdXStZuycy7tCs+38/fzuam3vR1jaE+rpufP2W2zE+PoHJqcOshpRaKEU0Gh/aykxFcrQBkkItmDQIYhRvevNbsO/5l9hvGp8Czn7zOxmw1cTa8MPvP8WA9NDhKVz5pRtR6YtDkLsQEns8AemO938C5f5aVAWT+OwV1zJoJJDd/8Lz+KfXvRH+QIRNatISXUzR1acmtSAQamDlCWqsGT96/EnWu5XS5d/7/k9QV9uNiNwKUWxhf1vf4pX445/+xr5NcP2pz3wZPn+MmZqe/sVvUjWkdkBKaftarNt4OgNSUo2fe+5ZbDr5dPjEWggKTcVqQm0dmZp+nar/ncFd99zP6lAFiSY9NXtSSBc0kBZBGTWANRtwZrvPgXROIdWhlAOp0fKJA2lm4DQrqHZ7J/B0OudA+goB0gtH78dFG+/G9g33YHtKJd01cj92raF4ABePPozdF/r0BwAAIABJREFUow9hx9r7cdGae3DB+ltx3qZb8O6N1+N1Sz+CZYlzUFs1ijrheLQk1qI2tgxKpBex+ABz5Rc7ZV9o8HT63lEBpNEefQJT1KyQpgMpTWiS5F5ElAFElH5EtV6c9pp/xUuHgfEZvdH9+Vs/CH+oAcPL1mPf85TKB144MIZNm0+FIMZRXa3A74viW9+4i9V1Ui/Nhx/9ITPssDGiaisSyS5mxAkJMVT5RJRV+LHlpFdh7/4XWBqaFNfXv+GtCAVjiEh1+Onjv0gB6QSu/PL1rEcjNaoPil1MCXWtkO74KKrCLagI1LIJU4fGZ3BojNTOcTz2+E9wxpmvR6K2DQEhwSYkdfQOYcPmM/GWt25Fa9tyiHIjbr/rQRyemMbh8Qk8+9zzeM2ZZ7OuA+UVUZBZ6oKLduHFg4f1wQBTwFmv+1cIYh3KKwU89sTP9BGoTCF9CMFgDKLUqKfsxWZUVMdxwolnsv8GBLx79/0DZ77uDagKRlFaIaOiSsGyZaP43e+fYf8+tX66/ItXwS/EUR2qR1XQm8t+oQCpAYpHas0GnNnucyDlQGoGUOvea8q+MAqn+76ki8qrYY2SsvQWTnbpebszO7DM9cwJPJ3OOZC+UoB05EHsWP8Adq67HztHSB29D7tH7sUl6+9nqui2tfdi+7r7sW39g9i+4WHsWv8dXLR2D7auuwvbttyGd6y7Gif3b0df/Awkw8cjJi5jY0njVDt6BGpInQCy0OcLH0g79DpSGgmaCUjFOigqgWIXg1cp0gNF68RpZ56DF8emMDYDFudv+w9Q6j1e047//dNzLF1PgPbfX/sWzj77rdi+/TLc/u0H8ew/XsIY1Z5OUA3pjxEQaJZ7G7acfDb+8Md9uPnr9+DyK67DBVt340Mf/gQefvR7rA0VNbE/ODaDDRtPRSioIa41M4MUpewPHR7HlV++FhU0yz7SxnqFUpspt0C6/f2fQkl1I0KRdqg1bXji6V9icprg8jBrQH/g0BgD7H/sPYgD49M4MDnOeoqSOrxly5tQURnHGWf+M154aRxj45Ps3d/87ve47itfxVVf+ipuu3MP9r5AE7CmcWh8Er/8zf+ioamXtX0qrQizf2+CeroaQBrSIFLdrtCIsNyMSn8CGzadrvchhd4y66mf/xx33PMQvnTN13DVVTfhBz98Uq+3nRjHofExvP6cf0ZlSEUFmZoi1CHAPZRyIE0gG3za3edAyoHUCqHm6wUPpGXVWGQJDqTcZe/B0LQCdY41pAR67mJuUtOq1KSmASQSZDiiGtKVqRpS3dS0de1D2D3yKC4eeQQXr30AF68lIL0Hu9fdjR2jd2L7+rtx0cY9+Pd19+L8jQ9i5/E/wiVrH8eONY/ionX3Yuvm2/CeE7+Cc9Z/EiO970SzuhmasAIJdRUSMXLaUw2pbnjSV4vRiUxN6hAzQKWPAl2SOreuc5OaCg2e+vf6oaoUA7NBkKdags5oXKdC/UijllD7IafGguo9QotpaqKUfXsKSHtMQHo8nt1LU4Z0M9GnPnU1MzApWgfECD3fBUnpgBJrx+mvfRNeHBvH2IwOpRdsfz/CMvXVlPHVm29nYy/JLU/QdoiU1HGwFk0z02RqohZS43jgoe/DF6QaxyZc9uEvsOlO5EB/8YD+3kGa3DQxzeoyJ6Zm8IMfPgFJroEs10ISavDYj58G/d8ckCoIKy0ISm0phfTajDWkpDZOTE1ixyWfwaLKRgjRLhBUnPW6c/CXv/0jNQ1Jn4hEk5NI9T00OYWDU4cxRiNQp4DdF38GgUAj++/0qc9eyRTK8alJ9l2CTFJ1aaTnxAxNXprACwcP4a3veDcqqmREok2sMf6TP/s1++81B6Q0xYkU0gaWjq/yx7Fh06v170yNY3pGB2Uqi6DSCiovODwGjE/MsH/3+z/+EUQ1hsqwhkC0FdWiN5f9ggHSYA2qrJEhZV8dqoGbcFJc7SDTy9krB0gjqPDND93AZBiZzKuEnEaGpiY7HSmXvddpTHbPOzXEN6CUA6k1bU/GJnfhpIQ6nXOFNE+F1JORyezCdwJSBqNLkYxnDwJBal6fYJOTFrMZ8/HYKkQ1vW9oQ2wpOuQT2OjQrSP3YicZm1iQqek+7BylIJPTvdgxeh+2r6PYw4LS+bvXPsBiFxmgRvdg27q7cNEJt2P7qbfh7BWfxTLtXLT6X4t66UQ2hjSR6ES8tgVasgMRtRdqbCm0+BCiBHORxVCV1YipNNWpHbFYJ2JaD2JUf6ouQUwdYkHQqmpUm0qmqQFoxRoRqvUgGutENNbFzD9atBea0sfqY+ORAcQjixGPDLJQlUHIsSWQ5GFEwsuQjI4gHjkeEXkpZHUxwlo3RI0c8F2IKF2IOIwDtTuX2ThQm7n1drPsFfo3CDDJJd6Zig4sHtqI3/5hP/a9AOx9HvjYJ7+MKl8SEZUAtoPNuxfkVoSlZrzmn96Bv/5jnD2370Xg3977fgaWJeUKlq3cjLvv+yFeOEjfmQbNk//H3gncc98PsOv9H8ef/vI89j4/hm/f8QgC5N6Xm3Hhto/ixz/5Pf7+3AT2vjDNygHofSoLeO75cTz6vSex6viTEEtQjWg91FgH9jz4E+xnv3Uan//iTSirUiFEWiApbZAjzbjsQ5fjebq/bxLPvwh0dC6HHGlCS+swHv3u03jmLy/huX0TeN95H0Ig3IagQPWYZFyqwZKl6/Dl676B3/3xH6C58vtenGRz4ve+MI79L03hL/84iJ889Xu8/dztkNUWNpdeiNRh264P4Y9/2ou/7z3ETF80W37fi9PsG9//8c9w2plvhi+oQatpRyBcg7KqCO578Ef4+97D+POzB3DDzXcgKNfDF65l/23ESCt8gQTWjpzEQH5iYhxTk4ew7/kXsPeFw3j+wAQOjIH9N6bf+MPHf44Vx23EotIgwpEGBMR6BCUHl72TUcnuPFyfalhvNK7PZbWfS+8T6uATTPdCyazTk6xQ6QZEzc9Y36drZ/iMozJojRgqAvOjMhBzNTLUGCvqNDq03K/CGjSz3hjvWYjV2rLJ7tru39FBdK42lMaDkukoH+g03q3wybAG3bM1NXlsdm9nZrKDSs9nrsaAGg57GgfqNoo4n76iGiU2sai8CtZwo5A6uekzp+cJRO1bOWU6Z077kjLmpHeCUTrPF0jzdqkvtL6iXn9P4YE0O4gasDoLpHGCUYphxLXjENWWIp4YAgNSabMOpKN3pwDUANFs6z3YNXIvdo/swe61D2IXxcgD2DZyL84b+TYu2nIH3rf5ZpzR/wksSb4NtfIGJKJ9qKklGG2BGh+EEh0GTTmKxfuRSCyGpq6AGiUltQuxGMFoP2IqjSslGB1mQS2kCELJwa/G+ooGpFGtD1GCUq0HarQXarQPmtLPgDQWWYxYZHA2oko/wmoXVFKB5eVQQ8uhiSsQVZZC0gYQjhlA2g0lYj+b3g5G6cw7kFLKfn4oWheWrTwZw8u3YMnSzWhuWwEx0pYC13ZISju7JihN1g9iaNmJWDx0AnuntmEJuxeNdTNgrakfwIZNr8WZr3snTtjyOgwuXY+a+l4osTYMLd+IJcvWo6vveJRXJSCrpMC2IlbTg4El6zC68Qycevo5OP2st+DkV78By1adgGRDL1NTo/EuhKQm+EN16O5bg6Flm1i0da5kqX9KcYsytaZqRGvbMvT2r8HQ8EasXH0SRDJQRVsRCtejb2At2jqWo7dvDZJ1g/AFGxmQhsUW9lsIkv3hWjS3DWHpyo1Yt+k0jJ7waqxeexJWrzkZbZ3LkGzoQ1CsQ1huYKsYaURASLK/8/jRV+GkU8/G6We+BSe96mwMrzgBtann6ZmgQK2k6iGrzWhsGURn7yp09K9EQ8cSBCNUPtDM3PNV/iSbPLV+/atY6ywaKvDCC3vx1re/E8tWr8fGE0/Hq854Izaf/FqsPP5ERLRmNr0pJNZBkOn30O9zUEjtwNPprGBAmj6fnmBUB9LUPY9ASqDpowi6C3rePZASiMZswzxJifbGNCUDOLOt3oA0N9e8HVTSmR2App35FVRYgymjZiDVJykZUJnPaoVRuj72gHR+X9FMc+qLVkNqA6MlFekwSnDKgTRPpdErCC6U549VIN2x7h6mnO5i9aYEo6lYRzWm9+K8dbfivRu+jotOvQ3v3HITRnu3olkdRX3NMGsJFY0Oseb6WpRUzk7mWFaYappKy1P6Xh2Gpi6Fpi5LrcPQ0/n90GKksPYWDUhVdTGi6iBUdZBNPKKpRxSqYsQgogoF9Vrtgag1Med1XBlAjbwUMWmIPS9rvRC0bkhqD2uvpKbc7E4Aaj0vBJCq8R4GnwSVBJ+kjBKk0t4akWgnMzEZ6qmW6NWfZan9TkRUeq8NotLKak7VRDciWjtrbE8pfzFC7u8m9t1orMf0b7XCFyJ1kICqCaLSBCnajIhK3yFwbWHfpDUQrmcqItWgktJKMEprUGiEonYgLDQhqnUiQK2RpBbIkVaIUjPrC0rtkCJMSW1lNbKC1I6Q0IKwpCvAitYOUWlONcUnqKtFRGuCEmtlzfzpflhuhD9Ui0p/HFK0BVX+BIJiPZvsROdqojP1DaoFpb+Vvt+I6mBST8UHEhDpTG5k5/T/G9VSEqLWinJfDet9Sv+NfP4abDzhdExO6uUOe/c9i5NOOR1SlP6tWvbbgmItg2E52gyBgXEd+2ZQbERVIGlfQ+oEn3bnHEjToPSYB1KfYgOulKovDpCW+yRYwzFlf9QqpBxIdeWUK6QLWoU9loGU3PjUHmrnyIOsZyn1Ld0x8gAuXHM3a6i/ffM9uGDDbThv091436nfxsaB9yEpUb/SYSS1tYhHjkONOoS6ml5oiSZE4m2IJYegqqtSsRIqqabqcqjaUqjaEpaqJxjVYt3QYj3QND1tb67zLMg+ugRqdBmLaHQYSnQJlOggIupiRNQBVjMqa/2QtH7IsW6oNU2IaW2IR7oQF3oRl/uhUe2oRrBKafo+ROXF0MQlet9Pl2l7z0A6m6o3UvadrAm7GOlg/TVjNQPsWlG72TX13JQilLbXg57Ta0ppelELO6czKUKtkQhISbWlewR4FARjFM1Q410svU/fCgqt7BlBbp9dDcjVYbiNpdEjajt7n6YOkWpLrYxIVZVSCi6dVQcIYlsZVNNvEaiWVG6HQPPmozSDniC2eXZPf5txRul6eof+bT+bblSfgst6BsRhma6TECJNCIQbWfiC+mhPUprp91C6n/4+Hd7bUOlLMkA2IHlubYQgtbB3Kqtr2O/1BetQLdQgrDbDJ9YhJLcgIDSx56qqE6z/KjXsp9j3/H5s2nI6aOSqP5xkZjIC4aDQgADBZIj6ujawv4M6H9DvsjU12YGn0xkH0lcckLJm974IzKuhYhpKqAGMxnWhV+P7aWl7DqTIWUHlCqkppW8/y35Bw+KRUFGPRSDV60nvwbZ15Lzfgx2jD2IHg9GHdDAdfRDbRvfgotF7mFp64eiDOO+Eu3FC1/lokEaRjByPBm0TmpTNSIaXoz46iESsA7LaDoXqQglA1eWs1jWqDSMaG0I0NoioUTca60NM06NYNaRadAiaQkC6FNHoEgaiOoD2QYr1zoXWC1ntQTTSiaQyiBphEM3RVainv0Ehs1MPJK2T9fjU5MWICYNFBFKqNZ0DUWOvaD0gMGQ1rGo3guEWRNTuWQg1YJRWmiAkKZ0M4nQQ7WDXpF4raj8CoVYEw22QFYI+AsdOlhLX4r0MKAnm6NvBMCmONKu+FYFQCxStF6Ksf8v4Pv0mglqCPoI/gk4DPGmlbxlnBqyGRYLQblT66kFlFWGxHbLSxVb6vhjpZHtSrUkdpb8hENJhUwfMJqZiMsVTrGeqI6XYCfTCYisDWQJxFkLLrLpKpi/6rf4gmZJS90UCVf2MzgmQqwP1CIabZ5+h96opjR9tQlW4lgGpj6m+pLzWYHT9aSDDFzXVf27/izjhxNewDgWkBhPoEkTTfwe61sG8BbJCdapNqA7WcyA1pfN5yt5Nyt7qmNeviwmkDD6rRaStOTa7t6sbNZ95rhetCiHtHc81pFwh5QrpUVAG4B5Il6MuPhfGqFDratSHulkz1ZAm8qghtQLp9tEHsH30IWwfeQjb1uhq6a51D2MXpe/X3odtax7Bto17cGr/DjSKo6iLjGB06FxsGjwfveqr0BhahVp5CHEyWyWWI0Z1pNoQVAahA1Di/VDifYjG+1jtKKmiMW0xG+FYNCBVl0BThqBGB9n4U5l6dpLaSfWgsW7IsV5EtF5EVKotHUatsBZ1gREsTp6OU1e9F0Ntp0OLLAGBnKR1QIl2Q5P7EBcHGJxaU/NO1wR+3oImNaUHgRrV3FYHGhGvWcxgjWDSCLpPQEfv0l5XSbvYfUHuQFik+z1Qov1sEhS1i5Ii3RAkukcqK4FgK+tlSntfoHnWvEXgSGAalkilJfOSvpL6S+8SbBJgkeOfVlIqgwKl80lxJTNSHbtHwBemFDz9e0o3/CECQgJZ+r097Jp+TyDcqu/lDgbfTFGN6EqsroLqLalCEpUB0ESklAoq0vfb2N/iDxFUtjKll87oOhBqZv/dSI1l98KkvnayM1KMSRUmCKdn6XcSPFMNa0hp0WFUaUVVsA5+oZGBKaXcRzecwZrqj08Df9/7EuuDSmox/f36f4smBse0JzgnZZQa6tN9NvbUru2Tkxpqd34kFdJwkrnl7eo8jTPDoGRcO9aQpmpLq4M1oKA601c2kCqopLpQ23S8+dweSMspXT8vZS8xgCyEMpqmgtqBqHG2EBTSylBBxoE61ZHmrICWZ+s9SqamqvlhY2haSDWk+ujQ1PhQbmpC0RVct0BqBs+ktgwU5jNj7wZEjWeyAml8KdrFTXjn6Jex1aOpaQdTR+/D9tE92E6jRUcfxPbRh1nsGHmYKaVkdCLD0+7jH2Fto07tuxANwnFoiKzF5mXn472vuhZvGfkvbO54D7oipyAubGDu9Fp1MWrUfsQ1PTUfTXRDiXciGu+BFqepT+S6HwapmFTrWZAUvam1E32PgFdV+qAoPVDj/YjEeiDFuljIajebPhWV+6EI/agVR9EfeTtePXgZ3rbpCrz79Ksw3PR6aMJy1nBe0qhuswNqpBtxmb5pP8veG3h6BdX05ykN7z5I4aSgVD+BaBcLUSZQ1WGW0uh6EHAa59aVep/q39BX+k6by6D6zg6EMoXUgaDUziJEgEmlBay8gODVHASNNFPeiBYGxwTI5ggJbcg3AlITWIjNCKQiKDWzCVKLh9fjm7c9hM9ecT0u2H4pmtuXMYWVVNa0EJqhwyoBaxMCwkJy2aebmqoJQG3CgE3zajjhrWcMNkM188oYAuHa2WsGooEEq/etDJBRyW2v0TistaJO1/mYmqyueut1hT9/U1N2CHUBpAWaT+8JPg0INa8egFSfU2+jbtopnlUhmFVUY+/U0slrKyc7+CweeNqDqdVJn+najanJaIrvzW3vrYbUrbvecN57cdkXHe6ORIq90P/GsQqkekuo+1gNqQ6kpJJSUPqeVFLdec+AdA013b8Np/S/D/XSCtQra3Di8EU4b8vXcNGmW7Bt89fwryOXY2XLeagNbUFteBiNynLUkbs+2gdV64YS64RCtZrMWb8EWnSYKZPFAlJN60ci3g9NI0MQKXC6CheJ9CEeXYq4sBzRiqVolU7A+vZ/xzvXfBNbT7oH5590K95z8o1Y3vRWJKQ1bAqSqLVDVtsQVToQk7uhONSPLmwg7WEKqQGTOpAasEkASmEGUuPMWI1naTVDaRGBdF6NqxlGaU9Aag4CUgLY+UFKaL7BIJSg1ASkATJ+qe2o8CcQjjRhUamA0ipFr3O1wihTTHUIpdQ9lRfodaUOTfHtlFCnsyIqpHYwSmdm6DT21nO69oWTqPTHQP1aq1PQWV6tsTZgZDijMx/V24aSTCGlfqEcSM3wabd3UEhfAUCalpavCsHoJWpdOZDOTXLiQHoUpOLdguuRAlJq6WSNRGyZ3ofUpu0TS9nnoZCydk8jZGiiGlJSSVNK6br7sWNU72eq9yq9H7vXPIDtG27FSQPvQa28jAHplqEd2L7lDuwauRO7R+7AthO+hbdvvAlnrPgYVtS9EW3CZiSDq1EbWYGEtoTVCyqxnhSQDjJ1VFOWFEUd1RXXPqhk4EmltbXYIGLaMGLScmi+VWgObcFo87twzupP4rwTvoadG7+LC0buxYUb7sC2V9+K5XVvgxY8DhFlMYRYOyStDUq0A1rkyAMppbdtw5NCaqia+nQnQaJUtQGblHY3RxtLw1MqngUDVeNZA0z175CSSrWeboKl68kklSGCMqmjNNWpDSFbIDXMWO7W2XpSo640hzUgNMPPogl+wYhG1uy/IkgqYi2C1MpJJvNSk66MMjXUUEQJQudAlMoMKMjo5CeTU1rUw3UT/CICqQGbblbqz0oAyqAypXTSe0bKvjpI8EnXZPiizgN1DEIJTA04fSUAaVq7JldpejOYciA1g6kVRI3rVyqQZu4xam2Ab3dtr5B6VUINRdS6coU0Tzg+NoF0Dy5eez+L3WvvZ/1Ljcb521jzfFJO70uNH72PAem2DbfhxMXvRU1kOeqUEZy0ZDd2bLwHl408gg+ufgA71tyO8zfdgfNPuQ3v3vgVvKrvUvSrZ6MmMIqYtAKqQvWY+rx1VUtNS1LmJijlk7a3GweqkEM+Qn1I+1nzfiUyBDk0jJrweiyr+xf80/BHcf6Gr2LXpjuxc+Qe7DzuYewmdXjDXdi65etY8f/ZOw/4OOoz/Uva3ntVl2VLrrIt23JXdZUxNZAECL1DwGBb1YVAICG9t8vdURJSgFDcO8Z2SEIukMslF5KD0MFUY1tlpdXz/z/vb2a1arZMi5NI/rz+zc5O29nZ3e88b8u9DDHXXPhDk+GKlQiU+sPjEBrCXc8Y0g9GIdVrl/aOjPV8/8bYUkKkAkomJOnZ7go8R0t2PDPkpYQTyziJ8bHKih/KnU+wHY4xXpTtMo9lDv8YOPyjxRhj2ddNr7nvdTe+jJoiqpWF6quaqhJWLNH03m0UeoGUYKoBKcs+eQtgdufC4s4Tc4dGg658cdWnVNH+IJoHpycPUg7KyzqfJwCfgy17kgAp4ZPqJqGSsaCsX2r35gl8EkKphir3fY6MVEr5mG1taYTVf34gTQfL9zr9rwukOmwOZxwB0sFgczjzRoD0/YQKZGZmYjB7P9vss+5HBaTx6HQMtA9LId2B9ZW7xAim7HvfUsOM+61oqtuCZrYbrWWh/S1YQ6vcjcYFm7Bkyo2IBWYhJ1SLZVNvxpra7bhl5h58buaj+GzNTjQu3IwVtZvQsHC3uL8vrvl3VI1fieLYckQCs1U9UBaqpzGOMzT+A1FIBwPSUHgKfIFJCIXLEQrNgNc9AyX5p6NuykpcufiHaDl1s7zmtXMfxS3z9uOzjJuduwmNlfej5ZSfYm7+JYi7WdS9DK7YWLgZfxqeKC78QOjDiiElhE4cYOxT//6NQKqrnEwkYtkmDTYHQChLNzFJiaYK0g9US3WlVCmtwwfS0XAGhjYH65iytJK/WJJ+hgekjBulYqrHk/aOLm8h3q8pCO1VSW3eQlg9hTC78mCnK5/F+n3MwmcHJt01z7EfjHpzBUQJo05vNhzenH8aIO3j3tfg1GSPwmSLCmyyEoJKQssDY0gJ5QRVuvOpkHIcAdLhQOoIkI4A6dCF8TMyTRjMhq+cjgBpHwAcritdW24wGOW897PNPusOB0hzY7OQE5uJnKiybCY1RWm981LTQ7QM1d318eg06KbPy4nMkCQpbjcam4FQbCJi2ZOQH6tAqfcUXFNzFxpqtqJVS0ZSdUV3oZUtQVPtRHvd8ClXvBTF35FSSAmlTHYS01qOStvR6t1YvWgjlk65ETn+2cgL1GBZ+To0LdqCmyt345a5u7CukmWktqKhbhcaa/Zjde0eNC7ejhsXP4CL530LlaOuxhjfEsQdM5AdmIp4aCKCwVL4Y2XwxyYiGGfW+zgpUs/i+WF2gQrN1KwCIUmCmopoaDKiLHAfZvZ8OQKRcmnvGYyWIRhVReCD4RJEAhMQd5cjxzUbJf5lqC25AVcv/A+sXPILNC4kdPN8PIq11Y8JcK+t3IY1VQxX2IKm+vsxO+9TiLmnwx+aCDdLHmk97YPB8ZJ5nw6lqtboB6GQsnXoWCnTRLU1QDU2OAle33gEg2XwecdJQpWfSUWesTKfzw3HfMyqTzOvj+uPhc9PK+1nJfD5x2jGaVopvCzDJMZptb7XVwqfTz3vcrPIPZ+joqqAl9DrZna9Zi7/GLhYr3Qo84+B0z9ajArp8Gy0LOf0FWGAERCHa74iuKhwpi3v8Bb2qqKijvJxIWySkFQkI6cdvlGwsswTp1NGF75m3nxpF+qgauih5cp4QgqpOw+2Qczqfi/tQtPXYXvQgQlMx3LVO/0FyLKGYPNkw+aOw+wIw+6JSXF2uzuMqRXz8YnzL8Hnv/h1fOs7/457fnw/7v/FJjzw4Gb85OcP45vf/iFuvuUOXH3dSpx6+sdRMnYybC7VVclsDwusG6whWJwxWKT1J8deYwLUUElM/eczqem9mMkeAVuDHsuG6rg0+PzhAOfxlvlggbRPKaf05KT3Ov0hJjVl9cuezzQ5kDlEeadMI1uB6q1BnTCYncgyO2Bk3KnRhgyjFQYzl+kt92S0OGGyumR+hsEqy+nPyzoGKzKyrMg02JBltCPLYNemHcg0OGAwOZGRZYfF6kOWwSnzJPnIaIXRbIfJ4oDZyuWsMjJD3WixIsNggsHM7ZqlAxPXGY7pSUvpY0aWCYPZcHvTS3tQgwmZht72ob3u+ixkZPa347cL1d32mZmsLTpc+wAh7gShsg8AHmPdrCxVK9VoNIJG8OQ8g8HQB0BNJpM8p2/3fQHqCQEpoTQ2E9nRCjGBVG1e7/SxW4fqEKrGcuREy5EbnoWc8BwYZ+qaAAAgAElEQVRkR2YiGp+CULwEsZzxyI/ORKn3dFxTc7fKsh8USBWYsi2odGPSMucZO6onNh1vbKrdjVVLNqB+ygrke2ejwEeX/RqsXrJRXPvrKrdjXTVBdjsaWcO0ej+aq/eB2fqMT22p24jWZb/AudNux4zYuSjyVCPumQ628PRFp8AZGotA9nhE8iYgGB0HuttV/dDZCIZmIxieiWB4BqLBcsSChNKp0oUpEGEP+qkIxsvhI+BGJiGePQXRyERke8pR7KzB3LwLcWX1N3Hz6Zuwev4GrKnagzWV+7CmSh2fJHLVMjxhK1qq9kj91ab6hzC74HzEPFMRCI2HJzwZPhbVD05CKFQq0NwXSAdmwL8n931I9bJnAXfWIGU2v1iA56MM4cBEhFhGyjtG1GVWEBiu+dNgVAdTzhvcxsLPElL9LBgkEPe1AEtMeccgFBoHj7cYHm8RHE52I2KZI60ck380XCkbA4FSgunxzEcXePEwrTcDvm/y0fDni7vdV9wneSnlotdd9ccbCbCDlXJKm3dCEJrmpn//4JkOoenTJwakdM0rl3wuDNYgXP4c+MIs/B/EslPPwq69+3HoSBsSyR50dnUjCaBHM0539/TIvO5kD7p7gGQPmwocwi9/8xTOv+haKX1kdUZgd8dhtAa1PvQqOUqUVKqq0q8+Mmwo7Q+px3qsZ+Wb7REQjo9tJ5JlfzzYHM7zHzCQvlfwHGq9DxFIDf2BtB90pgPoYECqAyj7xZtsDgG3LLMNZrsLBosDhNCMTDMyCasWBwxmOzJNCl4JpiabCxabGyazAwajHQaDHUaTEyazC2azB5lZDmRk2mE0umE0emCz+WHWIJSjze6Cw+WBLxBEfmERFixehOuu/zQKipgUmYUsgxnpcPlepgdXQgdXPYfqTZ/VH0iPUc5p+DGh7GM/eLH7D11VPAZU6pB4oqN+zIRPAqfVaoXP54Pf70ckEsHs2bOxYsUKlJWVpVz4+j7+YYE0HisHLScysx+QjhWFtCAyG6WeM3FNzT1oqNmk3OviZt+KNTXblFUTtnaAqqhAKYGsag9a2aGp5nj97tXzJwakO8DlJVu/ZpfaTy07Pz2MhqX34epF/4ZTprRgYuQTyHbVIRaZJ12UWOuSLSzZ+YctKxn7Ke52utwjUyQpSjLzQ9OlVFQowv7rKnufXXwi4SmIsuWnZw7yfXWYnnchPjnrC7hx2Y+xcuH9WFX9CNbWsozVo1hbuRdrqgjLu6BiZreeREDK4vMlCAj4TRBg9HhKEAwoEPV6iuD3FcHnK5QWnG7PKAzL3EVwD2IezygMMG+R9Jxn3/l0c3u4z77moVvakQerNS7tP/l8IMgC+cWpovhUR3sTmYYBojqojgBpH5f+yQCkVFKp7opCaY/C5csD1cCaRafikc070Z4AjnZ2IdEDtCW6BD67kkl0JbvR3ZOUx/qYBIGUzyXR2ZWQeq5XXdcImzsq27Q4wrCKQhpRKqnu2h8BUhit/cG0t23oidQefd9lnvqD6UkJpHalhhIkBTIVkFqdHmSZqFASQi0yzccGiw12lxcOtw9Ojx8Ojw8WO5VVi1rWYBa3eJbBCqPJgSyDDVarF5lZdpjMbmQZHLBYvDIaTVRTLViwaCnu+fFPsXfffvz1mb/hzbfelms+0d2N6tpaGEymESDtF3+pA9zJOBJECZYcZ8yYgZ/97GfYvn07/vSnP+Ho0aNIJBI4cuQIli9fLsukQ2j69Am/tr+nQhqLlYPGeqTZkdmIR2YiFpsK9jaPx6eiIDIfYz1n4lq67Gsfwdoa2gasrdmItdWbsbZ6C9ZUb+sLpFpJpw8NSFNxqFtFPeV+JERg4W6srN6AFXUPofH0LbhywY+xaPzNyHctRY6nCrnBWYixPWd4LMIxgibV0okISczpOESkOP00BELTpfVnMDIWocgYhMNjkB2ehJhrOuKWKkwKXoAzyj+P6xbdh5sWbcaNNRvRumg3bl16AM1zd2Bd5R6prcpjoqLLMAPGzp4UCqkUxKfLvhSB0DiBUp+vFKHwOFx88UpcdVUTLr74elz36UZcfMl1uOKq1bjiqoZh2bXXtaC/XXNdCy6/cvUgtgqXX7VygF1x1Sr0t6uvacCnP92Ky69YhVOWnw8XC9VTHfUVa7VJ02uPjtXAdJhQOgKkJx2QihvfGQfd2WzZarD6Ma9mKZ5+5iW8fbgDbYkkuqmCihIK9afLoxz5R4W0u1tGbY5IqFRLFy49CwaLHzYXY0+jmrt+BEh7a5X2B1H98QiQDlRI6ZJXbnmqo3TJ21xeGK1UR1Uxd7vLg2kzKvCpCy7A17/xTWzavAWP7duPXz7+Kxz45eP41a9/I/bo3sfkuZ/9/D586zvfQ1PLGpz98U9i8pRp8PpCcDh9opwSUgmodOdnZKgkIoPRimuvW4EjRzulxTC9BDT9Jm1eZSWyjMYRIP0HAlK65umm57hw4UIB0EOHDqGnp0eMQJpMJlFdXf3Po5ASRiPxcsSiFQKlUgYqxn7wkxCPTUdBuEqA9Jra/8DqugexplaD0RrC6Fasrd6GtSmFVIEhY0qlrNOHpZCKGroBzXWb0FJD0NshANjCDlC1j6KpbjdW1u3AqsU7sbJ+Mz4172uYW3gFir2LkOOtQCwwRfrbUzGlCsoapoTRaGQ0/HSdM26U2frh8YiExiHun4Qc13SMD5yCxSWrcUXlnWis34qGBbvRVHsArXW/REvVo1hX/ShurtmD9VU71TnR4mVPLiBleScVQ6qAdCw83tGYOWspXn2tnb/jaGvX3J09qn+63kf9eGOiG+hvXIcQMFzr4j77GbfZ2Qlpn/nz+7cgGB4Nn3+UiiGVclBj4faNhUts3AiQegv6QOaJuO9PBoVUB1KWcbK6oiidOAP//af/Q1uiB+xWlUiyjWoCie4kunhh8aJNB1L652kcurq1aTXvnXc7MHHKXAFSqq502zs82SMu+z7dm3QA7T+OAGk6kEqMp8kOg2ZGAqnZDofLi/GTJuPq667Hj+79Cf767N/QLTdHSfQkk+juSqCLMNHdjZ4eNa8nqaZ50RI4dJBk6Amv8yNtHdh/4Ff42c8fwO2f+wLOPe9C2J1ecddTHaXr/dpPr0CiSwdRtZ6+naqaGmQaRlz2VA7T7YTVww/BNT/UMejHSSBdsmQJurq61LXR1SUgShjt6OhAVVWVuPTTVdH06aG2P+T8v6dCGo1NQzh7GmKxGYhHadNFMQ1HJyMeq0BBuAal3jNw1YLvY+WC+9BSuxVMQmLWPMs5ra3apZnKpJcEJU0RZFmnD8VlX7sZTQsUkLYKkPI49qBl3i6sq9mHNTV70TB/Fxpq9mBVzTY0Lt2AVct+ivPn3YFpuR9HtmsOYv6ZiARnIBIqRyQ8CdHwWMQioxGIjAf70QfDkxFh33lfBfJdlagefQUumf81NCx9AE0LtqCpeieaKh9D8/zH0VK5H2sqFYyuq9yG9VVblHJcw0oCrCzAblUnSQxpULX6JJQSSJkgRHf8hEnz8MZbneDvt4JHujm75C5bv9v+e408HvIF+7n//IHNcHtz4A8Wa0DKclBsHzoOLt2kBumIQnoiIKove7IAKbPk6Ur3hQpw788fxtGOpNyoMGZUrgc9TjQdRDmtw2iyBz3dyRSocpr29F+eRyheLO56JkhZnXTdh0eAdARIpVf9icSQEkgZ52k0aWa2o6BwNL7xze/g2eeex+EjbanvT4InUsabpG4kuxIyokc95jxaTw9johlswv953fN/igMMR+HYgz17H4Pb45fkJbrsmfVOIJXLX5YFElpsNUNW5ldRITWMKKT/QEBKYNShtL6+XoCUNzY6mNLzQ5W0trY2tZwOmR8wkM7sbQmqtQiVDPoByUsqwak3mUl/rJKa+iYvDSyKz+ejsekIxwmhfH4asqOMKZ2K3DyWg6pAbqgKo73LcPWyb+PTC+7G6trdaKjerfrRM1ayaq8og+uqd2Mtk4tqt4hy2VS3QUoevV8gbajfhOZqQt4OSWpqZumoOkLe5jQ4pkLaC8YsyE9gVnC8Dc3Vu9BQtxGrlt6PT9f/O+qnNKA0fAay3bXI9lchFmC1gqmIBEsRjpQiFBqPaGA64s75mBw/H5+c+xXcuPQ+rF74iJSs4muSmNkqdpqie34X1lVtw/rqzVhfvRHrqjdircTbEt7ZFGC3xJKeiMte9Zr/gBKZ0nrdSxtQvQi+fyyCkig0ChPL5uH1N9s0dw+/ABPoEeMX48nwD+gC8MBDW+B0Z6sYUt9oqOL7QwOpU1zyTFwayo6V0NSbrMTEI5Zbeq/JTL3r6UXv38f4D5LUZHHlotcG7740aJa9Mxt2d44kG82Zvwivvv4OjnYktB93/VpMOeKRpKQuamhS5KFuSuppd0983N3JOy1gx859kLhRFxOamFGvw+j7d9mbCbfOaCoJqn8L0PTHzKo/diJT+vMfXlLTwDjR/qpo+uPhK6SSWd8/9vODepwWQ5pewP5Ep9NbgmaYHKD1UUDTMugHm59psMJidcPu8IpaedHFl+P5F16W71B6hnh/pCAyiWR3F3q6KV8yjIQ3R4TRLgiMpkBVg9Y0GCWU8orn/2pb6obsnh/fC7PFBpvDJVCakWnE9StWCrDKfZmW4EeFlY8JpJnDBNLBk5aOV1/0xJKa9Kz44YzvNalJh7N/1FGHUSqkjBMVlV2ikZSKzm9AwumiRYvErZ8OoenTJ/z6ByqkHx2QEkQjoo5Ol2z7nOgUZEcnSxxpNFqBvHgNsp1VqJt4DS6t+xZuXLwVN9bRXb0TLQv2COy1VO6UckYENQJpy4JNaF7I7Pht71shHRxIVecnFTtKONwuLnKGDqgwgs0qxrVmA9bUbEZr1T4FpbWbwOz2lct+iktqv4OFExtREjwLUdd8ZIdmIRouQ9gzFvnBCkzIPgXLp7fiykV34sbFj2B13U5JpGKSkuyvZnMqwWstwxcYUyuxtYyx3aj2K69/p9YmlesNP8v+wwPStI5MAqSs8VmEiWVz8fqbR9OAtBM9oKk79b//2CNAev+DmzUgHQOPl/3tefyay97P+FH2sWenJqWQDg2iOqCOAKmujnL8IBXSXhglmA4fSFn0nkXuLfYwWtbehqMdSqmnbtSDbjFFnApKk3TjJ+i+6kJnZ7cIUUePdkAPIeXvfVdXjyxz1z33IdPkkdhRuyQ2KfCzOEaA9PhwOgKkOpiy/JLZ4kRWlgU2mwu33XYHXn31dbnOurt70NXF6xTo6u5GdzKJRKIT3XS10k2fJKB2i+ted9VznprfhWQP12WctLriiZQEy45El0ApVdBbPnsbDEZzqsTTCJAyAahvlv0Jg9hH6I4fzrH9SwIp3fRUQnMi05EXmYLcaBlyomXIzp4mGejRyBzkBiuR65qP8YEzUT/+dtx06oNoPHUTrp33MzTWbsb6RbtT4EmXfnPdZjQv2PKhAWmL1PfcrWX1KzWUiVVMsOqFQ4Lhw1hTswkt1fvQWvMYmqt2oLFqI1ZXP4JVCx5E8xkbcEHNNzG14FOI+efBz1hRZwUWTLgUVyz5KlrOfgg31D6IVTU7pMyUbKea1QO2o7V2I1prN6SN+rQOo1RHqdKydaqq1XpyAilLKdFlrwGpiEtKIU2iUwuN51fr39f4pUyFVAfSYFBvJao6OLn7gegIkL637kwnC5C6vfnIyHRhx64DEjOqdCL+UPMqoDGlidekCjFhOAdVqedffBXbduzB1u27sXP3Y9j3y9/g93/4M1557U3JsP/cF74Bg8UnQKrqeIal9NMIkKYroUNNjwBpOpAaDVbYbS40NLTIpZjo7EZHR0JgVK5Lzb1KFSvJuNDuJDo66XkiqCbR1t6BRFcXOhPKWKJMudyJo+qfigFVKidF/0S3UkgvuuQy2BxuiVllzdERIB0B0nRVNH16OPDbZ5m/p0LKQvjZkVnIC09DQXgy8iOTkBObhDDrbebMQCgyHfk585AfnoV831wUeesxNftTOGvGZ7Ci/i40LL4PTXUPYU2d7p5W/eobxVX9/ss+DaaQEkil3qmUmeoFUun4pHd+Epf5JukE1VCzC41VO6Rt583Ve7B+PuuE7kBjzSZ8etFPcG7dFxFyzUUwMhVTwp/E6mX3YOXCe9G44CGsWUio3I3W6r1S5L6lerfEhEq3KYJ33SbpOtXMWNEa9dpVQhfbpfL1UyVmzC3tZFRIVW1PxpC+/kabxJAqbyfvzvnDf3L8yZdxEnjgwa1weXIRDBFECaU6kLIQfrEyvaQTC+AP6ar/B1ZIPYMnLaXXJk1XPU9k+qQAUmc2XGx96o7h//72slZnlDDKG6QO/iz3AdLD7d148n/+gtM+dh5yCktgdQZgtHlgsvtgdQUQjOZj9LjJqJhbg/GTZyHD4JayTyrLXsWRjgDpUBCaPn8ESNOB1GZz45Rlp6GtrRNURWmkTT3ZhCNhlK7WVw++gf2P/wb33Psz3P6FL+HGVY246trrcdGlV+DCSy7HRZddgauvuwGrGluw/pZb8bVvfB3/eded+Nl992Hr9h347e+exLPPvYh33j2KzkQPTj/jbBhMNhiMthGXvSijI0CaDqHp031gczgq8N8bSHMIm+FpKAyXoSAyEbnRiYjFJyOeX4FQbBqCocnIDk9FbngqckJTMSo8DyW+BZgdvwCXzvkqmhbdh+baDWippit9D1pqH0NL7T4t0354iU1D1SEdDEhba1Uylap7SiAl+KVZWucoFs1vWrINjXSxM85zzk7cMutR3Dx7Dz67aB9urLsP58z/PHJDC+AOTMA075VYVfkwmqo34Nalu9A0fwPW1VJ9VeEHhM7G2p2qW1Qta4zuQhML9dc8iqaax9BUzfCAx6Rgv3SwEkCmarrxpAfSg2+0pbI09Tt0SWDm9+ww7ETQdTjbS19Gsk1TQJqniuSngJRlnwijRXAFClPueqqkI0B6YkrpSQGk7DlvjWLS5Dl44+0jWpF7uu0Jo4MBaQ8uvvIGZFl9sHmiMjr92TCwaLgzBIsrJKPVzXjREDKMblicYTEWxjfZQh9IUtNIDKkPen3Sf/YYUrrso9Fc7Nq5F+1tVEWT8h1JVz1BlBBKYxb0V7/6ZUyYNAW+INvXemCxu2G0ssOTKojPQvnSijNLK5hvtsFktsDhcsHpcsPl8SEYjiE7Jx8TJk7B8lPPQjSWh4wsixTZH1FIdRgdcdnr8PkBAulM5EXTYkjFnV6BnNjwTDo4xWYgmxYdPJGpz3ytZSgV0vzIFORF0lz2kSmIZc9APD4dOfFpUsMzHp6owNRXjnz3HEwKLccpE1fhsvnfwo0L7kPjom1oXrgXrQseF0VRdW/aibVMBGJGfA3717N+qFIUm6RwPLsX7cHqxY9g2eQbkO+dhQJ/FerLW9BQvxHN1Vuwvmo71ldvQUs1t6EgVECUMNoHSNmuU29pymSinWhk+EDdFqyr3YH187fjM3P24Nb5j+HWusfQsPAhXFDzVURclQhEJqPMeSnWL9uNxqpNomqur92BlvmqIQDDEZpqt6GptrcwP4vzN9fsQXPNo2iu3qvB6F60iGufKimVY66vttenU1P++Yh6psAfGgd3uAxevVOTdFEah/fUiSktgWmw9X0sfh+cAB+NXZSCjMEsxoSy+Xj19TYp20RnKPNEmNF8vFJP6nmWGKGCpVyog4GplDfRvP6M6WMC9PC2rcr8dDLLvge476HtcHjy5Zx5/Cp2VNz10iaUUDpKA1IVR3o8IHX52BJUtQV1+bmuZtLeky0+i+H0jobDMxoOb7G072QLz+NbERw+tvtMT4Rih6Zi2D009q3XE6XYCrRogEkHJ0lg0jsz5cPuzVdtQd15sIvlw+5Wlmoh6imAnS1GxfoDaR5s7PEu1v+5oWNIT6ydKLsy6XGjjB3VLT3JSZ/Wn+sd2X/eao1gztxFOHw4IddKd7Krn7uemrn6e/2ddsypXirQ6fBlw+6Nw+KKwOqJweaJweJislFERps7Juqo0R5AptkLszPcr+VnVDo0sUvTCXVqckZgYkITR4cyoyOMoexEk5pM9hCUBWGyD2UB9ZwtJJ2oeuuKDtadKQCTjepnL0T2mbYNoYbavDD2N2u/eVYvVLtQDwySgMRRm5dKbPJJ6ATDJ45ZOD+1PrfhHmDHSmRi0tKQz5tdSO9Xn2Fyai1CXcgy0XpbgrLOqMq+V3VGpe6o0Yb6+uV45513BUSTdLczp64H6OjsFDf8o4/tw/zKKqn/SWhka1C9TSg7NnFaHw0Wp9QwZfcmo8UBk8Uuxe6N7PJkc8Jic8Hq8Ei7T5PFKaWmWGZKqaQEU8NxkpqqpFXnUJ2aVEtRthU9XvKSel5ah7KnfZ82ogZIC9AsA1IdmtgedBAbTjKTvszwW4HqLUNVaScdzv5RR0Il7e+a1JTbB0Z1MCWMDt4ONDfe97k+sDkcIB3GMvHINIiFpyMnOAvZYcadTkGU/e6jk5AbmYGxOUuxZMpqXL3objTUb8NNVbvQWvUY1lXTdmNt5Rasq9qA9bVUCzdJhnxT7U6srt2LlXX70Vi9F40LH8YpZdcjz1uBfP98LJ3WhNXLHkFzzSasr9qKm6s2YW0VE4iGp7rqMZx07ysFlXDIkkwsXr8ba+bvQOOCh3Fx1dcRd1QiECpDWfh8rKy/Dw0LH0aLxKUyk36XuOkb67aiqW6rlHJSmfzDD0ngsaxlXdK01qGz8s9TQBocB3eoDN7gFPgDbOXJtp4fLJBKdn2AJZ8mwB8sk/14/ePg8ZdKt6OJkyuxYcs+7Nn3Wzz2+O+w79e/w4HfPIkDT/wOB554Egd+8xQO/Oa/ceA3f8D+X/0ej//2D9j/6yex58Dj2L1/P5575WUNGIizqfA+bZIFfDtFOSCzPvGrP+OXj3Nb3G5f++UTT6G/HXji9zjwuz9h5/4ncduX/w2u4Gg4/CVw+sfBFRgPp38sHL5S2H1jYPcWwxUcC1ewFK5giWalcAbGwOEvHmBuvxaL6tc7P7EdaRFc3kK4vKPg8oyGy1MKl3scnJ4S2H2j+lkx7D7d0p8jjObB4SvQsvMJtGPg4DbcY2D3jBYolcx9gqtnFJzuXiOg2lPZ9ATRXNh92bD5suHw5MDpzlXmyoPTld/PCuB0FYo53AWwMlmJ5s2D1ZMLiycHFo7uPM3yYXEXwOLOl6x4qqQ2t4JVCQMYIkSA65vducpcuTC7cmEifMr2c2B2Z6dMEpyc+bDo5sqH2ZUn63A9MW1bVgKpOYRlS89GZ7tKTOZ1Q8W8/x9nEUjHTZkFizssgGlyUBVVGe+6aml2xsB2pGb2sneFYKJb3xGA0RmE0Rke0nS41LdjcXE7vZn0+vMEUaMzCqMrCqMzAoMjjCx7GAZHqK851WPCpYph7T+mZ9eraS5rdGhmD8JgD8Bg9w9iPhjtfpisEZhsYVF+qf4q07allXdSCUx+GG2+AYBpsnlhshMyPSkjDBqtvY8HPCchEhqYalnwWRY3+ponDT4Jon7NhoDStGx6A/u/W53gqECSY39z9gHQYwFpOoympgVE3cgy0dKh1AGz3Y1Mtva0OqWTEvvC/9sPf9inLiRjQFmSibdKf/jfp1E+Y5Z0XiJQslUogfSDtiyjFVlGk/R/v37FTYNk2atI6/lV1cg0DN6pabgQ2pt9z/3RjMqymGGvsux1INX70RNGs2S/3HevvdfMeR3STnQcCkoH285Qy37U8/Vj+zsA6UzkxZSd3EA6AznBOcgOVSAemYpobJKC0vBkxLzTUehZgIqci3DOtNtxw6Ifo7V+MxprN6KhaiPW1G7H+jrWCWUyEtt97tRiMbehsW4LmlnXc8EGnDJpBfI8s5Dvr8bS8hasXrYBzSynJGWVNqG1erNsS8HmcMCUauoIkPYC6XiBUoIp1VJfgEXyS5BpDCEUJSwReOLi2rS5+MNGdYU/amH1Q2eNwGgJw+mlQpcNpzcOuzuM9Z/9guSFqmSTvkDa3d0hsEpX1ltvHEFRQRlM5hAMluAgFoDB0tcyLQFkWAPIMHjhChYjy5YNb1gH0bFwMqEpoADUHSI06oDYOzp8hNiB5vKVwO0dA7d3NNy+Yrh9o+D26UBaBJenGC5PiUCp0zsmDUZ7t913fzqUUiHNHwRIdRilSsrST0r9PDaQFihlVKA0Bw5PLhzu/CGsAIRQh7tQjCppL5ASSpVZPP1hVAGpglEqqBqQciR4OrIHmNVDwM2HbIvb62ME1WMBaZ7Ab18YJcTmgFn2NksQy+rPRqJDlW/sD6L6YwLpwbfbUTKxQqmdvGZZykkDRwWSGowKkEZhdoVBaDU6gjKaBEgJlH2NkKmDqD7KdgfArlbuyRWFSQNSwqnBocCUcKosBMNxgZSA2hdKBwKpDqUEU90UoFL5HQijOpQqpbQ3m94Pk43mG8T6KqRUMY1UQgdRVLk+nxOlU9RSBbkKIvurmseC0kFU0z5Q2n9bfR+zbBPhkqqoqKkCxIOrpCkINTt7ldJjAKnJSkC1w2ChqmlGbkERXnnlVYkR7WTXDnqVWPsWbCzSiSuvuU6WyzKzTaj9nwxIzUoZFShVKqkAqYGdqVR3KgFT9pUXddQkMEwgVlBs0jLi013tx5o+sf70Osilj0PBZPoy+vRQy37U8/Xj+ciBdHAI1dVRjn1V0HS19KNVSAmkszUgLUc0OlmgNCaZ+dOQ669ArnMWxvkXYX7hBbhg9hdx45J70XrqJqyu24TVVduwpnafKKdrWMOTiT61G7Cm7hdord6GpgUbsXzSTRIKUOCrwdKpa7C6fhOaqrdiXRUVxk1ormH90eGXk6IyOgKkBE+qo+NAVdTrHy8mQCpK7DgEwqzlWQxPoBjBaAlCsVIEImPgC9JKVHcnbRuh6CQBWX+oFIFwCTyBInz289+SojyDAWlPTwKJrjalJiSAMcXl0pPeGxiD/qb2xf31mic4Gr5oCZyStDQGNvcouAMs8V5yB4sAACAASURBVEQYLZE4UYeP7nTlJhe3PV33YnTjj4azTzwpY0uVubwEUg1KBwBpuko6RrnuZT/c1/GMNUzzodzodMcXw+Ee3Wt8TCDV3OpOXSHl6Bmlue+pnBb0NXHZ00Wvu+QHGwthdyuzEUjddMUTMJkMpUyfZ017njDKHvJi7lyI65wlmAiI7pwBRle8WdzxVFvppieg5mmlo/q77HPT1FHCqALSXnd+DizuuJjNFYfNEsCypWeJQsoQj96/gTLpS6+9i+Jx0wRIrVRAWcKJ/emdUW2Mw+LUrVfhZF3QdIVT3O3ieqf7nTAakU5R7BZloctfM7ODbv6+Rgg20lWfWp/ue2WDue2HVkj7K6a6q16NRnsQRtvQxhtI8yBmsgYwmCmXeToI+mC0+GC2cXmqrco4z5j2WJ/PkcsKqHIZC+GW6xJQnTAQDlPmhsHigVHMK8vKdmU9P4yWAIwWjjRui8vQ9HU4upEl0EnwTDPOM/fuj9OZBFQNUgcF0HQYleUJnYMrpAKjZocopEarHUuXnyYlnSSDnr56ptp1dUtXpaf++w/So95Itzv71pupjP4zKaRpbntRRvlYqbR0s9NdL2qokQBq7HXfZ6VN90lEOhaM9o0L1SHtRMehYHKw7Qy17HudP9g+TmTeCJD2c+P3cdmHKpAdni4u/CiLyccmIxItQzg0AbHgRBRGy1HI5CfnBIwL1KOu9HpcUvttrFr+MBqXbsfqml1oqd4LAqkqJv8I1tc8gLVV29BUtwnLJ65EgXsuCr11qJ+6FqvrN6NJXOc7pLZnU+0mKYw/opCeWNH8FJAKlKYBaYChARMQjEwEQdMfGi9qIaHI6iiA1z9WQaxvAry+iWJuz3iYLEVwe0vFpR2MjMfnv/RDcVX1B1K2wevsPIpEV7v60u4EJk+cC693dAqS9WNTI+G5rzGswO4uEiC0u4uhG2M7Xb5iift0080eKIQ7yKSmfM0K4PIXwkXFk8ul4kXHgMqomGcMXLrRRe/V1VHCqG6cp8eTMqaUxsc8pnTrt4ynAE5PIZyeIs0dXwynW5nDXaQUTFc+7HS7azGksqysw3XTTd8OIbYQtkGtAATQ/mZ15cPqUvOVKlsky3CeAlNCZC5s7lwpgeRwx6WHPPvIu3w5cHqyYXPFBpjDmweHt0BiWrk+Xe0WJ8GVLv88WF2cp0wBKF32OojqwKqA1+pim9CYGLPfrRYf6pecgQ62sdWjQIRMBwLpCy+/jeLSqdIG1C696SPSgYldmKyOmNQ0ZV1TqW1KldQZh8keg9EeldHkiMGkxYyq2FEFtYzzFAizBVIeA3oNWL90MOPxS6iAIwKjLQSDNQgDvQsE35RFYLLTBoKncuEHYbYPZmr5gXGhuvrZOxIQ+xhhlJBn9olx2mThvACMZs7va3zebA2mltGXS19PX5+jWbavtqUvY7YRat39TAElobIvZHphNHN93bTj6QOlOphyXRVv2X9kL3kVg+kEpwmRHwSQcj8ZzGY3O8QFT8i8/saVqfaN9PzQeGWyle2XvvJVTUE0wmCxiVKaafrg3fUSk/qhuux1V3zfkXGoys2vzTeYVQcoI+f3Qqhy36dB6L8gkOrgSaik6Y9PZPzIgTRH78YUqRA1dKBiepIopJFy5ISnSMZ9PEKFdBoi0XJEolMRi09FPF6GSLgUsXAJCrMnINs3HTnu+RgfOQv1k1twee2/Y+WiB9G4YLPU6KTqeXPlNnymcivWVu5G4wIdSOeh0LsA9VNuxuql29AonZd2orV2CxqkbeiIQjpYwtKx5qVDn1JJlWKq4G+CuKQDoUnweMchFJksbv1wdEovkPp1IJ0Et3cCYvHpsg6B1e0bjVs++51BgZQUytqR3ckOcW8dOZzApPGz4XaPkpafbPuZbm7vWPQ3Pk9o9IcmyPGIoukboxRdJiExTpPKnjsu9SUZcqBMxVvyOcKduOTpmhcXvVJGUzBK17wA6VBQqqul+nI6uObD5aUV9MadMo5VFFHlNtfd54RQBZxUTAsERO2uXNicdMMXqiSnFIzmw8nSR548uDwFcLkL4XIXweUeBW5nUCDV3Oy6u11GPS7URdc74ZH7HiXrp8OoVRTQOFzeOJyeKOyuMKyOICyEMXsANmdogKkuR1Fp8UlVk92V2PLT7soR4+uyOfn6CJ+MFx0IoxYNRFUJpigE+Fxh2CxeLKs/A50dqtC93M3IT/5AIH3+xbcwurQcDldUSkVZHWHYHBHYHFHNYrA54mIWZzZMzhyY7HEY7bE0II3B7GDnJhqL5NNCsDoCsDr8sNgJWF6YrB5R/6gA9jdRG610davkIuV6j/RzwUdgtql2pQNjSAmigUGM8wcD0l4I7Y0VpULqTTMeNxVHLwxmD4xmwp8vBZuEycFt+EBKRVOBaVCDUwKlW5RBqoPK7AJ0CiJdonQqMNXgNAWjaZA8BJAyO52u8D7GWpwEJZMVVCZNVgdMNgeyzKoDk96JSR8HVUyHcNkbLS7JaFdgapHtf/ErX5OC93pGvUApgPbOBM771AWijPIYCK88Jh7zBx0/+tEA6UCgZMyqgKcOmIwNNfaactOr9ZTr3iBJV3qSkqio/yIKKcFTh1GDgWqvSlQ6kfEjB1K65Hst3VWvT3/0QJpSRfWEJhmnICcyAdmRMsQjUzQgrUA4qiwSm6YU08gERCPjEQlNRV6MhfXnIs9ThfKcT+DUsmasWHwnWpc+LIC5pnI31s/bj3U1+9G4aAOWjP+0uOxH+RdhSdk6rF7CbHx2gtqhgHTBFjRIzdPhxI9ymRGXPUE1HUj7TvM5xpNOhD84CV4/xzIZOU9c6v4SeP2lKXe/2zcWgfBEuH3Knc8koNs+/92hXfapYuYqQWVcaQU8HiYPlSjzseOSMqenGN5AqWybFQC4DwKk11cqJt2ZvGwZOkoAw+6KIyd/HGbOWYjlZ5yLj597Ca685kZcee1NuOzKFTjnk5dhweKzMHVaDUKREpgsMdgd+fD5S+APlMLhKoI3UCJQTWAllBIgCY66QqpgthAefzHM1hy4vUWwObJhd2XD7ozB5ozC7ozDQRBz5mrgWCRJRXZnniwvUEmw9OQjGh8Liy2KYKQYC5ecDbePLngqu8WwuvLg8uXDTBWN5YjsYdjsUdhscTGrJRsOVwEyTBE4/QwLKITZmQM7Yzmd2aBqSaWYY4bZD1cgH7Pm1cNki8HJJCm68l2FcPtHw2zPgZ0A6cmW7GyzIwCWs/EH4igpLUPFrErULVyGU087B+eedwkuu/w6XHPtTbjiqhtw4cVXYvnpn0DNglNROn46HO4oskw+WO0RWB0RuLy5cHvzNBDMhtWZA4M9W1z7TPSiSml1K1WU4JdpdMPuCkmms90ZhCHLhiWLl0vnJcJoZyfLPRFG6R7tC6UvvvQmSkqnwGByw2T2wkI3MhVBow92RwRZBi8MRh/MFoJdDEZntoQa8BiyrHS9x2D35Mg55/XE99PhisHhjsBq98JgcsgYieZhRsU8nHbGx3Hu+Zfg8is/jauuvgGXXHo1zj3/UixedhYmTpkFbyAbWQQyixc2JjiZ/bJNqyMKh5tdqKISO021k+1LVbY7E4z8sDjojmf91CAk89tMdY6uZ5cyo0vOFc+X2RaSc85Rtmnyw87qAnYPbA4fHC7CJiHUjaLiCZg7f6GcH54bmz0Eg9ELO0MPLD5kZDpTlmVwIcvgRmaWM+18+mAwemAy8zzS/LAyNMDCcxySZdU6LvgDeZhSPht1Cxfj9LPOxgUXXYJLLrsC9aecjuzcQskQZx94k8Ulx5mZZUeWwQOLNYisLLfsx2YPwmYPwMr4VLMbGVl2ZGSy7qYdLo8fY0rHoaZuIc742Dn41IUX47IrrsLy08+U+VkmM5h0ZLQQXO3IyLKlziWTtfTzOgBKhwBShh70ZsPbYbY7cec996qrUXPX0xPEpKY33nobCxcvRabRLMBMSFZQevICaZbRgiyDRdzuHJmwZCRAMx40MwtGs8ri50jYVElUBjjdHowpGYsp5dNRNqUck6dOw8SyKYhE46l1uL648I2MO+X2DNJhymAwISMjS4wJTpzun+iUlWkELSNDQR2Bjm7zwcCO0Mb5HE/EtU4w7L9NfRt8Tt8n56VDZPo++JzJZEopoEajETR9u+nrBgIBjB49GhMmTEBJSQmKioqQnZ0Nl8uVOm59ea7PaW5r6dKl0ree15lu/F5kL/uFCxem9q0fl/669McnNA5URHUQ1ceTCEijY5EdmYB4ZDJikemIRmYhEpmDMC06W+A0FClHKDoV4Wg5YrFpiEWmIhYoQ55/BkqCtZhfeBEunvtVrFr4C7QufBRrqn+FhqrduHHR/VhevgKF/rnIc1dj2dSbsXrxNrRU78Iatiet3YqGBVtHgPQ4pZ0GU0r7QqiujnLsBVKffyJ6jXGiBFICIm0MvBqYEiR9wVJ4A6PhDY6C25+P2+4YOoZUddZRRfbpfh1XMgNeb6FslzGrHv+olAUjYzU3twJA2bd/NFyuUXC7i6QCQTx7PGbPWYw16z6PDZt24bkXXsfho93oSKiAgQTLSvWoaeJLeyfw1jsJ/PFPL+A/73wQ559/HUpKZ8Ltzpe2qXT3Wx054q4niFrsVFQJpApK6XZ3+wrhdOdj4sRKrF33FTQ23YbGplvR2HwLWtbchsbmW7Fy1c1oav48Zs2uh8tdAD8z+115cDhzpJi/050Njz8XE8pmoXnN7fjLM6/iv558GmNKpwkgEkizLGFMmDwPKxs/g+Y1n5XtNzd/Fs3Nt6G56XY0NtyOhqY7MGv+qTDaYlL6yRsimObC7s2Blf3ZXRGM4z7Wfw5P/fFZ/Pp3T8Ply4PZFoM/VCJJT2Ybj6UIOQUTMWNOHS687Grc/sWvYPee/XjyqT/i+RdexTuH2qT9JkvZsEyXdJHRRma889webuvC628extN/fQE/+dkjWLlqHWbMrIHHlwOT2a/AzklXfDacgVEwOrJhcsQlTpUlmLLMXnzivMtw0+q1aGy+GTetbkVj83o0Na7Fd7/zAxw+fFTqObL1Yp8G9Uoylf9ffOkgbr/9y2htvQVNTTejoWEdVq1ai4bV69HaehtWr16PpqZbcOOKVpROmAWTKxtGh+a6d6g4U6MlKKEJBpMPDtYotQaQV1CCJUuX4ytf/SYe/9Vv8dJLB3H4cLsUJmdbUjkfPA+aJbqB1986jGeffwU7du3DytVrMHN2DaKxUTBZCOsENzfsBF5Ptij6GUYPsgh17qiAqMURgNnhg8XpR92S5WhoXY+bGlqwsnGNsoa1WCm2DjetWov8ogkpxdPlyUGW0Q2H0wOzxQG3J4jpM+biq1/7Lp5/4SA2bd4Fi9UHg8EFO8tImbyomFmNhob1aGhcL2Nj081y7lauXIObVrZi5qxqZBkcMFs8cFE1JyxbfTCZ3bBYvAiF8zB23FScddb5+PJXvoPdux/HM8++gjfefFdraND7rnV29eC1g2/irrvvRW3dEmm9aWHWfJYVdsbGGt2w2gKwE8pNLtmH1xeVm6NTlp+FW269A5u37MSzz70g4MdWmvyc8zqkdXZ1451338XDGzagbuEiuL0+GMx2aZCQQQC2+5BhsEnC0wAYPUYMqYE3BVqZJpPNCZvLi58/8NAAIGX3pddefwPMaBcQNSvVNosxpCexQkoXPKGUJaY4prLpDSaYrTZkZGXJuRxdUopPnncevveDf8Nj+/fjpVdexcE33sTb7xzC0fYOvP3Ou3jltYN48eVX8NR//w/uuudHuOCiizFtRgW8/oCW8KTiS41GM2hZBFQqrAKefaE0i7GoWUYYDEZEIhFUVFRg1qxZmD17NsrLyzFjxgzMnTsXPp8PZrN5AJQNB8IIfDS3242amhrZPrc7c+ZM2R/3VVpaOgCC07etAzJHmg6kDocDeXl5qK+vxw9+8AP8/ve/xzPPPIPXX38db7/9Nt544w0cPHgQL774Iv785z/jd7/7HbZt24bvfe97WLlyJZYtWyavk9s499xzJSyEADoCpCmVlH3uxyE7mgakYfaAn4NIZB4i4fkIR+YiFJmNUGQWwtHpCEXKEI5OQHZ8POKRsYj7JqDQOwdjvadiwagmXD7vJ1i5cBcal+7EjfU/xeKpVyLXNwN53irUT12vAelurJ2/S8omNdZtQ+NIUtMJ1yg9PpBSJU23iQKr3sAoDUhHpxKQPP7RknREGPUGi+D25+G2O74pze76x5AqbtDbPWoKqQBpAbyBIkmI8vgJn8pknr8Q/hDjQwvgD4+G118Ej7sAkfAYXHzxDdi6bR9efe0QOhOM2YICUdY11SCB2a5sscc6pzosSN3Tbt5RAkeO9uCPf3oOn/vcNzBpyhw4vISzfAE0ZqgHQqUakNJ9zySjIsm8tztzcPbHLpNtEEi4TQE1iR1jdi0E4O6447uwWmPweAvh4+vy5YkrfHH9Gfjhf/4Yf332RbQngM5u4NnnX8PEyTNhYywpYdiZjTPOvgivv3UU7QmtlaDelICvpwvyur/8tf+EzZkNT6BA4j09gVx4Ajk49cxz8R/3/AxPP/sSDnd0S0+j519+W7nCGRvKTHh7Nj5+7jV4aONePPHk03jljXfQnuxWOnaXymqXWrFsx8lj6FbzOMrr5nnmPIJAj8oubmtPCKjxPXj1tXfwyIYdOPe8SxEM5cFmC6j4Uy8z+fPg9Bciy6rUwUyjCw9v2AFp/am/f11At+ybnW5UofEkX3gKPYgf2h/r03ayN7gSTuUYuShBRZvHbfH1vP1WGxaf8nHJ/jc4VMIRs+fpnqeLnyqv1e7HpLIK3Hb7V/DUU38UICZ8s/B5ItGdKj0lQM73v1urP5nsQWeCfctVa0d20+H1+dbbR7CTcLqqFdnZxbDa/HAww59xmqKChyXMhGoqq1UQmmzugJQ4+tLXv616U7GcEK+xfnakPYkzzjpPQisYu8lQBaqJkVgcl1x6OTZs3ILXXn9LPh8dncC+/U/A6QpqwEe104OW1s/IuU90MSlHqw+svw/dwLe/829wuQNwOH2w2b0CkfkFo3Hmxz6JL3/lm9i1ez9eePFg6rPIbfCa6EywtQZLIPWgs4s92PW2mGofr772Jm67/QuI5+TD5fbDZHYJ7HIMBLJBAP3Sl7+J7TsexTN/ewFH2xMCn7y+utgBiddrshvdPcmUqf2o/u9vvPUWvvv97yGWWwDCKCFf1FEj3fh66ai0DPvjAKm4x7WyT05vAA9v3DIokBLIZs2ZC5ZEYqhCBtXHkx5IFYSy9qnJTLXaLDc0BpMZdpcT533qfPz05z/DM3/7W+q881wntPdAb2/KmwP13ZuU0IVEN98b4G/PvYDNW7fhuutvQCw7B1abA2ZWH8gywmgwizqqoLRvcpMOpFT7LrnkElEDmUTGqgaiSGvNB0477bSUeqkrmunAeKxpHSAnTpyIv/zlL3Lzy/AL7qe9vV32de+994JwOZhCqiuYdrtdnnc6nbBYLKKAfulLX8If/vAHaY7AJgnpx6wnw+lwyVEP/9DncR2CK7dB4zo0/Xl+A/6LK6TloozSXc+yT3TrxyIzEItUIBaZKWppNDIT4XAFwpEKhMPlCEeolDIbvwyx+BRkx8qRG5mFgmA14rZqjPGciVPK1+DKhXfixjPvxZKZlyPqLUNBsApLp7SiYfEWKXS/bv4urGMm/giQnjCMHttlr6ukult/rCoFJRn1Y5UKmqaO0nXPJCNfkM+NgTdYDLe/ALfd8e0hXfa9P6XpQEpXuV77kyqpMmb1c1qpkqMQCJfC6c7DtGnV2L79l9qPHVQLvS4W41eYwi++jgR7RavkAiILn9NNf8wvTC7Hx4TJ519+HQvrz4DbnyMucl9oNGxOJhPpNUhHS0KSuPPdefj4xy9VENatFBlu6Wh7m2yP+zra1oO77rofGRku+INFol5NKKvAT37+EBKaatvR3Y22REK6sT/7wkuoql0kMaQOL6sHFOHUs87HW++2yfPyg8uECZaUISgk1DncuOkxhMJF8PlzYbH5MX7CdDyycQfePdKJI+0JHO1gZyOgvSuJw23d0j7T6YkJHFvtUdzxpe9Lj/i3DrXjaKITXejCu+2EfNWLm4W+j/fX1Z2QUl+qq5cqecNz2t7ZjbZ2xg0D9z+wEW5PSBKOXKFiZFjDsHlyYPcyvCAOJr9s3b5XYCiRUN1u9BaM3D8bKhBGu7rpsidh0vjKtD+BdXWsPGaepwTpVn/jNZgnnL7z/+FwXk291Au1eLJhoNuaCUD2gIQLmK1eXHvtTXj94NuyPmGcnXb4xx8L/nV38xgHPzfqPHSjs6sDnd2qZznX4s0Rx//+w9OYPacGVpsX3kCeAGmmySdAyrAFlk7KMNjhDlC19eJb3/+h3FBwS3w3lfXCKT0BK1Y2wWL3wuZgkpIXCxadggOPH5DP4rtHmEzIHurqJubFl95ALF4EJ+OBbQEYDE6sbmwRaCBA8gaur+KYxK9+/Vs4XQxbsKCoeAzWrb8Fzzz7vAAnt83XxXWkxzpvmNJuG3hFpL0N8lxbR6cs29aREMhsalkripzN4UEkmoMrr7oOT//1GbVse0KShNh0g3DDbevb0/fT+5g3oWyeAHR0JVLT/37nPX1UUdZPHVQdHSaQEi7tbu9xgHSeJDXpJaIktvUfIMvebHXAwCQpcdsbkVdQKGozz2l7Z4fcWLBjXu8553vfg/ZEJ460tUm5K6rW/OrgMnyPEl3qfaN6zYSv/Qcex+w5c0X5dDndAqMWsxWZGQYYmLGfFlvaC6RZ+MQnPiGwyM8gP3+HDx+Wx4S2M844Q1ze78VNTaC02WyYNGkSnnvuORw6dEhAVD7s2ueeQErIHAxICbu6IqqrrVVVVfjjH/8omyAw8o8Q3dbWJtPpQMkZ/G7Rl+NjviZdCeU0IVSfzzF9/X9xIGWBfGbYqyx7JjYpMCWcTkWMyU2RckQiU8WiWuJTODINgVA5guHpyqUfmo54bBZyIjMR801FbnAaynMuwmnTP4OaGecjJzwZ2b5ZOGXaGjQu3iKF6dfP24X11dvRUrsdTdIffiSGdDDX/FDzehVSgqcOn7rrXodQ1iQlbNJU2SUVO8pMe2bmM6loAjw+rk93PqGU8Z6jjhlDOjiQjpK4VMKtR1qAqgL1Tg/rgaqYVV9QFe5ffupF+P1TfxF1qrOTsVpUYXj3TSBNynQn3XdUQPkjybtNgkwP4VT96xKo4U+7Wo+df2gd3UkcfOcwbljVilhuCZhkxNfPWFY94YmZ8YxjdbpysXz5OeD3A79c1b4VLnQlE7Lfjs4e7Nv3W7hcEZRNnoevf+OHeP7FgwJ/iWQSRzvbRUmmjpPo6cbb7x7C0lNOldan7OLETPVTzvgkDr59CIke/sASwPiFRElS+ScpFj7/3JvIzRmDCROm4wt3fB0vUqXqVPBBNa+b7QvlHAGH2xOYOacKNmdQEn+YgHLGWRcISEhHLsHRTiTQLgAo8Cu/KhrNcb/8IRIwTqrjEDhQ7Ty7km3oSnagu4eAmkSiS4EE3w+C6aOPHsD4STORZYvC7s+H0a6y2F2+bBgsbjz4yFa5kRDmI7TzRkN2o717PVQeO9MaL/CnTvuTQ2ObxgSSmhTKsZtvkhw3VeUkuhNJvHHwTUybVSWF6i2emNTwZCF5izOAknGTcefdP5HjZSJVd1cPOikryjlXr132KL/G6nGSqgcPmsvw6JLtYkl0yvEmwR9hXpf8wUmioyMpruwbblgFVgNgvVA2OcgwuGF3R5BpdiPL6oLN44fB5sCXvv4NUUh5lrktZQoC5cc+2YOvfePb0oqydkE97rrn52ijKp7kzU5SAIJvI5elWvvGm0dQUsIawB5Rac1mD5paWqXLGq8VvorOLiqRVHmTaOtox8E3XsdlV1yO/7jzTrz86iuyLNUxQh+325HoFKWMMMh1qJYRINX20o9abVNtW72G9s4u/OWvz+L0Mz6G2z//RfxFA1F9GX07XXz/e/iK1L/eaXV9cC6X4U2APnZ2dco5OPjWO/jUJVepLkxMTjI5pFj/oFA6RAypdFQiqJnsonbSZf/wxs0KutJiSOmyf/W11zF77nwFpFRIqQAy2eokBlICKGNGGTtKlZTTCxfX4w9//BOOtB2V95NqKK2to0Ped773Xdr7zfec1wShkzcn6gZFqaO8pnTVlB4EAurhI21YseImOJ1uEEaplNqs9gFxpOlAetFFF6UUREIaIU5XFE8//fRUrCWh8FiKaP/nqJAy/pMxnc8++6zAqA583A/tJz/5SQp4dSjVt8PHXJ+PGTZAN/tf//pXAUp9fX5v6De0g03rr4P71V8Xp3UVNf316qDK5/n3Lw6k0xELz0QszML4hFKC6GTEmeQUnSRdm1iTNBqZhEikDNHwVETD0xCNVCAam4tQdC6CkdkIRmcgEC5DND4RkdhoxLOLkO+tRK5tIfLC7Eg1GXHvTCwrX4OGxexBvwvr5+3GeiY21WxHMzse1WyX9qOsScqWninTYbV6pxTgV61LT6Qw/qewcik7NT2idWraJdtprt2OVKcmdl2q4ny2BtUz/rUWppynW80O7Th5rEyu2oXmqkfRWLsdDcsexMz88xFxl4vi6Q5NhJcdlILjEQyO+RA7NQ0FpKXwBXpBVK8/mqpbKmWfJsHrmwSPj+58Jj6NFyhllv1tn/++fFEN5rKnpkOw4keIStXYkgp4mJgknaJY/7Rvpr3XNw5O1ux0FmHBwvNw8GCXAAp5Q6loDOzu0ro/0X1DaBMmUCBDVOxRwKn/fKv9a2DHrH9R3PgDlsS77R04dLQTnzz/Mjip3jnzZf+qIP4YmSaQ2uxxnHbqx2UfSkHsRrKHChr3pe6E+fqe+b/ncfVVN+DpP78o7n1CQZe0VpWfTtG6Eqw6kEzgSNsRfOycT6iaqcExyDQHceY5F+D1tw+hvYtf/gQxxk92Knm0OWLl5AAAIABJREFUuwtdnUm0HU3i1lvuwAsvvJpyWQs70WUsd9T8wlbnnNB9zicvkExxXyBXoLRiVq1yk4tqS3d9B7rQloI4ebPkDeObpkkefKxZjyiFjGdi0wMenzq3cp4JNxrL8ve6s7Mbd//4AYSyx0kSkd2bhyxzQJoqMFllw+btsgvuRt8+306CHF8D38teXXCgQprsTgA93L+6JkRKlmuCyrJSl3lAL7/8MqZWzBMglc5Hdj/snjAc7iB27t4nIQdH21SR827KhXwNpGopN0Ww5XWoA6h2wclCPE6+/73WI9N00/Gnuzfkgefl0KEj+PQNTQKlTHpimSeJIbXSXR+E1eVHlsUuQMpXxRuXJAiARFMdzNSV/ciGTfjGN7+jYjYZJiCKFK8zLsf3nyCowlcOH+nE9BnzxGXPpCEmEzW1tGjLqRu1jgRvLBQAqrFLrlEBPH6mNFPbVjd87Z1tKWDsvy6Pkqb+9UIp32qlmiXx1juHNNBRzysoVsejr8n9qRsejgrR+VwXj0c7JwRxzuMxyA1okm5l4Mn/eRqhGMuQBQRI6cIfFEhZy3SQOqSMO2UMKcs+sa2n3e3Dhs1b5dzqoCEA0R9IWUTfaBHX/UcRQ3rDiptSH1VedTzH+kd3fiVjgQfr1KRKNrEFqM3hklCD0888Gy++9CqoduphEXwXeR0JiPIzyW1DtYzmzYcOoiIWaBDKefpHmsvry3R0JvDWW2/jyiuvVjBqsyOL7UaZAJVmnEdjUtOll14qcKhDG0fdzjrrLFEvqXTqoDjckUBKqNSBVN+mfGY16PvRj340JJDq+2Eca2FhIZ5++umUW12HSwIl/3R3u37NcNSf0/fLUd83p3Uo5TSX7b/chwKkOdGZOKbFKobXl75f/dDhtBEdPJteaxWaih1Vj2MRwmWaRachGi0HlVBdFe07TkEkQlOKad+R8ydrVoZYcDwKY5MRDY5FTmQGcr11WDJ5LVYt24SG6u1ons9C+jvRXL0JTTUb0VS3BatrN6BhwSNoWkR7CE0LHkZzLXvGszXoXqyffwDr5/0Sa6r2DNo6dG0l+9w/gourVetQZplPDl+Im5bcj9ULCKRbJbt/rXSVYkcp1ce+pfpRrK3crzpOcX9sR1rFfe7BuvmPia2Zvwet1bvRUrcTDbVbsKpyG1rm/xpNtY9h9dItuKb+blQUX4qwexYCgTL4QmMl4cQfKkYgVHxcIPUdM3NeVz6HGtMUUXZqCjCDnkZlsp+l3PVaPVJCpI9KKmG0RNz27GyksuzloyQfKPmd1r8UdWVDvqggCUVMGGI7T2eAPeeZTa+g1O0pQYCqqysX48ZPx5NP/kl6RKe+2dTnVb4OCb9sSUoYSXYRBniHSecz/3WLwsgfJv6Q88eMKhrBsYvqDu+wu6ikMf6QymIS7757VH6wA4EiOJyj4PYwwYo1UNnfvlAy6c868yL5kldfzgqC1DeI9mLl+NTXdV8Ps3wli9JJ9zPBjVDb0dmNVQ2tMNgjsPvYujOG0+iyf+coOuh6Vj8r2utVP+7qBA/yP38AtF3zF4PKIFfnDwFjGJk44nbH4XJlIzd3LP72t4OiNlMJI/B0o733FyT9l4Tb7P+Y7t2EAjSOSWb06PsfcGg9OPTOUZxz9sUwGPxwuQoE+qlGE0g3btuOQ0ffVeBCd1UH28zytaid8j0VhbSH7/FAINV+GgVIO7va5dwSVDq6CfQ96GSsIXrw52f+D6PHT4XVTWU2AF8gBz5fBN/+5vcUw/J1pr1UTie7OsDGDnKDI+CrFHheV4zQ5XkjzHOU10/3PBVejlTR5XpQ203/ny/tggsvgdPNMkce2F0xGCws4xSBxRaG2erHl7/ybVlfiXBDbCh9o/o0QxfEe8BrjGo13eSdonjW1i0GQxNYzstg8qCpuVX5EMQVq37k9c30H9N/LOXzI+EU6uLQnxPPBG8CRHFVF6P4EjQFtv82ex/zfdVNracuOv7fCx88nwmCZk+XnHkZ+V5o2+9/lhhvyq2defY5YJtNVkzo26eecaTs8GRDJuMnUz3suZxmUtjeIh2X6IYXl/2mTdpnmJ9Rvl4V0/rKa69hzrxKZLAmp5SiYnkqdmo6gSx7JkBp5aLSR8Jtf2M9UCYHZWZk4YYbbkxdb+qaSd1LobKyWpKHVIvP9H71quUnM+ctNhvGjh+Pp//6Vy1OV7VCpcKpQp2UCsrvpb89/wKe+K/f4ZGNm/Cfd92N/7jzLtz9o3vx8/sfwL4Dj+PZ557H4aPtKpRDYkvVu3n4KL0p/J5WN4hMUtLjL3U41FVIjgpIM3DhhRemYIzXjA5mvA6pkHJZwqE+6qB4vJHL0x0/fvx4UUh1QOQ+uG3uhy57HiPV18G2r8+/9dZbU9DJ9eim5/bks0Lv2NGjkry0a9cuPPDAA3jooYfw8MMPY8uWLXj88cfx1FNPyfMMHWDiE138XF+HUn3UXzuPUQdSHlf6saVPH+8cDHg+JzYTx7aTCEgFQgmiaSZASijtbzqQHn+MhgijkxEMTEY4NB3RwCxMyF2OU6fehOsXfx9rTnkIDXVbsKp2DxrrdqFlwQa01Kmi+Y1Vu9BSsx8t1bTH0CKtQrdhTQ1hkYDKVqVUV/v2sh8cSC8aAkipkOpAukeAtLV6L5pqd6FZtr0Na6u3YF31ZqyrIqBuxbqanVhbtxctNXvBY2xasBWNyzbg4qrvorr0ehQGFiHomYaAlFwikI4FSx0FghyPXfj+/QGppoZSEdXs+EBKYCWUjoXHTyAdpyU50cU+fCClYsEMd6ePQDpaoDQdSD2eEvj/v+JqNgUla5duzkRn2q126heHgeeEBeWuJRR1HG1XcMmkCsYSSoKJii1ra+/9cDNjW74ktNv5RAdhVblnvv7178LhjKl6n06qo6Vw+cfAFWD2fRRnnXnxMIBU+2FVv9WaS1f/saU6S9WTYKMSsW7/3JeRYQ6IO9vmjuO0MxWQ0r2l/vii1Y+0Upz4OHUitGWUoiiz1aLo7uxGe3uXJE997wd3SZketzcXPl8BbPYItm0/ILB6pL0dXeymlewQBZsqrxgTVLTkokSnVg9UQFH90HUziYeJPgQv7bW2tamYy9RByYR6fu+jv0EwUASzJQYnS2t586Ukz0ObNqND4lHp2u6SfQt4SPyVuslIJBh/xR9/nkf9vKjTQBU1IWpyUtzVHV2d6Ozu0kBUrUWU/f3//i+Kx06VMk8s+s8Eo9NPOwdvv3lIUbt2SvWzKyEfGgQnNRWer5OuZLooRTUSLO1AoqdTrj2e87Yj6jo8FpDyR+WJ3/4XCkex9FkcBjNrvWbDZIvCQii1BuT653nQ4aLvOR38EbcroQSiUlNR6ZJzQ4WT7nWqX5kGB2yOkGTkC5CmqU1cf6i/9KcIFOIl4A2PqOVqLX2ay/IzJZ81OZaht6utmfbeahewdo3LaxLIVh8lHUip03VIeIJSVgfbA0NXuLXbPvd5SdhhKaxe6KQiSiClYjoYkBJQlZs+k0qnxSbWF0h5ZQ0FpEpZZS3UjwRIr9eANO3GUBPojwGkql4oE5iMZjNu+exnJWyjvbNTFGyeU35PUS1lJv0vH/81rrrmWlTMnC0JSi4Pb27ssNgcYg6XG9F4DiZOmoyrr70Ou/bsTSmjVMRpEg+sudwPHDiAeDwucZg62OlwxVF3wZ/MQEqQJrASKPm7ooOjDpOMd33ppZewYsUKydiPRqOiuDIBitn9LAXFc5Cbm4vi4mKUlZWhsrIS55xzDlpbW3H33XfjiSeekG0zpp2fB/1zOgKk6SCqTw8AUR1Mjw+iSkGdgkh4GnzeqQiEKhCM0sU/HRH/eMRsYzB31Gk4d9ZarKh/ADed8jiur9ktKmlrLbs37UNr5a/QPPcJtM5/Aq2Vj6OZz9dtROPC+9G08H7NtT5cIB1MId0F5bInkNL9vhtrK/ehuXofGmr3orF2N5prt6C17hGsqX0QrTW/wPoFG7G2Zgsa525Bc+UerF2yC9cv/gFOndSIKdFzELXOQdA5FaHAZA0+VcekQGCSKKbsnnQsKP2nBVK28XQXYNzYCjz33GupO375bUr94sjXpNAIlRhJgiEodCTxzttH8dobh/Dq6+/g5dfewhtvvStJNkzaYJY0f0QZo8gPMmtbigpHMNQCx//3f/8P0WgxgsFS6UT1/9g7Dzipyuv97+703sv2ztJ36aKUbRQRK6JJrDFR/2l2pIPYe+xY0uwaGyi9CfZETbNHUWNHQRBYtu/zz3Pe+87MLruUiAn42+Hzcu/cndveuXfe7z3nPOc43aVwUuAUKhJg2HMg1cIafazKmtrapuJYuT8q0yk4+cM9DyPN7IczyJr12TjymBPFQkpeVi+9DWUhVY4zLtNNf85gX77luhyYCOfNwCOPLQXTAlntMThd2ZIf9OZb70FdA7C9gVa+NtQT5JqA+npaixuwZcsOfP31dmzatA0bN27FVxu3ynTT19uwbVsjxCgtllgFnDvqGrqGJ+NQq6oOVzlcvcy9mivxfEtXP43N27aBIhyJA25sk9AMgVPD2kZLH+GqMyBtbKTlu1VAkRYxPog0Mm7z36Kfb+oasKO5DQ1twHN/fhWx3DJYnHGY7WGxTC5duhr1dQyHMLrTmPAte5v7E+uXqFsJWeohgsKtrdvrsWXbNmyrZ0aElG3QitfUgkaxcCe/m9Q5fv/b63bgwmmzBBBpIaV19NsCqd4Hv3c1aKlrpqGRQNqMX/zqXPgCmWId9fgylYV0D4GU22Z8ciogK/BUD4zyEKOvO4lsYP+pFwdnDtadv1Q/qy9BfxHKRcksC+pcFJjX1zeisbVZwlkIpAxnUIEJnT2iEabU3bLgyafg8gRgo6iJSvuEJbQbSHVu0R49e0rMsLIq85FZfSMaJBc+tQhlPXtLLlKL1Q7CqMPlhk5+r7fDVFGcZ97SopJS3HzrbXJvy7dsxDTzWqAFkbB25pln7iQa0lC6vwOphuaRI0fK9c17To8lqUDKPKIUPxFcGVpgt9sl9lSfJ62UqfM8b35GLzvyyCNluxpGu4FUFPUpVlENo5zuCyCND0QwMhDB2HAEYgchEK1AONoDufFC5PlLUOwbjkNKz8bxVQ/hl+OfwcyaFzCzijD6HGaPfh5zK58XNz3r1hMep45ZiinjFkmbtVcW0lNw/qGPprjsV2OOsU2xkNYSSNdgTuU6TK9ehym1a3Fh7WojvnQxZoxZiFljF2J61WOYWbsQcw+lu34hfjz4JhxUcBRyHIOQ5a5AVrACsUhfhCO9DctoHwHRcHAgwoFBCIrVtGsr6fcVSBk36vcX4aKLrgU1JRwA9c2nBjP9M6kGrvodDWhsaMXzz72M886ZgUPHH4MBg0ahfMBI9O0/HFU1EzFl6lw8tWglGENHoFDWHQ6QtMa1ioVP/4hQhPPzX0yB3ZENr49J+ZXL3h0oFJDacyCl5URBqJ5qrbRYdpro/lKweO/9TyQtpL4sHHnMCfh6c5240zues7KQ8txTG/tEuZhooeKLgzgBgW+Zn3X5ypfg8uTC6ytEIFCKDFME02dcjc++2IY/v/oaHvjjY7h5/h24YOpcnH7muTj62JNQM/ZIjBg9HsNHjMHgoaNRPvAQDBo6GpU1EzHpuFMwb96VeHrNc6ira0RToxLuEMQ6eykgAS6adxXcXiahz4LDlwuLO4QzfnUuLrv6Olx08RW4eN41uOyS63HpJVfgvnsfwA7m0qJzlApqIy5UnbuxlzaKdbbgtvl34aJ5l0kqoYsvuxpz5l2OeZddjYsuuwYXX3E95l1+LX76s3PgC+eD5UFZGaqm9nCBbeFc1YWyUXWF0YLN+FWGd/BaYQosYN0zL+HKq27AOedNxwknn45jjz8JJ/34DJx17oW44/bf4q03/4mmJsNibHwPnfUHlzGW7u//eAvxrCKw6pVZXPa0kDIPakeXfVdb2Xk5rWLykGZcE4wDVMKSNjnODIsHdub9tPr3DkjZMcZ1JfelYS2nAIz71PvlvvkwoSGU09299HUt0xQLEPfH7bHxmuZzI8WBKqqYgS9Mn8Z3nQMplxOwnn3uBUSiWUhnHlIra9Yr62i3hVTlBbXY7LjmuuskZpSWdD7G8Jph//FBZsnS5SgoLIbV7gStqWJRtRiJ8k0WtYyhA8wdKu5/p4JSiw0+f1Dc+twOvT4UhPL3ltcFDQPLly8XICWwaQDT0/0dSDVIzp8/X85HA6N44AzovvrqqxMgyvPSqnzO8/x0qALn2fRyfo6CKbZDDz1U+ozb1fvgPdVtIU0FUT2/D4A0Gi1DPLsXgrH+CMeGw+8fjr49jkFeYATKItUoC49B3DYaBcGjUdtvHn5W+QSmHbYcMw5diqmVCzCr6inMqV4iVkkKjWbUrBbL5bQaFcu55y57DaRPGjGkqUC6XNJOUaA0p5JCqRWYUct41uWYXrMa0xlOULMWU2qWY9qhizH18Efw01HXoyrvJyiyjUDU2QuF8cHIjvaHz0uVeSmC0Z4qfjTcD6FQhcBoODD4/wCQFhsxpHSJJ2NIKXbKz6/A3/72rrh6BKwERPjTmAphrdi6bbsM/jfeyLyfIdhtUTgdrLCTJ3lMGY/rdGfDZo8iN68XHv7jk+J+2lHfKDcygZS/uM10R0vQuBrYnl77J9jsWVJ33uMvg9tfClegEDZn5l647AmktIYqUZLEsFIJTBWzYef7/MstuP3O+1BUWgETqwX9u8CA1R1TQLplh/xwq4E8ee5q4NZb0P3BvycFDHW0IjGFEoDPv9iMq6+5E336jpAiAG5PAUzmTESivRGOMF64QBK2U4GfYXXD5mYuTKZDCsvUzrryRvMEc+EN5cHpy4LNHZM0Q25PBNded7P0q8pwoI545//bRH2/YMESuLysjJQLlit1BrIkLQ+FI0xbZDIH4XBEYTY5MPGwIxNWxh31dZ0DKYDNm+tQXjEMGSbG6tE9ylrnPqRbfEizsMqPS6ogOXxxqTWfluGF1RXBgieXG6EJysKnkIY9zCuNQNqKzZs3yam8/c57GDN2IrzeGMwWP7gNJtFnmdB0CmGsXjhdQfgDUVx51fWSf5T9r76Zjr3BmGXmbaWorRGnnvYzWB1hyYdK5b2NFboESG9VDxbqGaPjRrp8L27aNlq6Ve5OPpT84/W38KOTToPHH4UvlAWzPSDxu3vjsidM8Hy4PTa6cr/ZWifX2vr3/4UlS1fg8iuuxpQLp+P2O+7C++s/kGMUr4RhId354VL1Eh3rqs9VKAu3zX3Qg8Dr6quNm/HCiy/j7nvuxy/OOhu/vvlmPPvii3IvNRjp3zrray6j+/mNN99GZlYerHaWNO0G0kTye1ZPyjCL+33T5s1GxgQtWlJpm6i2D0d5v9thZoom1qtnwnqLzUicryotmaSWvRECkAKn3H5uXoGI1zTkNjGPqZESacuWLejVq1ciBlTDqAYzQt/+7LKnup55QvW1rYGRU56b3++Xc9NwrWM2eX4aTvWy1CktqYRRfo7J9fUDnt4+b67/GpBmxxk3mtqGfCfCpr0VNWXGB6Nj2xcW0ki4GFmZJYjEeoK5TDMDtagdMg1nHP4bVPeYgj7+41Hoqka2ZzAKApWoiJ+EowbNwS/H34ULD30I08c8gTljqMhfjlmjV4pVc3bVOsyqWgtaTXcC0kq63Q1RU6USNYXC/VEePRnni8qeQLpCFP5iIa1eKeA5YyxLmXL5asyrWY451U9iVtVSzKpZIzA6dewzOH/CCpxW+TvU9DoPJYEaZHvKkRvuj1i4P0JBFSMaifdFINoLvgiBlO56A0jFQjpQ3v83XPZM2yRtt6KmlBhSippCKTGkLB16NUuH8mUMC8YYz3dqsKFOltYNI4aUCedDZXAHU4G0F0KRXhg2bBy2bGmUwaiFSvGEqzYJYiJ0ALBy1TMoKGJmgiKEIywxykT6PeChm93PPJ09EAiWwOPNRf/yg/Ha6+/JQMcfRApVeNAcwGkFo/iDrt9/fbQBBYUDpJyp3cUynCUQC6k7Z6+AVCnkqeRnTGMjmtsY1wq89e4HuOb6WzFkeLXUKPcGcmFlLflAPizOqAGkdbsAUva0ciUr8UjSvUYBEyvivPH2esyYfQn6lh8EO+u2W2NgGVOPrwhOdwFcnkK4PPlSypQWS6YhcvuNcp6+HNgTLVtEQPLey9KfWbB5s+Hw58qxh8L5KCjshWee/5ORx1J/M3IxpPzH0IpGPPf8nxCJsyBCobjOHf4sOANxeEKqcpHdlQ2PNw8uZwBHHDEJDfW0UPIqUleSeihJucbamHy+Hv36D4MvkCWlMz08DzcTzmfC7iZQZ0oVq3RbSERj7mAuotklePuf/5IHGrlwZZNqHwQjncKIUPrVxq9x3PEnwmz2SClSxt9KnKeTSfVZlz4mFle3LyY5Qd3eMM67YIZsllBlHK3RF2ofEgZASAMw/47fy/EyJ6kAqZNAGsD1v9ZA2n4LKZ2acBOmLpOwgmZg67YGPP/Cyzjj//0KeQU9JMepyeaDxRGAych5On3GzITFJXWg4/a010AvJxzyq6Bl/4sNX2PpslWYe9FlqKwai0g0GxmsZkQ1utkBq9WJiopBePrpdfL9yYNlO5e96geF/lTOa8W2+oY/+vhTLHxyMWbPuRhjx09ETm4R7A4+BNDCyYTzVhQUl+KhRx9P5HntrJe4jKmK1r//IbJzCqUE7F677JkSyVDLc99Ojw9PLl5siJq6iCGVkqE6hvRbiJpYOcloHQVNfJ8qajr77HPlAYYXnDyU8K4xHma6FjUpIGV1qQaGMdFyKd8FY6QhcaM33nyLgCfd87SMioue6neW/Ew3iXrfbGH5UYuUGqW7XrnxM+Q9LaaE1RtuulniR6WAhKEY53VG0Dr77LMTlkECGMHsQABSHmM4HMaHH34o96JO2s/z4vzzzz8v1l9aQTVsaiuoPk+9vOM5p76ny16HvOj7kfv4HwHp0O8ERqnC32sgzRyCzA6NyvudBU2MI93zGNKsaB/kRMuQGS1DLFCOPP8YTKi4GOdMWIrzxi/HT0f8AbWlZ6I0MAiZniIBvHz/MAzMmYxTRl+LKRMexYU1T2F27RrMq12H2aNWYs7I5biEZUfFmtkhhjQBpE/ix5U3Iss1GqFIOfpHTsQFhz2CqWOflBRTYgkdvQazx6wRtfy02qWYVrkYM0cvw5xRS3HFmFW4lJWmRi/GtHHLcNb4BRjb6xL0jp2EiPsQhIL9EI6XwB8tlFRJAdaLN5qPqZ4ifRGQeFECaX+Eg2ysJ//fiSHdSVXfpco+FUgJsUZifEluX4QrvjWQ9oJP6tWX4rjjT0d9g7KQKIugjh1UQMplChqAiUdMhi/AVEa5YnGmOMsb6CEw6ZMp85uWwh8ogcOZidvm/wH0KmuVPAdKRQz8+WUC9ibJ5Thi5GEIhMrgcBfBHSiFgzGP7ty9BFKVnoYxbkyK//FnX+Liy67BkIOq4A7kSIUlKenpisPOuu8s7+mK4qhJJ2LTLlz2zJ/Kg5a+MWpoU9Fa39CCLzd+g8uuvB49eg2A3R2BJ5ALpyfPaPlwsiJUu8a/8TM5cBA4fTl73Fz+PLHqWR1BzJhzKRrpWjWOaycMExV0E/7299eRV9gbLl8ubJ5sWFnq1BtTzcOa93nSz3abH4dPnCSCNoYeqFfiy5K3/O7Yvt7SiL79D4bHly3WXrukUoqqY2NFJmmZsLgyYSWkeuMYOGw06uopQDAM7ynAq64vQpJKZ3PPfQ/CH8iUuu9KAU8gjcOa2iS3ahgOTwQOdwixrEI8+/zLCUuiXGfqqI0dJnvq2RdeQTheKICvgDQMm8MvlZC4ngJyowtSJqwkw8FcD1BU5TJuleD45lvrcdpPfoZ4ZiEsdr/Ey5qsPilPmmGjhViV0dwVkHJA5UuDKUH340+/xJVX34B+/QcjGM6S2vJWmwe6sT49m83mQUaGFRdeOD0RPsDjVC9Oeb/JXSwPhrScMVn+hq82YfbcS1DSo7dYNJ1uP6x2hhgwXjEg++O8WerL23D8j07CVooZ9W1s7EFPuCd+j1SF5+axUAWhKumu3xOXPVM2MZdohpWKeTscHh8WdgGkX3z5JQ4ZOQppdGNbnUgz2UQYlW7ZCyhNVdl3oqxPBdN2QHrWuQkA1V29p0B66mk/2SnFE/uOQqaTT/2xWEcJlrSMdtZ0nXoNqclphrjwuc7Qg4arOHF9GegvCcDDDz+csBZqS+L+CKSdwSPr0X/99dcJYNSnRVikkp5WTn1Oqevvbp7nr/vgiCOOkHud29b3O+d5b44bNy7h6tfb7Ax29d92O+1MYd/eOrr/AGk7df0+dNlnhYYhJ3gQsiL9kBnoLeVFjyifjinjlmBa9TrMHPcMzh/3IH4w7EIcVDwRucGBKAgPQ75vBHLslags/X/4afXNOG/cA5g2ZgHm1izHpTXrMOcQ7V7fUyA9oVMgnVmzClOqFmNa7RJR98+uWoZ51Wswc9QKTK96CtMnPIYThl6JwdknINN1CIKeCvhCfeCP94E7swwOViAKD2zX/OEB8IcrEJD8o/0QYg7SUG+EQ/89lf3+BqQ+fzHOO3+uVO5h7Bdd3SoGUw1gMohJ0nvg8y+/hs0ZRCBSCJevQCyZLl8p3LS++pnYvtRIbl8Kr5+Vl/IxfsKxMnixYgyx1hgXjcGxUfbHqjPH//Cn8AWKBW5pIfWGSmF3Zu8FkDLtUDPqGhrx5aZv8PBjT2HI8Co4vbTaKZe1O8g0T9lwM92TP3+PgZRWUaYWYryoJHBvbMWmr7fj8QXLMHR4NUz2IGgFdAvg0mqogXTXU4cnV0p72lheNLV582Dz8m/tm8OXJ3GgdO9POHIyvtlRnwKk/L6MFwcgiQtswhtvvoOi0v5wE2Y9ObB6s2D1xo2WDZsnDw53HuzWAA6fOBmiFdoLIGXFI1pFrc4orK6YQChBlM3sJpDGxV1/xDEnSPlWMdpW05WFAAAgAElEQVTRjClAmvrAo6x227Y3oKZ2giST9/qyYbVHJNtCAkZZ/lNaFBZXBBZ3GCaHX/JcnnzamRJ2QquiAgR2hL6OCaRyBWL9h5+guKxc4kgtdN07DSC94WZZrysgZe9yQOIARXjk/L8++hhXXf1rlJT2lVKcrOJltYdkmxlWfwJILQRSswO7AlJuV8fCffHFF7j4kitR1nuApEOi699s88DlCcPuDMDq8MNi98FsuMPNFhfMJhsmTDhCzoHipORL9wP7gBa5Zny5aQuuuvbXKO3ZB1anB05PQJLJEzxluzaPgKTF7pX9mm1epJudGHLQSHz86Qbp1Z05R1nr+fD58aefIb+wVFz2qfGj3UCqYkjnzrtY+pDxxhI6IVcnsOWbbRg5ulIsnLSC0vK5d0BqknW5nsPpxrvrPzDCe9R1y2uW7dVXX5XE8jqektCkYYzz+4vLPhXm9PH17t07EX6QvMaVhZRJ9VNjY1PX3908t6/30Q2kHXKQqjKh+0bUFI1WoGOLhQ9GPDQCkv5JgHQYjqw4D9PHL8CM0asxYySFTCsxbcKjOHvCb3HM4DnoF56MQk8tCoOjkR88BEXBKowr/wXOHHMzzqt9UOUkrVy9lxbSjkC6FrNGPy2pnZj7dBpjRqsXYVblYsyoXYSpExbitINvw4jcM1DsrUGWdyCioT5SD90fLYMn0gueaH94YxWgRdQX6Q9fuFyBaGgAAqEBCIYqJPUTgZQpn6jw3pW7nn/bV6Km/Q1Iacm8/IqbxcqjfhhVHKYa0dWQI1ajNmDdsy8hM5cq+GxEsvpIeiZfuDc8QeYNLYYnQBDtIVDppdvdl4/BQ6vE5bi9nrkjDX8qJyJg4TLlqvr5L6fA4c6BL9hD8pCG4r1gc2btGZAyL2pbM3Y0Ac+99FcccfSPEM8ug4OucV8e7G5aB/PgCTNsoUjlH90LIJWYPFb+2aEKBjz/3CuYdOxJ8AdzYbZH4AkVwu7JhStYCAsV9d7crhsBUDdvHuydNNaftxFWOzQzt+1TuVOrxx+BLbTSNqkcqwq8UuI2RAzTiH+++z569BwEd6BAtmfxZsHijavmyYKVMOrOhd0axOETj0NTgxJnJX/ok9jB64BNLKTlB8Ptz4YGUoFEAVJaSBWMaiA1OYL4yZlnoa6eOf4kXsMARQ2kHJRZ+acF6z/8DIEQsxJEJLbTYo/A6jSsowKiEVhcYTDRPqs/cZpm8wmUlg8ajk2bt8sA3BFIGYZCICUsfbphEyoGHwKXPxMWwqgzpCykCSBNgftkR8gcQZSNauU//OEPGDZsuCjJTRaP5DJ1eTJhZUyunTHCAYmlpYVUAal9l0DKHXDbBNPVq1cjHM2Gy8N+YPypSyyvYn21+SRml3G7jANmszsCsJgdmDjxKBGEaUudOnyej+5rxrk248WX/4JYNtOAWWFxeCRNksnKWGAPzFbGfarGfUizeqXQw4DBB+OTz76ScsDJK4N74Tv+gogfAZ98+jmKisukb7qBNDUPKWNBrbj5ltuMCluqv2hV5rf0zbbtKOlRpiDUcMXvHZBmyLqEWa738it/MdI+JRO908r/ySefSAokDWF6qi2L+zOQMoepXHHqJleXuHHvMGWTtpDynHYHoal/T+2DbiDtAkg7d83rNE8dp5277DvCKN+zrGg4NgyR2ABEg/1Q4D8YR1aci5kTHsUl49ZiXuULmDHiGUyrYkqnVZgxbinOP/Rh1PY8DzmeSmRGhiIrOgRBVwVKQuMxedg8TJn4EKaPf0pVTuqYh7RLl31nQLoWs2qfljyiU2sWYfbYJbhozDL8sur3qOlzLvJd4xF3HYy8+HCEWeM9XIxgrAdCMSroWdWIltBy+KI94Iv2hD/SG4FwPwRD5QKjnDIXaYgg+1/OQ7q/Aanv3wnzr73+Tkk/pIYTpvth8ntjjDEghFanFaufgdUZhC9SBJODcYLF8EZ6wRXIl8a4T2UpLYHHXwKLPRMDBlXi628aVDyrxGGq7RJIlQBJAem5F8wSVT2rUDHtUzDWq0sLKQfsdsfX2iT5F+dech1CsWL4w0WwOLJgdeVJ3LA/0hOuYAmsnjyJHXUFC/bKQtrY0ISm+jY07mjFJfOuRsCfBbcnE7HMMrh8+fCFS+HwFcHuLYQrWCziIQqIOm8UFyVB1OHN2wleCbcsadqxEaqtTG5vDaH60KPx9fYdRj5RwgaHs/b90tzUiPXvf4yyXkPg8ufD6s2F2ZsJM4VCbJ4sWAjrAqQhHD7x+CSQ6u8/8XOvYFQDaZ/y4RIDS7ESXfaMxbUQSDnvjot1VAOp1RXG2RfMwI5GI2WYDCQ8ZpUVQWVDoIUUeO3N95Fmckt1K6sjAjvd/0xcn7CKhmB2BWF2hZDuCMMRyEY6BUNWDwpK+mD9h5/uEkjZS198tRnDDqmCJ5idAqQ+XE8gZU+2i71MdgBd9vwb62+fcsopkk4mGIpKyACh1kTxVZoXaaagQHSGNQizI4R0mxdmt1/iIruykMo1beyK86tWrUIwlCkganeF4fbF4XRH4PLGYLEHBELNNrrSVbPafMhIt+EHx5+o4nSN+1aDYrKvCaRNePaFPyOSybK9mbC7/EhLt4vVlSDKwgE8H4aGpJs9cLjCIlxjLOjAwSPw2RebpMoW+0q9pNfaAenH3UDaRWJ8pmeyY/7tdwqQ8npko6WUvchUbNk5eSJkSmMVJdPeuezp5hf3PWNOM8xY9+xzaDJEaPq6JpB+9NFHCAaDCWDTMKYhbn8GUlpIeQ76fPRVyGX33HOP3JcarFOBc3fzug+4bjeQfpdAGmHy+/YtmNkH/uzeCGT1Qyg4CHn+ahxRMRWzDnsUs6uWYPaIpzF31J8xq/IvmD3qz7h01DOYWbsc50x4BCeMuwnlfU9DJFaNQOhgxCMjpBTp4JyjcdLwi4zynv+py54W0rWYWaMS288YuwQXVj6OEwtuQn/fcYhKIn8CdTm8dNFH+yMY7Y9QpD8i4XLEQv0RCzAutBd88Vz4YwUIRFmJqacCUAFR5h4lkPY1oJQip65TPn2fLaQeXwF+fcNdSl3bQusoEwF3DqRr1r0AdyATgVgxnIFCeMJlcAV7wBsuMFoxvKEe8ElFqTK4vAUYMqwWX2+pl5hO1tpJgKT8DNONr2p5nz9lNryBAngCJaKy53bsrs5FTTsBaUsT6hvqMXBIjRGfWaBc/75S2FxFcHhL4CToBopEyMT40b1x2fOYm+uBt15fj6A/C6FgHtzuLDhctMAWwOKkNbMYJme+QLoCUYqTDNFSYsplBFUFpIRRxpJ2bA7CqJvxne0brZmOf6foSrNHUDPhaGzcVifpeJR8LQVIjVlWYPrgg89Q1muYWGXbA2lUwaknBzZ3DuzWCA4/bM+AdNOWBvQpPwhuf6a4420euuppuYzB7NZNQanJGYHDF8N5U2eLwExYrwsgbW4D3nrnI6RluOF0G+mYGCtqwKhZLKNBgTuzOyAlSTOcEbGSmpxBRHOK8OEnG1KAlEOVGvJpIZWqYSxpumETRlSOE+ulspAGxZK3OyDVg+DSpUvFCsMB3WyxGy7ugGQBYMyrxR6DyRaVcq0mAind3nsIpBxk2dauXYtoLBcMASCAssQmQVHiUg2rKGE01ULKTAlHHTk5aSEVYtSwSPhX3g8C6XMvvYJoZp6U52QyelpHqYZXiniv7I/74r4Jpdw3sykMHjoKn3y2UbwesnmhAb0P9UhLax9d9gVFPbpd9hmMA21vIaV6/tb5SpSqc5BKMEVrG7Zuq0Nmdq7EkCqx0t4BKSGUwMt9cP6ZZ59Xj6pGai+663l9vf3222Ih1ZCmYexAAFJmCKAnIfXFMYGNXov/pKQp+0H3wf8ASFm/vX3Lju+buNFU0VJnpUSzqJo3cox2NVXlQnWJ0I5W0F293wsLKdM9ZfZHOE54G4BcfxUOr5iGaYc+LumX5oxah7mVz4lqfmbVSsw26tlPr1mBqeOW4Zyxj+Okg2/Dwbm/QL59DPI9B6MwOBg53r44uHQSflx7Hc6fuAhTqv6M2SNfw8UjXsWllWtw0aEP4rRRc1DoPwjBQC+MyPwJptY8jJm1SzCD1tiq53D+6LU4p3YFzj7sMUw+5Er0zzkW2Z5hiAcGIBzph5Bu0X7KIiqCpL4ICmASMvtKfGggUoZApKeRd1RDJ8VLuu0aQgVEQ52VA+1YCrTr90lFPUVKbB1KhXZ8nygdurOoie5sX7AE3kAhLrtqvvzQqAG3vXGMgMJGG5RS2Q+DO2Co7KV0aBm8QVasoYs9H7fNv1sGccUx/J/gqE0sxrDTBnz44UdY8ORiPPDQY3j0icV48JEncf9DC/DQI7otxEOPsD2Jh/64EPfe/yiWr1yLbUzgbjgNlQmqvfWVXtwpU+dJnKMnVAynvxDucCnsrixMnnRKopKQ+gFiXjhujdvgMaqqLXV1DehbMRpuXwHcvkJpFOy4fEVw+RjzquNeGftaALufcFoIqzuOoyadgE2bt4EZBjTAKHLW/wMtzcA7b38AfzAbvkC+AJ7TS1d9AewULXkL4HDnwkn1vjfTaFkSNqABVNz5vjyYnTGYXTG4grRO8jO5cPppOc2C3cP32XBRONau5cDty5Fk+15/NmrHHiHJ/EUQr3ojCfv8ygjRTS344P2P0bP3ILgYj+nOhIVWUd3cXEbozZJKReMnTBLQoKVSXQvcjLExzklf02Vfh37lQ+H2M3Y0LH3IUqy0iJrFOkorqY4ppeU0hCkzLpL8rApIk9+d2oN2WwKvv/5PqfkuFjrm7qTl1WhmF7cVhpXWO2dQ9sFlJmdIYjVj2YV4/1+pFlK5SNR3agxYTNy+YeMmHDK6FlZXSLYv8a+OIK674RZDvEewUt2pu1Zft8zP+cTCRbDY3bBS7EMBkz0Isy0oKamYlkreO0JQMaRBKUawO5e9PGRJt6iBlS57ipgsjiAyKI6yB2CiNdSYcj610ZWfluHA4UdOluwL6vtTMZ3sXXU26j1DUF546WVE4jlSK55xo4wPNVEYxZhUq1eOOZ2pvGh5TcCwB4OHHYJPv/hSrHup14a+YthvvH5oIc0vKIHF5pJSnomyoBaWDU1tTJRP0ROT5ycrNYmoycy0Rw64PH4sXLSoU5X9txE1pZntYEs3sVFBv/uWkVo6dE9U9ulmEZtRcKYac13acPvtdyauMalQJv3WJi77rJw8gUltHU0KlpJKey5L302z2RxYs2at8VOurisNbu+8885O9eIJYtqyuD9YSFOV8hqceXx9+/YFvRU8l1QrKefpsmcMKT+n4Vqvu7vpfgak+ybN0+6AlCmcOhUqpS7vUkW/Kxjl3/YcSCPRCkRibOUGkFbi8IrpmHroAsysXonZAqTrMLt6OWbULMaMmqWynPXiZ1eq9E7Ta5binJoHMXnQJaiIH4Mc91Bk+fsjLzYA+YFKjO0/FWeOfggXVq7BvJoXMHvkcswZ/yjOqLkWmY6DwGMY7DsRs8c/jnmHL8cFlU/hgtqluODQpTh11O8xrOCXyAuMQyQ4EMFoD8khGor0Rce2O+vmt/k70y3t3FQ9el0GdFdTBaS7gdBUKN0lkJYmgfRKAqn8/KsxM8Vbq+IyxR6pgLTXUKN0KGvZ95DYT6+GW38ebpt/j6iTk4OwkZtJBjIOZsbwpkUXxr40uHDasXENxuux6ojeAktAJt7ohUbuwylTL4bbn6sqNAUK4I6UCqxNPvZkBaT8fGLAVisrjTlVz63YXteEfhWVBpASSgtgd1NZr+YVqCbnHf5iAVKbAOmPsGnLVrBeelLQxd7Qw7hSXr/9zvvwBbPhIZB6CaIE0kI4REWfB5cnB4whdHrjIqZyMl2Th/Gk+bBRzc5j8uTAHcyDM5ANC+MDJecoAZaJ6zPhDuaA+UedTM/UrmWClX78XOYK4bCJk6S6k1HtM3mgctjqC2ppasUH73+EXr0HKPe6O27AaDYs7hxY3bSOEkgzYbUHMG7CMVL2VGO5gS8JSFdA2obNBpB6EkCaiQxWYzKAlG57q5uq+6hMzc4QLpwxDw06gb2+0MRSqg5dvtE24PXX3kZ6hkPEc7ReEkhTG3O2EoIJrLTKcj+0QhLU4gTSdi57/Q0ascsE7bZWfLlpIw4ZXQ2rm9tnuAHDAsIGkDLOVLlP9WGmXgi8hB9bsAhmBxX0QWPf3L9uBFPGjgaQwfhLme5eZd8RSFl/O0AgdYaQTje6BlF7exDVUEowFiA9arJ4I9ifCvOV1VLOQe4fXstQQBpjCVWnKOipbBcgJZTaPBJmwNhcNgFiiSn1YNCwg/HpFxvQJMnx1X2YvKmN75JA+skXBpDS+upIwqYAqYJQgmiydQaktgSQPvnUdwCkJjvSBEaZPotplPakpdSy313pUFpH08zISLfClKFaRoYC0jvuuEt/JQmo4sMlY0jpshfgpMKecaRGuqeO0y6BNE3lKbVa7Vi1ao2U2NUgKndEW5vUcPd4PAmrIGHsQAHSfv36JYCUXgv9IpDed9993UCaagn9XgJptQbS5ZhVtUpES7MrGee5WiosnXvowzhj7B0Y1+8C9AgdhYjjYBRERiDXOxD94pU4bvCFOLf2bkwfuwIXjFmJE0behbzg0XD5yzEwchrOHXM/Lhj/AC447H78fMztGN/7AvTwHoFMx0hk+g9CPDpILKHBCMVL3UAqFtLvGkg7IUcCCQd0DnFs7RSihNWUJil86H40liUHdwN2jQVkEgqCvz9AmmXAKNX2dMczRlQ1ip8cvix4Qrlw+GPIK+mN40/8CS6YdhFuueNuPPDHJ/HwY4tlev/DC9GxPb5gKR7+4wLc/8AjWL7iaTQ2so668XOsO5hTPqjwIaEbSI1Him4g1YM277duIHWIiIsw+r0EUgJsWgbMJitWrFglZXW7gTQtES/blaX0e28hTYVTPU83/QFnIa1eIrXjZ1YbQKpzjVax5vxqTBu3EhdMWIqzxi/EmeMfwvDic5DtGolsX2/kBLOR7+2JIdmT8KPhN+D8SctxXPUdiPgOhyc2DL0iJ+C8Y+7DWUfdgcMG/Ar944ciaumNbF8f5ETKEY+Uw+vrDV+gP0LRim4g1S777xRIU8ytYsVKWkKoZm9uY/WjJjS1MgaU1Zfo4teg2cWULl/SkyTdpyVSkZQAaSsEylzaQuovkvhUcdkfcBbSbCOONTUfKUMH8pBm8sLpi2PgQaNw78OPYdPWOiNHq7IxMXSBZUeZCD3Z48l5/p312Mmc/PsOJo8VAO0ESruBNKVTuoG0G0gVhKabk9PvI5ASRGmF5dSUYcayZSvQ1KhSPqVa4Q9kl323hTS+5+58DZ5dTQ9MIF0q9erpyhcLadUqzKlahVmjV4F162fWrsP0sc9gyph1OHfMCvxy/CP44cirMaTgeOT6BiLXW4FC38Eo9Y3HIWVnonb4uQgGR8IVHYCeucfhsIOmYWDh8cj2DkXc2xvZ4TJkRYsRCRchwlKf4b7wUyEfKe8G0v8mkOpRLIFAtIu2SCWkFknXRIW8hksCZkqTqkwkK6Ml/qbEFeqzKrqNoHX+tIvg8ucol30CSLNxoLnsJeG9p0Dc+EzvpHKSspZ8FAWl/XHFNTdiw6Zv0NgGNLQwDRLVooyFYoxXkqE437Gp3mc51AY0tTRJzCut1gkq5foprdtCyv5kh3QDqb6VeU11W0i/vxZSDaR052sgZaq1bgtpt4W006pMByaQLsf06qcxs3qNAaQrMKdqOeZUrcBFNWswu3otpo5ai6mjn8XMsS/gvOon8avaR3DOkY/iqKGXodR3JHIcI1DgHYosdz9kMS9ooCeC2RXwuQYjP1aDiG8QMqMDEGPNbwHRQoQiRQjFyuALs9xnX4RjVNN3u+y/e5e9YSHVo5hMGVFId70WTDWjmQp5MJF+CoimzLe1NqGtxfg7c4W2UBmpE++rOD2uSeGVAlLGkBaLkpwKfpa1PPCAlCmbikTspGJLKXTKgsuXiTt/ex8amoEdjU1obFWViZL2z1bpq1b2F4khBSz1PEut6vhg+SYk5lXbUlOt2orDuoG0G0hVcA0vJvXqBtL/GxZSDaQrlq9UPyeGqI9XAeG020K6M6D+z1z2qTGf+3q+K8uoXt4RSPcuz+ieiZo6yzvacdleiZqqVmJG1bOYKbXqV2O2wOgSzKlejDnVS0T4NJsWU9awr1qDuTWLQTU+LabnHfo8Thv1EMb3no5+4bEo8PRETqAIWbFShGI9DcBUyvlgpL9YQWkJZT7RYLSP5JEMxspE1BSKsvZ6XwTZdpOmaV/9fWdBE0VOnYuadqugTxUvdTFP5XuyBGdPKe/p9VMRzxKdVNizZnwhLheVPQcaIp0CEM0wGlo07JWliJpcwVIpzckk9qLY9+fj1tv+oFT2BtO0CuiozcqmGQdqxIwSIxtbm1jvRU1pCe1oytvFe1pYaV2V/41a8wKkU+fBEyyA1U11eSms7kJRrU+edHIyGsAYV5VVUIOYUt3vrajJ7iuC49/9aHUZKvstW0XM0pWoqampRcpDBiN0vxM6Oxc1UWnP6lU2d74ky3dIec4YzrlgJuobW8GSjTzyxhbWsabLnf3H1qSmrUy+z/dGAnkpO6S+ZhUu0ZiwUDe30kpKi7NhJdUXgDFtaWzFO2+/h5Ie/eD2ZYoaXinsdxY1Mb3PYYdPlmpK/D5U76qHkMQ7UdlT1LQd/cqHgKImJsZneVCTq3NRk81NUVJSZc9LQx+uNgnrRTzV119/BxkmJxzusKSUShU0KcV9qqiJCn8lamKt+HhOEd7/8JMOaZ+MrRt90lHUZGISewdze4b2StRksnthYo16EVRpQROnuxY1TZs+Q92uBiCkulH1vcZl37mo6cU/IxLPTqjsqTY32dwiaOooakq3sKa9R5Twg4YO/1aiJpb0TLO4OmnJUp8mG0uAWlXdeKsDHl8AixYv6VRl//mGDRh+yEgpHZrBkqPpFqmI1ZlrXrvoO06pst8zQRNFT1aYWUM+LQPnnnO+3Kbqe5OvNfFeatlnWJCRzmZNtgwzKDaaP/+OxHWgleK8/rds3YacvHyYrTajTr2RV7QTYVNnoiaTcWzpdN2nm7B8+UpVjMIAUXWUwD//+U+4XK5EZSLCGGMr9XR/V9mzbC/vk++FqGlfQ2jq9jR4djU9EIGUaZ9mSgooquvXSJ7R2dUE0kWYLY1QukxSQ9FyOq9qIeZWL8W0qhWYUrsW0yasw5RDF+H0Ubehpvh0lPhHIou5QsNlCEVLDQV9bwQiFfBHBsMfHgZ/eCgCkYEGmPZEKFqCUFQBbDeQ7jsg9QUKkkCquBathlLGGMMTsMo8kXUNhFGIy5m2zoYWupuVUW9PplTjcztsrDev25QZV8ATLBQlOmvZm5nT05OHAw1IWafe4SmCw1cAqysLDk8m8or64C9/f1MyETDTAPu1mXmkhMwIn4yt1Y2dmWLtTHK3CMSIiDsaWUtcaeB36bLfT4CUqZounDlPLOHag66svuyJhFNdTntvgJQwSKU9K0FRhZ5JIO0y7ZPaUTeQGi77/RhI05mOieBncYjK3un2YeGTT+0CSEcoJbrJhrQ0CzKsSrGvobQjgHZ8/70CUiN+lLCqgbSFMVEpQEqQYx5Sp9PZDaRpSUtpt4U0PhgHgoV0ZtUKzBLr6NOYVb0asxhLKgC6FATT2dWcEkjpxl+GeaOfxMU1SzCndhmmVy/DtOrVuLByFWaOX40LD3scRwycgZhjGMKsJR8tFdgMRnsZQDoE/vBB0gLhwUbcaC/5XDjSDaT72kLqDxbilluVhVQDqLKHJr3G/DkjSH76xVe447d34/bf3IOb5v8Ot97B+fsw/45797zdeTduu/NuzL/zHsy/6z7Mv+sBzP/NQxh3+Amwe/JUeiRvsbi9ne7cAw5IXaw/784Dq1bZXCoF1MSjjsPGr79BI+ugE0OZqkSsyCqHKqGyrZVVjBjW0IrGhmY0NwFNDW1SOYlefDau0txipNJqAxqbKFaQsSb5ZcmXqIB2f7GQEkinzrpYASkPlxeUPs5vAaRMlK8tpJL2qdtCisP3NO3TgQCkVgWkLo+vSwsp85COGDVaLKRMYUXY1CCqpx0BtOP77xOQZqQrQROFTQRSipqYO5cQyqbBlEDabSFNwqi2DhNKmf7qv1qpKdWiua/nu7KM6uUHpIW0ehlmSSlQgqhurMS0c5tdtRIXV6/EnMpFmFO7GHPGLsHc2jWYW/08ZlW9gPOrl+PH1Xchxzse/mB/RCK9EImUIRwxyn6KlXQg/JGBCEQGIBQpRzjcF5Fwb4SNtE/dFtJ9aSHNx403/VZZQQUOhBQULxiwoK2aq55+HsFIrrhSPQHGRmbD5cuBw50tdehZi363jYnfPUyJlA2nrvnuU7XbmbyfFZqsrnwpH2p3MjH+geWyZ2J8G9M9+Zh3lEnuI7j48qvQLDlZaVMGmhtJmAoamRaL+VrrG5vkO3hv/b/w0MNP4Nc33I6rr74Fl11+Ay6//EZcccXNmDX7clx2+fW49LJrcM+9D6OujmVeZZPtgZTfHre7n1hIEy57GoPV5bVPgFTykHpi4jany56J8dd3u+z3LA/pfgykCiytyDDbYLE64WZi/C7ykNJlf9DBtJCaJaeqhtDUaUcA7fj++wSktIyKwt7EUAETli5drgSTIppMAild9l6vt9tC2m0hbZ/26YCwkFYvFksoraIzpWLTKsykyKlqHWZKbOlzmFnFxjjTZ3FRzUuYMfppzKhcjemjV2DmqJWYPXoNLhqzDudXL8AJI29AyFGJQGwIIuEKREP9EAn3AWNEg1TVx8oQiPVEkAKnSF9EQuWIBgdIadDuGNJ9G0Pq9ubguuvv2CMgXbxsnVSkCUZL4A+XwObKkZhWb7AUnj1sXskSUAxvoAgeVo8ymj9SBoe3EDY3KymViJDNao8fgECaDbsvFxZXHO5ANkx2Dx55YgEaW1rQ0NioklVDEnMAACAASURBVGBzXGCAbzPQ0Nis+r4NePa5P6Fvv0Ewmd2wWHxIS3cjLY3Ni7Q0H9LSPHA6w0hLd6JPn0HYsGGzykPaDvLEBrL/AKknJjGkLB1a18CMAto6yqkxQBpG072NIZX4TbrsGbfpCCArtxgffPSZ9GcC1JVNOgHs3S77/d9lr2NICaQ2uwt2pxv3PfBgpy77LzduRGV1LdIYr8kYUlpILUnhEsG0I4B2fP99A1LGjzKWVIB0ybJORU3vv/++1LLXFkEdO6qn3TGkRyTiU1Otyyy9Om7cuJ0qQel+6yrH6S6X7wuraFZ8SKcqem0J7Wra0UIaj+2uROhAxGI7t3jHZaJQp0p9ADoKmDp7r0VN0Xg5IqEByAtU4fABnVdqmlm9RFz0s6qXS7WmmdUE0jWYWUUoXWuAKeHUmB+1DjMrn8bsWrr4mUh/NeaMppV0DaaOWYhTq25Etq8W/vAAhMPliIT7iRU0RCupAaWchqK9RcQUDvcXKOVUWUf3vagpEO6DnVqoTydVmnojEGbrtVP7b4uaGEWYKmoyUITyI0ONDSkjWNZzKDz+YniCZXAHy+AJ9IA3IWrKw1XX3KriG0Vwo5ILGXY3mRAUaNB79oVXJem7O0ALZoEBoT3gZHlOP1uxMdXvk1N3oET+TgBlOU83KyV5CuBifXmpesTk8QWynCU5CasOVyYmH3tSB1ETXU+pVEOuaUtUanL5CuDy5icrNfG9L79DK8B3JWpi2idVKjQbDl8cDm8Qa555RgRgUlmKVYCkQ5NgxrQsO3Y04+STz4DdHkYwWACPL0+a20eRFCtO5YECKW+Q/RTDoGEj8eXXW9DUyu/LeHUA05amFrzz9rso6dFX1Z33sFITy4eySpQqG8rSpXZ3XCo1HTpxkmQBYHwve1jFqao5efefiJpcETjcEfzyrCnYUc80V1IuScFokhoFGAmr73/4EWxOL2xOP1y+SKLePCsp2Vwx2F0xWO2s1BRBhiOIdHsAFncYGXYfisr6YsPGzV0AqaroRSD94quNGHLwKNg9UZjsFEmx/nwAv77xNnXedG8mvx7VuVzQCiQqNSVETYaIidWZdHP4ExWaLFKpyQOLMyBim70TNWXC4lSlR80OVmjywWTvvJntvr2v1BTPBuGPpUNF1MQSnlI6VJUPZYUoNpYO3WtRE0uHFhbDYjMqNbFak9UhsJgmwiaKm5KNpUu1VVMspOkWmBhDanOJ5fOW+XeoLB9tzSLkkywTba3Yun07jvvBj6QaFD9vYRlUEytDcV+EU5YHte2ysWQoRU3phpCK085ETvL3DEunoiZ9E8pPEwAtakpntSWpZ8+a9myqUtPNN9+qfr1bWDxEPS81t7Ri67btKC4phZW16Ok+lkpNGSJwSktPTtPTWRrTaGnpSDdaBj+TRrczY0gzsHLFSjRJaI9y2VMERBHVe++9h0AgkLCQ6lKbBCs2DaT8rAYyPX/UUUcl1tslaKVYH/XnuG273Y4+ffrggw8+QENDg/71kuPivh588EGJb+Ux6fX0lMu4bl1dnRyXFoTxvLhuaqWmztbX2+kMIFlylMs5nThxYqKClj5/HmhTUxPGjh27HwJpbPC+AVKjZGjnllKC6M7lQOPxgWBL/Vtn0LmrZUkgrUAkNFCA9IgBMzotHTqzemmKq1677LuarsJsqu3Fnb9cQJY5S+cSUEetxoxxi3Ba5U3IdlchGNZ16XdO5dR5eqd9D6Jajd+5mr6zsqG9EQyz9dqp/c+AdKfRk7GKhFJVBamsbAg8PgJpT2neQJlS8gdL4PHlYs68ayS+j0Y7qt9FB663KYYsVmEC/vHGO/CGsuEJ5UvpSSr27d5igUqCZbvmNwRKQVpBi1TZTG++KNttHlV602TPkuVOfwGcvny4WcPeAEpmEnA4Y5h87IkdgFTFXaqfcIMVJGF8M/pWVAqMEkjZpHSosT29TE+/KyB1efOknKjTnw+bJ4pQPBt/+svLkh6rNZEiyxiBCPqitG/D1xu/wcHDaxAMFMLpzIPNoQCdcGv1ZsHqzUSaPSLlOa3eGAaPGIXPv96E+tYGScWlENLYrsGQLc0teOcdAmkfVXfeEzOAVNWzt7KGvTszAaR7Xjp0z1X2DlcEFqsPxx13Mhoa+N2pH3X5/vhGX2fG9OPPv0DFoCGwuTwCI1aHDy5PBFZ7EBkWP0yWAMzWkICpyRVCmtUDkysAs8uPg0ZWi1hOBniBXW5UdUZrG1NmMU1Zm1hRe/YdBJs7IiU/CcxWuw833jRfjk8Dgj40ucqMTbUH0iDMTlpnWSK0Y/OLYt3i9Et5TE7TzE5MnTY9MQBzoNMDKuf50oOfUtnHBWSpeuf2TTZVY14U/gTilLY3QNrSCjz/p5cRycwW2DNZXUkgtbCuPBtV9QpG/zMg/Qz5hUWw2ByqdGgCSO1IoyXTaBpCU6dyPBk2KTealmETC+esuZegsVllpuBvlHpYUg/KZ5z5M4FJWlStNhdsdh77fwCkGVakG60dkJoNYM2wSmhAZyp7/aWmAinjOBWQdpiazJg772LjymQhDCV05BVA9fjQoUMFeCwWSwJ8CEpdNQ1ZekqxEmGM7eWXXxZLH68zQhstfJxnDClrxXe2TW7nlFNOkVPSoKfPj+tOmjSp3Xp6v6lTvV29jO8JejwnHl/v3r0FSBsbmQpQvbhtXv8aSLmOXp9Tvk8FUv15PeWx3n333bBarfJZDZgdj0VvK3X7+jMsp8p9jBkzRvpK34/6/tRAqj+vjy91W3rZHk/3iYX02wCpYRXV1lFOu4F091AaDO8fQLq/pH1KWEj1yKnGNPEF7zmQ5uH0/3eepPuh7ru+iT8QKaCQAqRb6xrRf+Bw2L1xOHx5cDHmM9JL0kjRze7yqUaVPBuX6XmnAHEPeEJcVij5RgVUWWueEPY9AlK3vwRWdzacvkwEIln4x5tvSHWrZBGBlP4VdX0bNn21BeX9D4LdFoXHkw+3t1BEXnZvLuzebFi8MbjDBbC442IV7NG/Ahu3fmM8QPBRguC1/wGp083ziaK2diK2bmsQ4OOgmHilXLtkMv5l5ty5MNsc8IVoufTA4Q5KGijWr3e4onB7s2BzRpHhCsLmY9qpENJsbjz8+EJ5sOoMSPmoxQctxuvywSqeUwybK9wNpFZaMPcvIKVLPcOiLKYE0gyrE8f98CSVeq6ND9tKdikP3K1tePDhPypLLNX5GVZYbR5Qqb/XFtL/FpBmmPGT08/A9jpmywCaWpSXg8Ux6uvrcfLJJwu8EXIIRxp+9nTKdQhD+fn52LRpk4CoBipOCW6rV6+WbWto0/CkwerEE09MPBzpdQl+vHePPfZYWZfr6H3p9fW043Hr5Xp/rLa0fv16sThyu3xpsNwVkPL4Ui2kXE//nmzduhX3338/bDZbp32mj0FP9bnyPef1MROYaSFlP+lj0n3wvQPSruGzMyhtbwXVFtFuC2mffZ6HdG8spAcmkBaJy55W0lQLaTBcgvETJmN7fSsaW5TARn4dEnCrrDYc5Jk9ZM7FV8DqjsDHogWZvQRKXd4SuP0MA2A4QBncvlLJxen0FMPuKoTH30OW8++BCOdpIc1BJLMXHAQud4641JMW0gJ4/EUHpIWUaZ8YumCyx+HyZ8MTiOK1t96SzKssKtAOHOm9bm4U9/Wmjd9g6JBRiIQL4XLnwO7IgtkWk1hUhy8Ldn8cFncM3kg+nIE4inr2wScbNnQOpPzu6F7eDyykZmsAwWAuevYcgC+/+gZNTa0ispBrjP+lACnHpfrmFrz693+gZ9/+sDrccHgCAqQubwR2uq8tXphtyj3u8Mdg90Vgcvow/ohJ2LK9XvUwudywOKod0PLSDOZt5dC3aOkq2N0MAehoIb2t20K6H1hICaFmO6GS1lW67F3o2accX23ahPpGegTaoNOn8Xdp+4569O1XDqvdCbvDo9zt+zOQmsyorKqR+HHCKK9JuWUNJfyNN94Ih8MhYNWVFZMAldoIU7ppS+TZZ58tFlcCGxsBS7ezzjpLoFcDYiqkcZ8nnXRS4h7S95IGRyrQaYXkuno9DXX6mDTcpYIet6utl7W1tfjwww9lH3q7Gv52B6SlpaXYuHFj4ieE58QXp8uWLUscmz4WPdXHmvo+9fgIsjxuAunFF1/8fwhIo4MQ69g6tZJ2A2mq635/sZD6gz2xL9zznW1jbxLj752FNAVIg0mXvT9YhD79huOrr7fLYM5bm+Us5RfSuOX5g6SB9NMvNmLCEcfB6orC6aPSnrGOxfD4SuD1MwRANa+fCf5LZVkw3BNuuvY9RWBapFC0CMVlA3HUpFPRp/8IeIMqztPj57QAjCFljKndGT/gXPaSZcBbCIszCy5/FqyuAJ598U9imUsOPakgxtRNrdhR14hjJ50AqzUAry8HLncW3BI7SsV+HBZXEE5/JphCyeGL4Mhjj8fGb7bsDKT8zgzI2x+A1O6MwsaYT3sQzz33CuguTrCicX3JhMcsBQNapaTqE08uQu++5bC7fLA5fLA7A/D4o/D643C4wnB5o2IVdfjCGDayCq/87XVlHSWLtwNSblWGeym12tQCzJh9icSM2im4sofgcEcNl303kCp3/f/WZU8LqdXhFVc9LaVp6VaB0iXLlqGple56WhVbwJhLPiQT6qjCD4VjMJltkruU7vsMi2rpZit22SRmlO56HedpkQT4TIIvTVz2TNTPJPXmzmNI1eXbLjF+Vy77tAwzMrNy8PGnn0lsvvptNeKW29okaT2hi7GWdHFrgOpqSogi7Gl4JVjl5ubi3XffTVgPCXt0j3NKq2lJSYlsV6+TCmtc9sMf/lCAjKelgZHAl2oh5bHp9TSQaijmMWj3PM+D2+Syvn37Yt68eeKu53a3bduWAF++51izOyCNRqN46623jB5XD59cj+2vf/2rZA/g8ehz0/2mj1UfI9/rviNc8/N5eXm44oorZFvsL71dTvn6/llIo4MQjQ7cqXW77A8cl/2BC6Q94An2gDfYIxFD6gsUIhAqwFOL10j83Q5D9Z242zmcJyo1taK+sRnvvPcvzLvkWoysnIj8onIEQkXw0oXvzobbkwMm2w9FShCN9UBefn/0rxiNmtpJ+NnPp+OW2+7G0hXP4u13P8G2OuDC6ZfB7s6U6kcaSKm2p5XxQARSipqcvkIwhpRpn9JMLjzx1BI18LSnfAGl5uZ6KUTQ2NiMxx59CsXFfWG1+mG1BWGxBmGy+GB1BOEJxlHWZxBO/ekv8PCjC/DO+vdlcKbVT2J+ZZg2vrX9CEitjggcrpjEfp5w4ukCpByAd3oRIgkXza0SU0cR3d/+/hpuumU+jp38IwwYeBCKinuiqLg3ior7oF/5UPzwpNNw5+/uxnsffiyufkmd1SmQKusJ9/v5hk0YOrwSFkcQGVZaWim60kB6a7eFdD+wkBJCBUgzbAKitJSmmWz4yemn45tt2+VKT+TjVc4AbN2+A7PnzoPb64PV7oDZYoPJbJWWQcX5HrTUeM92nzcTTC1IF4GR6VsDKcGWx3jNtddL5TY+pPHaZAo4Ag/Bb+XKlQKVewOkhCrCH/OLXnvttXKLcVsEPTY9v2TJEvlcKrBpSCO8EdQYJ6qBjOvypbdz6aWXyj74Of15DXca8DjlMlpECwoKxOJ6zz33iJue2+Wx6O1r2OP2Ob87IOU2n3nmGTkefl7GJ2Nduu0nTJggcJl6fqnHqY+b/aWP0+1247DDDsO6detEMMXjI3zr7XPK1wENpJ3FqlJl3zl8du6y35Uw6dv87b8uahr9NOaMpqhpMX48+kbkeqr3SNSkRUff9XRPXPb+YC+o9u0tpD4tLAoYcKinnZUODfSEP9QLYj2VtElFuPyq2yWWSlT2BoAkeaczURMtpApIRWXvp/WSrRA+fx5OPvXn2LJNuTR57xEOGNPU3KTi/WjFa2lrRUNTi1gl+BNVtwNY//4XWLR4FZ5YuBSPPPoUHn1sERY+tRyr1jyHN95cjw1fMiG8+sElZIg1oIVJ3bl+G373hz+KatoXomU0F25Drc+YU4cr64CzkNICzGwBrgBjY3ORluHCNdffIkC6lQQOYNu27TIl/bQw4z3a0FDfIO7sv/7ldVxyyTX4wQ9PxdHH/Ag/PeNXuPKqG7B46Wp8s60RtPBt39GELdu2o7m1FZu3bJZ0OCrzgNqs/C+CqT0XNVlsfoybcDQaW1TeBuVGVNF6WhjEffCHefOWOgFCty8GqzMMmyerXelQsysqFZSszghszriEIFhsIVHyv/n2ejQ10+LehhZjoEsMTAZcqME5ec3wuuGg3bE1NreiqaVNrkd+Rt8GKb2guiIxmLTiwYcfF9c/S4VaHHTZh2F18Nh8uP6Gm2UbLczZaNhV1TCUfKNFTcnSoXsnato7lT1FTUlxlBIxUWWfFDRR8MRGwVNahmOPEuOzH/dnUVOqwCl1PisnF3/9+z/kXtrRQJEaBUEq/lLSpwFYsXIV+pWXCzwSIpkyyuZwirjI6fLAYrPDanO0awKvFqtAoslC4ZJJANRstUtOT4/PL9uTcp5pGZ0CqXGJJSyko0ZVoisLqYBthhklpWX44F8foaFJCVD1/UAQ4otgFolEEq54gqa2SmqLHuFKu/c1VN5+++0Jayi3Q9DjNqloZ4wq40MJa2xcv2Pjcop6tm/fLuvx/uT6GkxffPFFlJWVCYwSgLk+900LKOcJfzxOAt5dd92VcK/rY9BlPzXk6SkhkPMPPPBAQmXfESS5fZ77NddckwBaQiLX4/p8/eUvf0HPnj1ByORnuQ7PSfePtthyORut0U888USif/S56vPltvUxaiDltlKPLXVeb3ePp52B4t4u6yqt0+6WdwNpN5DSVb+/AKkvQHd7HnyBHLz4p38IPNJjz3u7uYk/EMq6pGqmJwdqgQZatJoUOKRCBOc5qLekpDRJHeCZ+ofbJesuXrIGPn82fME8cedrIKUgyuFk2qcDS2XPIgGsOOX0MzF+Dpiu6NTTfoFtdSrfKFM88UV3OqmnjaIm2jhbGd/Fik2q79n/bOwn/X3U1zMOTFkRVf+puDANirJh/d9+AqQsbmCyROFwZ4ml94ILZ6OunmrpFgFSGYQ4aLYx/Y0C1Y7XUlfv5RpjqrIUGJX+MgZPDr56sGpqasFXX23B+EOPEjA220JS2KEbSPc/UVMqhKbOW+0unHv+FIFQWtK31e1QDykS307vDb0FwOdfbsATCxZi1uzZOPqYSRgxchT69uuHouISZOfkIic3D4VFRejZqzcqBgzAkGHDMKqyEocdfgROOOkknHv++bj8yivx29//Hi+8+BJee+MN1I4dJ1DKdEydqex53fGlVfa7BlILbHYnMsxWXHPd9XIvqGtcQRVBiGmNeG+88cYbmDp1KkaNGoXMzExQBa7d4doaGg6HUVFRgZ///Od46aWXBCS5Lrcj91dbmwAl74Xnn39e3NIEta4gisu5vY8++igBetwWG7dBYFu1apUo8ZkCicfGKUH3oosuwqJFiyStFMFTHwehlusT7DjlNvg3TjXs6WPdFZASBHnsw4cPF3e/vr/1utweX7SgHn/88WKdZf+wCABbLBYTmObxTp8+HWvXrsXmzZsTlmluh43Hq7f5vQbSvRU1fRsr6K7W7baQthdGfe8tpP7OLaT+QAkCwSL4Ank45ce/wMav+UOoLaQKiAhMBCda85R7WFlPWZKOIwBhKuk25o8OYYP5All9iMBFCNPNeJKV0petePe9f6GouC883my4fXliIXVSre8vhYOVmg5AIJU0VswbyqpNrhh69x2K99Z/KvDOgauOpmXO8Mkb/KHnj6h6CieU8sW+1YDaqphVlvFv+gdc/1Dqqayo/9tPgDTDGoHVkQ2rMxMOdwyFJX2w6unnElZNni3T+XA85+Cydy/9mNN+rdSBj/O0DLEPb7/9d/D547A7IzBZqbCPdltI90OVfSqEps6zapM/GME99z1oeFraJMRDq9SbW1uwfUedXE/8znk9EewogPn4448FsJj7ko0Kb04/+eQTfP7F5/hq00Zs3b5NsoxwO/QG6caSvz85/acwWZi+ad9YSOm2tztdKC7tgb+/9obEwcr9bgAb72kCnbZOfv7553jttddEHc/URrfccgt+85vf4JFHHsErr7wC/l0/gPGaZ+NL/1YQrviZ8vLyhJW1KwspXeKEX1oaGePZcVvsV72vL7/8UmJSCXXsa1pVO+YW5foa8PS2uH4q8PFY9ftdASmtjgRSWj8XL14s+9K/fxpueXzcFo+FwqlXX31VQiAIn+xDgjaPl59J7SNuh8fH9Xm8fK+nuh/5twM2DymtoR1bN5B2W0j/JxZSf2EikX2qy97hzBO3fThagqycnnjgwQVgarjmpjYZxHkjNrfw5iQ08QbWgCkMJUBKACVUJRrfMwF8BxiVz4mLuhVtLXxCbsX27Y0YfnA1nO44PH4msGcKqGJR7Uvp0AMMSCWG1F8AiytbgNRkDSEYzsdvf/egWDobGtQTfGsL62gqkJd+MfqL1k7dd/IjSObi2GJAaVNjgzwt7NhRl7Ay8HP6B1N+YeVXdu9U9t+Vy54ZFKyOHJhtcTjccUnuPnxEFf716WfY0dgoAMBTJAQo+3viDDrM6I5gZ2gQ5bx+rz7OASV1AOSgzkH1hef/jJzsYrjcUaSbfHB5c5CW4e8G0gMISNPSbUhLtyAYiuGJhYvkoYYue8aT0nHf2Ew3PnNZJNP1EFI0YGiI4nsu53XC+0Ys88Y1yIcjAVKG0TQ1SmNozMzZs5CxD4HUwnAAhgaYrRg/4TC88+572Lptm1zEGsz4Rh+jvhl47Py7Xs7j53sNrvyc/i3gOerzJzj+8pe/lJhO7b7uyqVMCymtsFdddVW74+E+U/tNW0B5TNKPxr2nj4mf140b4nHq74IPCQRkvU39d667KyDlsenjp0V2y5Ytcu5cXx8Hp3wxnlT3hZ5yOefZ9LHxnFL7lO8pmvrqq68S29Trc9sHLpBGByGzQ4tTXd+por6z5RQ/VXwnrdtC+n/NQto5kIajveHzF8HN+E1vFkp7VOCJJ5aisbEVLc3K1UMYbWjYzmQraGujK6MRbbTqiZUvhQ80J6RM6cJqk+BR9TmV5kjBGH8c+JB67nkzxGrlDVBlXwinl8n0y2A7AC2kTg9BNE9U9oyJtbvi8Piy0affULz11no0Sb+ybwmmtBzUy5RVnFqZY7GNAyUty81oI6Sxg7RPmma+thY0M/WNMdDyx1P/wMqvsP5vP7GQOj15SMuIwubMhsuXLVWbKFqpGTce//i3O5JpfAgBHPx52ez8SrmYElZ2DaKp0+TaetAkiHIAYSqYsh594PVEYKZIzK4spKx8RVFTdwzp/pWHNNUqmjpvYSUpk4LS0h69cfMt8/Hlxk2iuFePM0wH1Yim1ibJqMD7Qlvmdr6uFJgQShi7SegU5b5YR5n+jvHyjbKcsHvb7fNhtlKFv48spEyabzKDcamMW60ZMxZ//dvfBYx43Poa5vGl3t+cl2NOgVLxtBhgmrqu3gbBasqUKeKyJszpOFS6v7uCUlpJmbyeYEZY40tvj1MNffr4+Hd+ToMdYZV/Y9OfpcXys88+k1yhRx99tAAy/87t6fV5/LsCUh4vj5vHR1c8hVLcPtcTT4gRpqCX6WPn39lS98N98+98UNHHSsspqz2xOAHFX/xb6rrc7n4PpB2toPo94bOz1lkp0K6WfVdAKtuNVSAWH4BIaBByg1U4bNBUTJn4CKbVLsGsyjWYW/mMVFiaVbkaM6pXY0YN2yrMqF6JGTVsK6SU6KzqlZhdxQpNbKsxu2qNVHaaWbMcM2uWyXKp1GSImk4dfQNyvFUIhPdEWd8eHL8rcdP+7bIvA3Of+qiOD5bCGyzG5VexlB5fvJmNIDp5z3f8eVbpURh/WFY2EF5/stSnJ1AK3ezOXHj9RQhFShEIF8Hrz0UgmItbb/ktduxQJS15H1PgJK75hNWT+2TMo7HvVG7oYl6FS9Ly2ozGJkIXUN/YhscXLIPNEUESSIvgDvQQQczkyScI99IDpX5PlJvbOFWZ8G/b65KVmpwplZpUGql8cFlqc4gSvgA2VyaOmnQiNm2pE8Urt578lww0YMzjm2+/h0CEeUZzYGe1KU+hlD91ePJB8BLrqCcHnmCx7MvhyZVzotLc5YnhyKN+IIIgdg+tOvp8mlua0dSsIJTW6MamhoTYSU6Q/U9XvqHCZSnATz75DNdccx3qdjRIP+70NUhFpFa8/c76ROlQmzsGqycTVk8WVJWmbLB0KC2XFrsP4ycc1U7U1N72qAZwHvPXW3agX/lBcPniEOGSJwtmF/OkZkrifhE1OVmSk7DHSlC5sDjiSLP4JRm9L8SsCiGUDxyCv732Buqb1LVKwVzqpcNz199F0iqa+gl9hEb4g/QPrUccHJlkvBF/+MO9yMnJh93hk4pRLncMFFgxlCItwydAarEHYXX4cf0NtyhjNLs65TlLfwdcyLH58QWLYJbqSX6Y7CwT2nnLsHlhcWhREkuHOjFt+kx1zcoAqfpUztO4jWitYx+vXrMGgXBctk3REsVNuxY1ecD8nYcfdWwy/ZUEhCR7UO9HRE0vvYJIPEeSzpusbiPnp67SpNM+seKRblzmxMChw/HpFxvQSCBKfDvJffAb4fPnx59+oUqH2l1SMpRlQ1Xp0GSlpo4151Phs7P5tDQLMsx22J0eOFxeqc70gxNOxGtvvinxow38TeFjc2sLGuhyTfkO+fsl79WlIlZRvpc+MT7H425m7Du/Z95zEk7SDG730cceFwW/hQBpZvonE84593z1rGhsk9+bvg93FUOalmESCKV1lDCqxVIFhUUS0yipkCgoZZy1AYM8TnqUeB5yzLJPNa8hUEOV+qyymtKdP2LECIkXJYzSwqiFPpzvDEgJe/wbwe+EE07AN998I/vk9vW2CWkaP75uVwAAIABJREFUNLmM7zWwpr4nJBJECba0uBYXFyeOYcCAAbIO103d7q6AlMfF4+NxE6w5z5hVgqPer+4zfbx62/o9p/p49b65PmGZ2QUYp8vt3nvvvQkY5efY+IDzPwXSPalZTwCNGyVAU6edW0I7zy2qk953Nd3XYBqPDkA42B+Z0SGIBociMzAKB/c5HWdMvB3nH/YIZo1fiYtGP4dLh7+Mi0b8CdNqnsGFtU9jSs0qXFCzHBeOWYGpY5Zjeu0yzKpegbmVqzBv1NOYN2otZlWtxsyaFZhRs0wa38+pXIcZI1djxvilOGX0DcjyjkYgyprw3z1wSo36UOdlQDWIdlUONBBqr6j3BXrskxykXYqatNq+w9Qb6IFwjADfRwRRl1x2p+E8VyURWQWIzirtsuItzp8PxlcVFRNAs8F68nvSWPc+Fu2NyceeiScXPoNNG+lqMcRLrSpBvrImMNk43R1taKHrrJlPnARXAhRdSWqUFcOeDOZtklpqWwPw+VfbsWLNS7jupt+iZtyxAnNuVmvysXwowbgUdmdM6lRTwEA1NaGQv8fSjEFEn+P2+hb0G1gNB8HTlw+HLx92SVJfABXTmZy6mO/UkwcPwdWdjaOOOQWbv2lBXX0yKEEFJ9D514xGNEvRz9feeRe+cDbc/mzJCOAUEC2AmhJI2QinXJYHyUnqzobDkwWbKwpvMAcnnfZzvP7Oh6hjloFGoEHOTWUo5bkQFvidsenBkcs5v21HM17565u4+LJr0bvvYIRjuXj+pVelT5vYv1zfaHy/6ZsmvPHORygo6S/WSabXcnjYCKG0VuZKc3qy4HQRSA9HfSPj55SQSvcz959obcDGzU3o3f9gSddlc8ZU6VHmG3XFpLE2fLIZYKoB1ZiyP5gD1B/Jx89+NQ1PP/sXfLlpm1ik6DIlWLCqEuFCx/JxedKKxRg/ZnxQwMB+43E3NrXhiw2b8cSCZfjhD0+D15sJuyjpwzA7QjDZgqoZdeetzhAyrD44PBFcd9Md8j0z00DifFPOnXo07mfR4uViqSMU2Zws6ck68x2a3S/bzbD5YHWFwf2kmd244MLpsm0+kPCaTv2u9ffM6eqn1yIUzZayowRRKR1q9ylFfYrKXivurU7Wm7eKMKexiTHc6j5t9x0aoMV+evaFVxGO5cFkZYlW5vx0GiVDU6FUz6t68iabAxWDhuLTDRuxvZ5lWJPXm57n4/GOxjb865MNyC0ohcsbknyinQHmXi8zatPrCkycZljsyM4rxMmn/RS/v/f/t3cmMJZdZ52vt+/LvW+rtaururuq981u28HY3W634xiSwGQIkJAJiIBQFGBmsru7HRMxIohlGMISZUBkQyxO4rHjMHYWZ2GRBiJGI6HRKKMAExAMZAgJSbxk/Ub/c95599z7zr333Pfuq3pV/SF9Oveeu7zX1YXz6//3/b/vd+gv/ten6YtfedrXfQE/C/wc8OeWP2+UIXndGfD3ihB/57hveP6Vp75Kn/nLz9If/8mf0tt/A/XHXTkRqoCepHl61Y//pPhvkvr/Vfx3Cu996pln6fKVe0TLKYCrbQB0W02HXvSi76GHHnof/c1n/5ZgxhO8NoRe9d9U0LWCKh1IsfeP//iPIivwyle+klZWVkYAaoJP054yDqlaTbzn05/+9EiZBXjic/B/gDsV+B4IpMpx/yOPPEIPPPAA3XvvveQ4jgBIlW4HWLZaLfrsZz87qjlVzwNIYUDC9zBBswJq9a7l5WVhUPqzP/sz8a7gzwPfVX1HHOM6Vvw5PvOZz9Cjjz5Kr3jFK4QBSoE4ShauXbsmABTgrWAbyu8LXvAC8d1MP7uJ9pI46vctkA7OUL97kvrdMzTonqd++xY60LlM59Z+gL7/trfQ/S98Pz34vMfp+p1P0PU7n6QHrvwRXb3rE3T/XR+ja3d/jK5eeZLuFyrpR0YqKZTS63d9lK5f3ntAKqcvHRNKpP9494HU7R6jSn2DMnkYQ9A39Bj93C++S4z7BNA8+/VvDQOjP2nUHgj/Af77f/gi3XzhojQMWQIpVNhOZ5tqNailh+jOiy+kX/nVd9Ff/Z/P0dPPyv8R+jr+xx//A43/KClIHP5HUykFah8ZGfzn6+/+7nP0O7//CP3gK36cbn7OZWp2oJz1BNhUm6tUh4or5tlvUkM02V+nF3//D9E//fPTw3oxoi995RviOzwDmPuaDIDkF7/8LTp6+k6ZLq+tCAittTcEmAJO9QCwtpxN6va2aCHr0Hf9q5fT3/8D2ijJn98zX/sWPfO1b9IzX/s6PYN08je/Sc9841v0p//9L+jwsfMCusq15SGAKhBdGyqkWMeBtNJYpIV8kxrOMh04dJze9+gT9M9felbAJH6G+HkiRv/D/i0Jqzj/f//8Rfr99z1ML33ZK8jtHSC0W8IYzWLFoZ/9ubcKRQx/7wCBp7/6TRn4PXia6H/8z7+m0+fvoFbnAGUKroBHgCm+f7m2MoxFMTf+RS9+CX3+C18RnRY+9/l/oS8//TXvfeq9X/0W/dXffJ5u+/b7xPsW8m0qVgDb64mAtIgZ95UONd01ws+mM9igK8/7LvqN33on/e3f/4OAA0wO038m6mej1mfxP4AaFH3mr/+W3v6b76JLl++jUsWlUqVDC1m0+oECagbSfMUVKme22KS3/MJbZT/TrxM99ew3xgKgivG5v/feR6g3WKVsvkKZfHUcRgGnOpBWO1SoupQpNOjqA2+mz33+C/TUs1+nLz/9rO/743fuS089Q//0hX+hhx/9IA1WDgoAhdKqwFO0eDIAaRbjPzN5evH3voS+8tSz8nf5q/hH1tcM8XX6wz/5FG0eOUkLGdQyloVCXq5hEpaCUG9dyJYpX6qLsZzfdifqf/+v+Ht56qtfJX88K/5cTz37Tfrff/k3dHgb70dTevycUggDkGZE83s00q9TsVqnWsuhb790mV7/xqv0jne+W/Sy/dJXnhIgKv5Bq/8D4xvfElOevvAvXxaK7n/70z+nd7zrt+m1r7ufvu8lL6PbnnMHbWxuUa3epnrDIbj8a402ZfMFQkuo5ZU1uuvuK3T7HXcKAAWE3n3lufQdz38BOR3Aa8UaRgGtuVyBarWGiHK5Smtr6/TSl/wAvfOd76ZPferP6Wn8xxf/rcU/ZNAvWlP6YNB66KGH6Id/+IfpwoULI6ADWEHxSwpKmFaEZwCNUCLRS/TVr361MFBBJYSKCzjD/0FdhEnsscceo6tXrwrXPZ5DFwBApWpXpUAS7wX4IaA2Xrp0SUDrHXfcIc7h8MdzYUCqQ6o6xrvRMB/O+ve///1C7YQyi++qwzO+MyD0bW97m1B/Nzc3R98T78Jnoo0WviPaQWFAACZTIdDGCqUGnU4n8c8z8ufPQHpWwOhi/yQNeiep3zslal0HzgXqVW6lLef5dNfmq+iHbv1Feu29v01X7/0A3X/pw3T/xQ8L9fOBuz5O1y4+KZVQpPIvP0n3X/kwvfHKh0Rc27NAepSgiAZDn6i0Gwppo3WEeounhDILOMU0JKd7lDq9Q9Tpb1AHYzxF4Pww9Ra3qTfYpnbnEK0eOCNMS2inZKOO4p6GaAW1QWgJhXdU66uibc/iylG67fbn0o++8tX0lp//Ffr1//xuese7f58efvRD9OgHP0of+OCT9ND7/4De8e6H6Nfe9g76Dz/zS/Sqn3g9Pf+F30c3XbiTBksbVK5DMetQpQk1rU/tLupG16iGiU8KSJubVG8dohrUzsYKLa0ep3prTTTc7w6OUNvdEIGG/CgzwNrqbAoIrbubVHM2qFRfoyqmPgVgFGAq9nAdCmpzjdzuppge1XRWqd1do3YX6wq1u8vU7i5Rs7MoGtN3lzYpW3JFuyAYsPD8KJqrVG0CUldHiqmukFabGCO6Kvp2VlsDKlQdOnPz7fSqf/c6+k+/+nb63fc+Qo988EP08Acep3e85/foV972m/T6qw/SfS94EW0cOU7luiPAp1zrU8tdo3zJpVK1S402viNgfpFqrT7V231qtAdUdxapVO9RdxFjTF2qNJEmXxXw7wHpEEqFcoq+nC1quosi8B4cY/XHgNrddaGA4h8T9Tb+vMuULbqJgLRch7I6EFAqUvvVnhgLWqg0aHltky7d/Tx61U++hn76LT9Pv/7236J3vuf36L0PP0b/5QOP00Pv/wC953ffS//xrb9GD/zUT9P3v+wH6aZbbye3t0KZfI3yRUx36ooyEEyKyhc7VCibgVQqmPizO9TsLInUeKnmULXRGYtK3aWmMxABEC2Um1REKj2ojg6BFPvZEtL5jghAb6nWpnZnUaifUFcL5YaYRgXgQwq71RlQpe6Q012ibKk+AlJAqYzGCE4VpGItVJpUHka94VKxVKdSuUmVaktEtdYmRK3uUK3uUr3VH8EnyhUQ4Sop1FOAd43K9Zb4vrlihcr1xjDqVK4Po4bRrnXxZ8TIT/wZ0eR+lkCayZfE3PpcqUoLw2NMZkIqHA3oK7U69QdLdHhrW2SLNjYP09r6QRosLVPb7VK1BnW5THkornlZo7qQLYgxpFgBolgB/JjmBCBdyGQFbIq+pcN6UOxDOVUh77NXSBfQ4zRfpGKhTFX0Ty1VKJvJUWYBPT4r5DgdWl/foDNnztFttz2Hzp8/L1oYoVcpwBMwBXhUyiH2EAraIqFI60eq15jinXgHgA/vBWTCgY90+8033yygDSCIfdyDwPP4TIAoznGMwL56N96l9nGsvj+OEUiZRwGpfh3wjM/HnnoeUIlpVfieAHTE1tYWua47+vPg/XgOz+M59d0UMKs99WdQ71Z/TtufZ+x9DKQSSJcHJ2nQP0Guu03d7nHqdk/Rcv8CrTi30UrtdjrmvoCee+JV9KMX30pX732Mrt3zB3T98hP0wKWP0JsvfZIevPRJeuDSJ+jq5Y/TG658lF773A/Ra5/7BO1FIG0jNW+IeUnZd/snCGl7fEcct9xtaopaUADkETkvHvPk21tUaxwhp3OCak2kzFBicJzq7SOJgBS1l4hOf5u6i8eo4WxQrXVApKqR8gVgQRVzeod8IceAAgYBaEhty/tgIEHze8x3hyJWbS5RwzlArQ7GhK4L+IQ6iqhhdGgLKukhoTbWWhg5is+XK0aLIsSeWlsbIkUPdztS9IBSgGepgUb1aMHkj1prXdQ3lqAUivQ1wA7vxXfGn88LpOjL9UWR6m44B6nponZ0ZVQzCnVX3r80hFKpmo6AFBOsWkoNHhBUOUBppdkX0eyuCkCvu8vk9Nep4a6IcaEYGVqsdWTKF+MyBVAui58b1M5CpS++L36eEuq6VGngnYD93ujnjOsAx1JtUYslUT+LGlrsF4SKJ/+hgM8FzKoVx76ooSF+X6jbhXJPPI+fW5KUPX6mUEkzRUCbI76/+McKlMUC0sgtqtS7VK51qFTFPPuOGBcKdRhz7av1rgBCgCFAEdeLZYcqmE9fdIVxqdZYoWK5T6XKomyCb0jZ4zPzZYcApkiLLxRqAs5QUxsMKNK5IoCrKdRpfEexZwJSfa8sFVMBrsWGSJMXSi0BhPiMbL4uPgvqpEifZyviHM3uAZuq+X2YOop78Fy11qF8oUG5fJ2KpZZYcYzI4zMKDRlFzImveZ9fqEfAaH0IlFVRowqAXsgWKV+qCgjMIH2txYIY01kRgAwwzZXq4nhWQAoAXcgVZWCsZxngXKVcASNEy6KMQaXMUbOJsZ0qMJlJTGTCd86iIT5AE1BZpHyhIkAUJipAKs7RdkpA6dCMJKc3SUBFw33UhgJGR+8fTnZSnx+7LmAEaEFAKOBUAGk2T8ViWYIpXPn4zgihqMpm7wA7QI8COICTDlHqeiwYaVCKd+A5QB7ehXO8X70X1wBw6hzX1D2ASx0+1ffCM7hHXVOwrJ5T3xPnAEr1nP69cQ/2saeew3fA98R7sYdQ9ylIxbkeuFd9vrpXrfqfBe/W/4y4hnP1HfTvNvExA+lZWuqfpUHnFA16p6jfP0WYN+705CSixcVztNy7mfrN87TcuoVOL72Ivuf8T9OPX/lNeuN976NrVx6jBy59iB68+HF68OIn6fqlP6T7L3+CXn/lY/T6ez66N4HUNJ9+qJbutkIKEMUc+HrrsIhqfUPUWNado+TFMao7x6juHqNW9yS1e6eo0tqmZvcktbqnqOHiXrsa0pqzSZX2QWr1jlC5uU756irV3UPU6B6hRucwNbtHqNk7QnX3MFXbh6iF885hYebB6vS3qd3dorqD3qeHCKlzKJaiYXwT6uNBEYDXcn1ZqJv1lkzX60AK6KxghGhzU0SpuUGNzjZV0TS/tUllLaqiz+ohyleWSKikSNc3D1A5JADXAEu3d5iKVcyNX6dCedFTPEf1oNKwhHICqLi4B+7/ilBCFXQDXgGjAG0vlS9rNKEuow/nQMBjqb4o0ueYow7VsuKsiKg6q1Rpr1CptUxVd01EDpOOWkvU7G9QobEowBntk7JFNJpfJaeL74591KhiBTTLOlHAIYBfgmN/qGACSAGrOpgCegeUh1rZGIjPw+cuFNuUw8SlxuJYlBtLlCt1qeGsic/EO3GeBEgzBUAawBw/N3xnKIMDqtYHYkgDeoVmck2hdNaai1RrYIZ9T3RjwKjPamMwLF0AfCIApB1hWCqUelQGhJb6tJBpU76I8oCesYYUqXWMEYWKWaq70jxUaok0P1L9esj3u+J7oBQgW2hRviSVa5NKCtAVqXvAJ4C37NBCri5AW5QUiLILpMkBuCgrQJmBS2XsixpXCckA0QyMR4BZQ7peQCtgs9iihUyVyvjz5JuUL8go4HsOj3N5ACtUWVdAKEAWdaSY8iTg2JSyz5QE/ANGEVA8oZYqo1IWwFQsiSiUa+IepOoxkx4qKcxWswJSfAd8JgAZ9aRQSwWgCkXTA0zMuIcKKmbcj2bXy/n1Cjhz+bKoDQaQIhYW8oQ9wKoCUiikmOwk4XYIoKM60axQZQGnSi2NhdDRs1AF5WQoNN4vFkpSGQVUY2zpUCkFiGYzACIPvBRIAYgAS1h14AKUJYElgJp6h3o3VEQc68CnvxP76rP1fRzjOfU+BYtqT13HuYJHdQ+gT79Pf68OhHhO3avux7l+jzpX96nPxXfGnxf7CmhxTd2P9yFwDxRf7Ktn9e8z1bENkMZNXNKvo7eoKVIxNQEcZ9D6abF3nvruORp0zxGMVN3+KeoMTpI7OEFu/wR1+qeo1z9D/d5ZQip/rXWZzq+9lF5865vpNfe9h67d+yi98c7H6E13fYx+6vIf0XWYlu76JL3x0sfp+mXUmUpTE1z21y59lB64+AlparrvCXr5xV+i5cadMzE1QRk0R7SpCYqjKYRq6m6PjEy4RwdUm2PTexOZmoQaCoe9/I5OF477bQmZAM1AVNoAx2NUBci624TzuhumkKLFkj9qziGquhtUdTep6mxSzT0sAnBYdQ5T1Tkyiho+A+8fBo5rrcOil6jaF22csN8+QlWRmofSujpM0WNkKOoiVf3oBtWHCqmYCe8CjjfE98BaRgreAagiDvoD1/AuFwArYVSZm2BwCkapvkp1pPehqrYOEtzyMnCMgBKKMgNAqVRkyzVZXoDvD5VUGIQEBC5SpSlVVGUW8lbcBxMRYFWprUsEOC21VqgA53tzmYrNlWHgeFlcy9eXKD+8D9+3VEPN5bpwrhereBf2oE4uU6mOd8q1DOMS3lsdCGVVAjHAVRqP9LUIhbSxRAWk3qF8iu+zQuqz8fl6AGBF2h+u+jJqgFGDCuMOlFOpnsabmvAcVFY8B5UV0NilEj6/LFe4/8V7KnDrD2NkmOrJsgUoomWXMHlJ3tMX36VQHlCxskg5NOYvD2TKvtwREAwQBhyKgOo5SqtLAMzDOV/CO82BsgkYskRdqjBJRaTtofhCrRym8fHuTKEpIFQAq1BZYbSSJqhcqUWZPBRi6dyXCqmnkspzOS5UV06zxYaA2Vy+Segpm82jdrZNuQLS0U3CPva8qAsQhSoLIBWrcNR7taOqnlSpqdKNP0zfF4dGp2KFkL7PAZyKAEIJoUjxA0gBooDSWQEpjE1KIUU9KY4BpQo8AZZC5US7KEBqFq2bJHAK8IQyqsGruq72ssPn1Xm+WBkpoVBYoYhKldVL10MphUoq1FINOG3gVIEnVoAn0vUihuqouA44zUhYC4JTEJYUQE0KTPrzCs70dykADH6uvq/eofYUcJreh/fofyb9s/Rj9S79HXgO71b3qXvUub5GXcN96jviWH3/4LH+vqmOZwGkZvg09xYNc9Kb9tN216v3Dbo306BzC/U7F6jbu4k6/bPUGZwmd3CKnMFJchYRJwSgYr8DaAWYti/Tt238CL3ijrfS9Rc8Sm963uN0/52P0/WLT9Kb7/5jun7x43T9ro/R1csfovsvPy7iwSufENfgsr82BNKlmQFpNHgqV31wlYCoRnoO1wngMwioAiIDjnnUoaYRmE1f74xHzT0ygkgJk4eEwmlSSGttKJiBcACiEgKrgFMRAFEFo1tUbXtRQ5mAIaqtIxQM9BmVbno46g8aQqbrkbKHG77iHLAPQ70owBRp+2AoYPVWuPIPDgPpfy8qjU2q1hEbw/pQaWDywSgUPBFwsEv3urdCJZVKqXC3C1hcJkCjhNBVKjYtor5GxdoBL3COxvMiVkQrJ7RzQkA1ld9PX5GeNwOphE/Ab3wI8BUqq3zXOITGu+xV3ej4qj8bfQyAlSEVUKigMgC6gNAB5UsAVDmRCRDphQalgFPRukkBKWBVvzfqWMKkSSGdeq/sn1uv1FEfiA5n2aM+NVdsjQXU1/GQAKqAM/mKdD+iqqmksq1TtpCCeSnMAGUyNUERNUQGqXZDCBgFkE4cAFrUktqFDYTq93jACeiMCgmkCsjUOhUYaSl7fo+cc78jPwcGUtSQXqB+51bqdW+hbldCaRdQ2j9D7hBM3aFi2hocpfriEequnCbHPUu9xnPoeP9FdM/Wq+lHbv81unbfo3T9nsfp2qUn6E1w2d/1JF2/8hG6dkVCKRRS1fZpXoG0bUrZzzuQdo5QfRSHqN6RUYOxp7NBNdRsDgOqoT2QKgjVVx1IoZDqQIpRn4EQKimUUn9IIDWBKPY8GJVACjV01TLWfE76kas+JGXvgahK6+tACjDVgFTAKMxdmyFAqrdTAngGgVSda1AqZt6vULGxZh8JgBRKqXTSD1cBqSplD5BEmyYZMmUfD6IKVmcLpOY2UePgKhVVD0IVjPpXzKqXEYRKBlJ7ENV7keoKqlRLs0UNTG9QIJV1o1BGAzGJQhoJogpSGUh3BBZ3AtJvNCDt9c7QeJynXu8moY72ejg+R73eWe2+09TrIW1/inpLp6i7copavaPk9k9Tf3CBOu0L1K/eTsd7/5peePYa/dt730n3P/999IYrD9MbLz5Bb7j4uOhB+qZ7P0pQSBlI01FFdWUVZiaRikc6XsRhqYS6UEQ3qe5uUN09OIwEQCoU0yFgOocIKfyx0AEUaqZlADQleAI+g+G/BoW0Cje7ZYwgVFdKQ4F0nUpNu0DaXsKo6jm6NjQTDdVHYYrSQVQ/VjCqVlyTIdLtBvUWaq6nfCoFFOsaFXyxSoU6Amn/5WEg9S5T97KtUxyQ9qiIWtHaknXMCkgL1R4VkLoPRL7apdAQ7ZzgoA9EtUP5aodyaOuEmkqRptehNBxIc5U25ZDKtw3dwBR1jPQ9TEzW4bV7UupoaMoeSmmxORaoO0W7qWDYwygAFEAKpTWorA6BVCilQyidKyBFTag/MqhnHYskiqlZIRUgmhA+dWVUHUerogpGsTKQMpAObia9dlQdJ51Pb0rNh+2pFPs06ziMnqFu/zR1+qfFKq+fpn7vNA26Mha7p2mxe4oGIk7ToHNGuPAdNGYfnKDm4AQ5vbPkNG6ildZddPPay+h7bnmQXvOd76EH75U1pG+867+KlP2b7v44/dTlPxQ1pPOqkMreo9Etn4LpeJvz2aXst6nRRhyVq7NNmFGvJjA1VPsmF8aiTdHKyVYhrbcxS/6wFjhHbAZig+qib2iY4mnaB3RGBSBVPgc1NUkYgVSHU+1YwuhBKjVVrFOpdYBKrbWxQD2pB6Rw0EtXvddkHoCJRvjrw9VrOh+uluJ+1LVi6lMgUBdaxxQlfwBSJZCuUqEBCFWhw6g0IYlJTNUVYcAqVZWjXk/XQx1F7SbMSIBSmJvsAvWj0hiVbsq+APCsGQJgaYxuyD7ud0RkMSkJgJkQSNVzcauA1ygI1a8JIG1SptKwimyYgUml6cdWtInyhzRD1SiDOs5R6CqnzbEC0iCUaql7lb6fGyD1g6gC03EYVYBqC6UMpPsGBHdC/bT5DBuFVI3/tFn3JJAOTlBncIy6g+PU65+gfk/2JAWAAkSXOl6suOdptX0LDZzz5MK1jRT+yja11o5TaxEmonPUb95GB50rdMvqD9GPXfhtesOVD9L1+56gN1x+jK7f9RFhfLp6x8fo2n0fppdf/GVablwU5qm0R4EGa0Ptz9EUf28BabN9jJqt49RsI45Rs32Umu3tYWyJtlBN5zAhAKhJgBS9TkWgQX370DDQikm2ZmqInqEwIh2kOoxEhmi01ikYAkYxq76FMIGpB6RCQcW9FgGFdnogBYyuagHXu5xND1OTnMIEdVS660c1mkLxPECV2sYQSgGkUSopYFQF7sP9XqANlS/dLprYozZ0RSqiAkQVhKoVyqjniC8CGgWQDqFUq/mUdaQAUsCoBFJTbWnYHkxMswLSQq1DwchXXTKHVEHN1xzKo0dopSVDAKlSStU6NDYFakhHz6hnI9cQQ5MOouoYymilQdlK3S7KZle9sYZUgGiNsnC/ayEhtEqZoh6y5ZO9SqoDqQlKNaW0UE3HwGSqI01UQ5oESG1hFPeFAKlQR9GbNBgJ+pBapeqVSsoK6b4B4zAgVYqngtBFjASNiEH/JhIxMJmXwvbMo0OnUUCTPKsUbeVzAAAgAElEQVTUUiikY9FDmt5L73d7p6nbldEbrp3eSQGSTv8EIdw+xlninjPU65ylnnsL9dv30p3nfoJ+5Pm/TK97/rvp/suP0v23P0kPXvoUXX3un9AP3PY2Wm9+B3U7p6nTPUlpQ6l6nz2MHqc0akhFz1Jt1GgiJ72l0QktoDBWE/1GpSKqlFF1rq/ezHrA6Jh5KWhm0s6lIqqUUX0NqqTeeRI1U9yLVkpxYVBJRcP7Jtz5Wmjqpw9MQ1P2qnY0bF2jcnMYwqGvVMwVKsMpPxbqOlZ1Xd8LO1b3mlepksI5DyBd8kLMpMdcej0wTx4xoIJR7RyIFk+oGZ0qRk73aNORdNrb14QWq3Dcy4BaiklO0RF/j0zVB9LzymEftg4b2aNlkx6qwb2+iusKOG3WENVTpeTNsGlw1Y+po7K/KRzzyjVvD5xxKqlSQv0resCm4p43wadhz2ReCtsLMzXB6KQbmka9R61NTmYgVSYnU+p+2jS8MizFOcP3DaDZqIr76R4bINVn0ocd2zvrdTidEyDtIW0fHZ3eGQGbnd4pAojahNs7Q87it1G7dSttLX4Hffe519C/v/uddP25T9DVK5+k19zzYfo3d/46rTXvoY5znDoznGW/v4FUwmYddaRWkQxIk8Crurfa2qTYQAsnURvqzZZPeu4DzjAQVfsTA6kGqo1VKjVWdifQw3TonJdAukhFtEOKiEINQDqbECA7MyD14FUCqXLRT756bnlNDQ0D0cB+EDZHraKC99mAqLonFki9Fk+J4HQIorMDUr8KCof9TsIoPisMPk378wKk9jAaXhfKQLqDjvfdAF0G0jPUnRmQnqJG9wwtrzyHltoXaLV4K93afzm99Pwv0Ou+81F69Qsfpu+9+DN0sHcX9Trb1OkeZ4XUUh2FoclTSBlIrcCUgTRVOL2RgXTqNk6AUgbSiUHWBJ5hewyk+xzidgMcZ/WZDKSzBNKT1OweI7d3jAbd47TinKG1+nNos/48es7Gj9FL7vlZ+r7nXafF9jnquhvUwb0zUklZIdXV0/lWSE1widGfJvXUdG/oHgMpA6noKTq9QspA6ldJWSEd70UaTNmzQspgHFtKwUA6OyCVNabHqTvYJrd7iFz3EPWcE7To3kqd2m00aN1BZ49/N630MSXqMANpAnV0PyukJqBkIJUue07Zz0fKnoGUgTTM1BRWQ8pAykCaCEiXFy/QKIZtnWBqCqsb1U1Oe66G1GdYCtSPIoUfCJiVZNjXkAJIMdrS6W1RZ/EwuYuHqNWDw3uLBsu3UK9/gZrNE+Q6x6nnbpHbmU3K3unC/W83tandScfUJMeMHh2NFp2tqWnnU/bBEaPqPJUaUqihpjDUm47BaxMjQ9fNLvs9r5DKyUsSSmFqiq4fxfW06kdDP2umNaRDU9NoCtMkMOqZodKsIcUIUFMkAtXYlL2dgWmsvpRrSH01pmIs6HAm/dixZmASpiY1TlTb141P/mPP1CSb4efFmFDv2O+qZyBlIE0GpIbeoqFAmshNrxuZtOP+OUriip/0Xt0tbzoO1pB68KkgVF+TAalUSY9Rq3+EmouHqLF4mBqDbWr2j1Ord4qc7mnqdE5T1z2VisveFjz1+9ruMUK0EA4g0gNJm/6ipnv0pvVpHut1o9JhD5e9JZCKGfLDJveai15BZJJVAuh4+6hYI5NudkpiasJ8eWVOCq7N9dG8esyoRzP58elLmjFpGjDdIVOTp4TqEKofRwOpAtE85sGnYGoyAWlJzZe3hlLPqGSatqTvpWFkylf05vf68Xyn7McA0+Cij7xnOI8+PWe97ryHu75KmVn2GNVc9QswMOUwoz4QhhGhYTWkC1ZwmaTdk7pXA1KLRvhpAGks0MyqtpHfSzvys9dT9qrVk74ykOowiuMkQIp7T4l2UO0eoPQoNQWMHqWWANITAkjdzllyO+fI7Z6auoZUB03bYwbSwPx6C1hlIJ2t034vAKmAVGsYRVsoBlKfghqikEbCpg2cMpD6FFIGUlYmdwQm04B2BtLxGtI0FVIXvUqFEor0PeIEucJNf5yc3nFyulBJz1K7c14cT2tqsoVQ/T4G0uRAGqamskKaDqjOG5CaVNZZuuxZIZ0wXQ9gZSBlIE0DjvgdO6OK6j9nBtIZA2n/OAFKO51T1HXPUM89TT33BPU6x6g7dNW3u6ep1WUgtUntz0vKnoE0HfAM62nKQDpJvaj/GU7Z66n2tI45Ze/VkXLKfs8ojzr0zfMxA+ksgfQEuYMt6vSPUbdzgvrOGVpsn6FF5yQtukdF71G3e5TavRPURBP9FCY16cqn7TErpJMopBaN7/V6UdMx15CGNtifRyBFPaoehUTpek7Z+9L1EX1IOWVfGfUn5RrSDHEz/Buo5ECvFzUdi9GhixdoKRBw3pud9Zi+ZBlpm5o057zJvIQ9kzGqJ6Y0eeNDO/3TJELUi8o6UFk7qo4Nk5r6p6iDGE5xEql6pOd76EMqpzB1hUp6inqdE9TtYA99R5G2P0HtYVo/LmXvdOCYj4owNz3m0/uj3YGZSZmY5NoanW+PHPIm01Jwr+Vuky8StnAyqaNyHKg+/lMdSxNTw9FW9wg1DGGaWY/6zzCFM7gfdM/L65tUbc8QSE0O+zEj0wGqNL3wmZgaSQ1M2mhQNSIUa2N8xGcpbVNTXY4CxThQPaYBUjkuNP3pTDqMCrPUCEjta0NNdaSFJC56jBE1RL7i0lgYZ9ZHjA4V7/AMT/qo0OCkpjG4HE1falGubBvNUXP8SSE0U6xTMLLF6dXQXKE+NnY0k69RRhiaZjOZaSFfpvEo+dPvQzMTmt2PRb5EWUN4iqYyI0Wtnuqp2jeJNVegDCIr+40KJ30mT8qotGBlasLMedvwQJRVSAZSUnA6GZCeo8HAIlIG0jAI1ffNQAoYPTUWCi5tVvW8uncEpCk3urdVPcfvO0qYL6+HbM2UDDyDIKrOBYymAKEKTJvuluUYUNnw3gSj2EsHSP2N9BPViZqUUbUXopCGuuk1KPUB6DSuefEsgHR1LMLS6Wnux4On7qzXj/0ue1ON57R7QQANnkuFdDoYBaAmAVI53z74mV0KG+WZZL8QBFIFmbarAFEPMuMmMenX0wTSTCEFIB22jtKd+gJIZzizPtQlb3DUh05fmhGQZgWQes3vVdN7BaR2qweZuuoZd8xAykDqA1JjH9LQtk/m+fSD/lkKhgkOp9nTwTPJcVf0GFXqp74alNCQOfYMpNukYDKNNSmQmsETbZkOGSOohIadKze9fp2BNL36UQbSZEBqhle0dPKUzUmPGUg9kM3tVSDNlSgbiDQUUgbSGwgKd7PGVCmhYWvytk9mIJ0GNG2fTQKh+r3dRK2czJDKQDo5kEqj0hY121o4yRTSMCDVQXKSYwbS9ODTpKwykDKQQillhbRiTM2HqaahCmkARgGnDKQMk3tGZQ4DUbUPIDXXimoN7n1q6XwDabd7moLRQf9P0Z4JLZq8UOl3m5WBdAogFSAqG9yrZveoD60niHDY3KRaOxhJa0g5ZW+CyTT2GEiTAak3bUlvdB9RF5pAOWWFdG8rpGIK09RN8L06UVUvipUVUobaHYFaBZ5ha1pAqiuS6thW+bS9T703ag3CKM47Ie52GxBV9zCQzieQmtLrElDtoJQVUlZIg7Wj6nw3akgZSP39SYOGJnF+g9aQMpAyNO4INM4ypR8Gothf6t9Ei/0wJTRs36yQKpOTLVxOe58tlKI/KBRSBZaTrnHu+GmujxuUwpz0UfueoWlaM1MaNaJh75hUIZUpex0ypQs+XDnV740+NkHt5HsbVGkOI2ocqGZgMpmcZmJqaswWPuMU1URqaS29OfVB85MCzrh1N4BU1pB66miu7FKuNH39KOpOd0IhnTQ1H3zOCKLKcZ8QSKVZqUZ2a7oO+9FIUOGwNzvqTWl7PWWfDogq571ZIQ1z0duZmXJDN368qWnPA9UsYe1GeDcDKQOpcsrbrmEwmcY+A+l6+Mx6DVIZSBlIoZYykI63fUrqsrcDUQWsDKQ6nDKQsiqb6j8iGEgZSG1BVN2XBniGvYOBlIHUSillhZQYSA0wCpWUFdKERialjmJlhTRVwLoRVM00/4wMpAykCjRt1zCYTGOfgZSBlIHUPwJ0vNUTp+w5Ze+1d+KUPauU+waiGUgZSG1BVN2XBniGvYOBlIGUgZSBNFgzGjxnIGUg3TcQlqbCuNffJSYxwcA0FtLQtF9MTd3ecGY9Vq31kzA07XtT0zESRqbOUbmK8aCTT2gKg8k09kVPUmeLsNq1fULzexW6OUm1etL3bI/Vs3JNZGAS05c2qBq2CiPTQapMYmhqrlNlGJPUkKpRo75nxZhROaUpznQ06+sSRDGBKT4KM0zZw6xkG6ZRoP4986hP3/jPiNGh+UqHRlEOHI9qSJO3fcqVHdJDNNOvSHPUaN92QpO6LzCpKVtCf9Fg+F3yQdAMPS82KKsF0vJhIacr1ShbsAuvhhT1oTbhzZrP5GOOCxXKRIQ3KtQwCtQwHnQhVyShiOprbKsnpOHtQowEzeZITGLS15DRoFxDyupsqv8wGJvCpPcd7Z+nfh+u+TBHvWlfuuyndclbPx8yv74r5tOfIaydHuJ0ROxFlz3m0nvO+bhjpW6msaYBnnHvkJOaFGiGr2m46IPvSASgagyoWAGiB6NDMyaZ3POhe8118oHkBONCBZC2/O8pNdYo9fn0IW79eOXTPw60WF8kFboTHu53/XzSY5OLPi3nvIJSAZ4RwDmejvero3qbp1wJ4InwUvbyOBmQhs6hV2A56aoBqQTRCeGzZHgu0Xx6gGg1ccTCZRx8Bq8XypSJCeWg113zwUlL+nmyJveqNtQb+an3FjUdq5GgunEp6piBlIGUgbR/lkbAykBqBaZpgKh6RxxMpnGdgTSQumcgHUEoAykDqT5jfvyYgdQPrgykqULTXk+Lz/P3Z4UUyikrpAo2bdY0gDPuHQykDKRKHcWqq6AMpAyk4xDqTVmSqXpWSD0oZSBlIN0jSi4DKQOpDYTq98TBZBrXGUgZSBlIu770PKfsdeiMOmaF1INRpO0ZSBlIGUi9tLqeYk/7mFP2nLJv25qV7O7jGtLZTGziGlJ/fWhc/Siu6/WiDKRREKpfYyBlIN0jADbP6fPd+G4+hdRkXko4OrTfPzczEI0aBxq8Fm1iChqckqXspxkDGvWs0zlB9mNCpalp5J53j1LL3fa76ZWrHiuuTRl4vwhni9JQQdU7dGe9d3xEc8/rpqZDJOfLyzVoSErjfKZAqpueogxOzQM0csU31qgs3PAHUjE2Bc1RMzU11ZepVF+meBjFPfvP1CTNTV0qVu1gVDjqx0xLKkVvMjThWrypKVdu0ygmNS3FPaeZmnLlJqkIdc6bzEulBplaOkWn6HUYxXEyIM0UqiQiaEqa9jzE0KSMTPq6m6Ymn6M+xE0fZmxKw9TE6iXD8+h3QAfSZG56k8P+JtrvQOr2TlIUVE5zzR5GMbN+CKQaZALwpoXOqOcVQKa9NttbpPqPqrXhhANpGtAZ9Y55AVIFjnDClxETOOttnpklkNqBqALW/QqkPQKYWimiaPMUCqRh1yyANA4m07i+V4F0WvAMe36vAGlCCNXhlIGUYXIEk2koqouDm0gFA+lJ6vSi40YA0pESqhRRtaasjCqwZSAN1ItCOdXgMzUghcqq4FZbGUj7pFpApd32SbV/YiA1tHKaF4U0DCin3WcgJT+wZiiTGY9UgSYNKOJ30K79naQBofo7WCE9EaugOt0kqXmooaaYnUKqQHGn1n0PpBM1wffS8+kBKXqOmmKVZtX0fl4UUgWccSsDaZsm71PaoqTpedP9O56ynxY8Q58vk56Wjzre1ZT9DimkuwY5DJi7B5hJf/YDNL4fhTkNrwNn3DEDKQNpUpBlIN0phdQEo7NtjM9AKtP1N4RCWmIg9TfXZyDVFVIGUk7vx/4OYBKTikGogQnTl+yCgXTvA6kERNR1ajGjdD3gVRiZ2kd8daTzVUO6QdWWRYhxoYZJTXOikEIdLdZXx2Lfp+yrA8pX+mMRNh5UT7OneZyshhR1oUlCjv0UI0DL48eTq55JFNMUgLS4C6amUIUzZixo7HM3ApBmKZOxi1gYSaqm8f17R/m0/buKUzzl9XM0GIzHaFpS2q2ctPfp7nl9HKg6DnfTJ3POR9WOTmNUins2mbP+OLVdxDFqTzmPHualWTjmTeqoblQCaNoE5thHGY/SubZJsQamMMjU3fJxx5ZAamNAsr1nVin4sPcmU0KViSm4mk1NelP8SY6LtQGVagMqVhF9i/BUzcmA1M5RrwDVbGKKNyqFwadpf2IgDTEqKQd9cDWl4MP2csUGmSKZoz7osA932YuZ8rEQOS2E6s+XCal4m9DHg+rH/vZNahRo0jW6D6luUsKxrmpGHwNEx2tCw/YYSFkhjf0dYCCNNjEBVOOgcprrNxqQAjRtIx3ojOo9ul+BFGn42fQSDXsvA6kOsQykYRCq75tgFHv7CUh1uJzkmIGUIS4W4mzVx71wHwMpA6lJ1UxzT1dIbWGUFVLP1GSrinr37U0gLdT8I0InUUNNz7BC6kxuVGKFlPx1oboCGndcpkkgVH+GgZSBlIF0rEH+eLoeKXxO2cfXi8app6yQhiumrJBOCqUMpDqYMpAykGZF8/s4gEz7OgOpnr6/ocBqL6iR8/gdWSFlhTRNNdT0LlZID1IlairT8JqncE4Kouq5vQmkeZiPql5PUBzrYDnpMQMpAykDaXgdKdeQsgo7N/9YYCCVQCoa3qNe1BTd6ZVQKKWi/2hwNfYYNfUdlXt7xdTkjQD1pjBJ53y4IjpK57ePUL19OCVT0ybV2uGRiqmpdZCqkRFo69RE4/tgKJhMY92LQLqUCnyaoBVAKg1N6ZuaChgJaoqKfR1pKqamikN5Uwwd93vG1FSYYQ3pjhqaoLYmV0gzuSKNIpvUvGS+fyGbJ9940GzOfx7oQxptZNJNT2xqmhuQm0e1c5LvNI9Aqjvr9WPlrNfXNFz2bne2xiWVtjc3uA+HT9P9ewZIA22coJLGAWlNQChA9DBVW1FmJPtrscDZijE2WbjsbdRP/Z70lNAweJ1zIK0BPk2RXg2prrTKZvc27np1j25Qij5WTnmrtYqZ9uPvSwNICxWXgiEAdY6BdHrzkslhL132k9d9ppm2nwBINQhdyBRoIVugaetIFzJ5CqqgUecMpKyY7hpoM5ACRhlITan2afZUml5fGUilUspAaoJR7O1zIA1RTRlIw8By0v3aFEYkBlIGUgZSBtKQ3qOskPoVVFZI7dVRmKJYId2Z9k+J2j4Z1VEGUj+Y7v8+pKyQlsZc+Loaygopg+GugeEk6fY0nmGFlBXSaZTQsGd1ZVQds0LKCqkA1xsUSP3A2aHocwbSyYGVFVI/2HLK/oYDuzTgcDfewUDKQBoGldPsKwjVVwZSBlIG0jgQVdeTAanRtFRuk5raZLxeshgLOsM+pJMDZ1wqn4GUgZTV1T0J4fEz6mfbb1RPyccdd/unqdPDSFAZovazB5e8t+cdx7dzUuNCd6qGdGRugtPe6K4/Rk5nPOSY0KPDcaH6uk0YAWoTLWebzLFFU4Gnu0XNYTScLfLCPCK07hym8UiWhk/SnzTVlL3lCFDdwBR53AwzJZn216jcNERjleQs+uC6M6l6NbkpPGWvUvGoD1U1ouo4uA6mdtrna30SobWPkqamcTORyWBks2dlYNLqRT0lNBlkKpi0WUOBs2yATgGZLcpZrU1S40H1KUvTHGeKdUIkA9IaZQu2UZ1dDWmhTBlDLORLFAyMDNWb3EcdC2e9ZmiSQBlmaMJ+eBun4DXhsA846WdhatqTALQbKiB/JoX+rphm1Af3ZtYAv3eW4iBUv97t++fTC8ATQGoPnwpC9XW+gPQoOR1/2ABn3D3TQGfUs4DRxjBGbZsix4MykI4gNTGQrlK56Q8FhLu9hgOpglAJm2n1FjW1d8Ke7q5Xxzc0kJpU0ISq5/wAaZXQT9QmZuayN8BopjAOo4DT6YHU3MYpI5z3DKShUMPAFw588/6zCcKn6ZyBNJ0+pHYKqR9GAadxsGlzPQoqp7nGQBroMRrWAL95gCqBSOa2hzrqh1Gc7zaIqs9nIA3vO7qrCikDabpq6RwDaWi/0QTqKJTTSV32DIhcJjD174AJQIN7DKQMpGHQykBqAaTNdUoGn2Ep+50F0nDIXCb7a7NTSJUCGreyQhpI27NCOjmkzjWQ5hL1Gw1L2zOQMlhODZaTKrFB+DSdM5AykDKQymlMo3R7mBJq2kdqvrE2HnOesreHzihAZSBlhbRBes3p5DWkdul6MSZ0VlOZGEg1BdU/qWnXIGZS+OHn5i+1bwLQ4B4DKQMpA+l0QFpqYHqSP5Kppjufsp9nIIUqmqv0xsKklrJCygppajWl8w6kC1laCAan7OcPvBiGzX8nOnzODDy1pve+z7A0NXW7pwmhG5EmPVZ1nDu1mt30/mb36h7pprdzzYfVjYqaU63utOXCXT+dkz7q+WlS9knc8vb3xowCjRsVGrweNjrUpISG7aWQshf1py0/lKr6zZ1YJ4fT/aGQJnXW6/enqZDmTK55U51o1F6ClH221PSpm7rSaXusFNHgmtxlP66Qpgaalopq0EkfdR5matJbMk12HO2yF7WkCSFUT98nSdmzKsrp/VR/BxhI01U/g6CrYNNmZSBNo/0TA+ksAJWBNNy0pMOn6ZiBVLZ5YiCVbaAmg1Ddcc9AmioEsVppVit34+fCQMpAGqWAxl1jhXRnTE2skI73KDWl5017yVP2XSpW/WECTds9BlIGUr0HKQMpq4oM1CG/AwykDKRx0Bl1nYGUgTRaPd17KXtb0LS9j4GUgZSBNARAdkOF48+cH0U0+HfBQMpAGgWccdcYSBlIGUij0/kMpAykDKQMpKyKWvwOjIC0P4MRob2z1I8ITGHqxsZp6sDQ1PVPaYo1NWGqUzB6mFs/GwB1xDhQjATVQuyNjwLFeNC2Kdx0muDD8CTMTMLQlNzUBMg0hrNFzUA03COkInxSkz6d6RDVHRn2RiWb2tJNqrU3qYoIGpOC58KotEFVqxXu+nVjhLaAaq6PmuAnc9Kb+o+qPb+hadea4tfR4mlpLEqNZRoP3OdXSMMmLCXer/YJqXi7iB8bWqh2aRTa2M84FTRfcSk2yhgZms7Y0FmamqSBCSYmPfwtm2KNTMUGZcci6ZhQ0/0YG7r7piYYleyjSGIkaC6wjo0IRX0o6kKThJzUJMaCZnM0tk5oaspk0MrJEAsZWjCGBWQEVTA+n1+Fcrf/bhSQ+tzvYa74hPv62M+w427/DJmi0ztDnR6c9afJ7Z4SEQuh2hhRjBkNBgB1ZkBqnE0PNz2A1D99qa254MPc8pPuxymaNtd11VONBcVqBk4dNsOObYByuntiIVSH0jDnfPsgVQ0RCp6hrnoFkVr/0UQ9R7XnR8+hZdTOzqc3fx6AdHEsSo0lMkVi0KyN14oa31GNh0ybufTqnjjwNF/vkM2c+TTvmS2QJoTPUuB+gGjBBJNp7HlAulPO+oVcmYIR5pzXFVB1nKxWNNqoFJxPr851d3zYsb1rHlOa/L1FM5kMIVjdY/Dekd+B/QqkY+oo1NIeAykDKVRUqKNm+DTtM5DqIGwGUhOkzkwdBbQykFIuqrVT1LWQtk+x6mcQQIPnDKSkYBQrAylD3I5A3G6rmml+/r4FUk0t1ZVVVkjje5KyQuqH1X0PpPVlKo2FDqH6MQOpp5ayQuqDWAZSBtI04YTfdeMp0zcSkLqzrCHllD3VHU7ZC3gdpdn3RsreZEoSgGosETADqTGtbpt+n+Q+VkhZIbVsZj9pij+Yrsc5p+xZ9WTVc4a/A/sVSGelhIa9N7zxPdeQwsSUroFp/H1cQ6qrmMmOGUh75Kme0Y55/32skLJCKpvd66l6dcwp+xmCC6un+1M9VUCKdRbGJvXOJKYmZWYaX0+Ojw8dmpd2Ii0fhFHpqDePAfUA1QPSWZiZZjEatOEcCTEwmfbDVFHT/jhIJgdVCxe9bmAyHYfUkCZOzRtMTem56oPGptmZmkxAGr4nnfPBmtFZKqTmZvfpmpqUuQmrHzqjAHV2QJorO5MroFH1o7iWQg1prtyksSg1KVdsjEcKRqdMoUqTKp2TPpdEIc3lyxQM4bA3Our1qUvqmE1NrDwywC8wkE7eBoqBFIBqAs+wPQbSyYGVgVQH07RNTQykSWfW662h5HHuBgbSbL5EwWAgZcBiyE74O6AUzFmvJoUUPUjHVVDZ6sm8zwppsB3U/CqkXr/RUd/RVFL3rJCa2zElS9Pr7whXQ1EvGgxWSD0F9cZVSH2peuW2n6Gpad4VUpWm11dO2SeEEU7D7880fJK/11mDqHo/A+lRupFS9slT8bbqKQOpDpNJj8cBMwiccedLNMv0vOndujKqjtNQSD2wjErLR13bm0AqG98HeogqqLRdAZ+mSCE9b+plOu9Aat8AX6Xog+ucpOwXsgxFSQCK703390UB46xXI5B2vab3qvk9VrM6CuWUFdK9opBiapI5bMEz7D4G0qQQqt8/LZAWajOavBThtFcQqq8MpO2Ja0zTANJM0TAOtFCnTL42FibATLo330AahMtJzhlIOb3NivKCDoqzhFL9c9QxwFMHUXWMBvbmMABpT05kUrA6y9ZOe9nUZBwFGjIiNA1TkxlGAalhoDm+b3bnhwGp7SjQ8Kb4u2NqwkhQi2ispjKpaZ6BtFgbUDCEYmocETq9qWm+FdKEwCmMSq2hYSl6nX8gxVQmf8wcSAsVyuiRL9NCMAxtn0bKqLV5KQxWZwmkhlGgpvGgwylNDIYMhrv2O5A2hJrGgIbtSSXUBJn2e253dvPpgwCKczmzPs5Z711vpzifPqiO4tymhjSs0b0+FlQ/No8INTnsw01NScAz7DnKjRwAAAnKSURBVF5pmPJANbK1U4LJS5hNPzV86r1GJz4en08/6xn10wIp5tib0urT7gkQrfapaB37B0gnnrg0ctMDQA2ud4s9Yy1oRNreqIxqamky5dMbB6rPqZ/UFZ/kOd1BnymUaSzyJVowhN6HNJlpKQxE1X5CIM1gzKdtmMeBqrGgYeuuQQmnwdNNg++lnycDaTKXPQNpEEzNjvowyEyyz0A6uVFJT9PrxwykHsjOi0LKQFolBlIGUgZgVmYXGEjDgVTAp1JF1do5QV6PUU8JDdtjhdRTOJPAKO5lIGUgDVdMPbDUWzYlOWYgTdrqqUH7UiHNlyhjiHlQSBeyOVrIjIe9OgoVlRVSht09ArsMpBFAGjoONB5EFaAykDKQhvce5ZS9SvVzyj5hzegoXY/nOGWfJF2Pe/WUvQk8w/Z2OmXPQLpHQGovpcXn+bsykDKQ6vWjOOYaUosa04nrRvUJTAykDKRpTGRiIGUgjaonZYWUFdI9AvZTAWnvDPUDgWb34SYmrRF+F22c4Ka3NzCZ7k3b1CSnLyEtnzA13zlObTcYxyiRQtrx9yoVhiVlXIpanS1qRcTsTU2GJvgJ3PThqXx/66ipTU2tdYKhKbGpqXmAKoYIVz516Iw61oC0sUrlYeg1n2kfT1RDWlumYm2ZCjUYmmbX9ik8PW8yO8Wl7KP6h8Zfy1fQY1SFqx2rPbU6lC8nCzEWtIwRnsPwqZ2TKKXxQDqts15P1S8UaqGp+71oagpTQ037O66QinR9lhYy/kg7Zc/AtkeAbZ7VzTS+2zRAqto36Ws0kHpTmLwWT/MGpPbpeJWWx9p2AZ+mOEomd7xpzzEBaQRoRkGofm3WQBoOlJOn6/HOSAANzqiPc9m3Dk7srJ8ePMOgdAikKbV0soHXpEAqIRQgukT5KmA0HSDVe4riuGDtrldwOmMgHcFoh3Ill3JlE5RiLxmM4n4BolNDqA6uNkA6XSP8vQykvvR8ruxP1+Pc4KYP29txIN2hGlIGUgbSufgdYCD1p+x1yExybIbRZAopA6kfYBlId9/UxEDKQIrWUAyksg0UAymD21yAWxpq5Dy+g4GUgXTaGlJWSMMU0Lh9VkiVUsoKqa54Jj1mhTSqhpQV0vgaUoYsBu25+B1gIGUgZSCNNjFxyp5T9pyy90aF7rUaUgZSBtK5gK15VCTn7TsxkDKQ7n0gDR8HWlW1pVxDKkaPcg1pvKGpMDI0oUbUpVwJdZ/yGOf+mIMaUjE2NHpSU9KJTMH7Ryn7Qp1CgbRQp3k0Ne0ekKLZfZLIUybrj51q+8TAxgrpXPwO2ACpblqKOw4zNckxoZ6pSZ7Pn8teHxcaXkN6jJyOP6SbHgYmU2xbG5tMZifdoDTJcdDUFN/WaXbTl+zT+5s0gkkFlWmtIaNDjZ/XOkjTKqTCod9a972n1Fij0gzNTMnAc4kwEjQY0sCkjEz6Oph6fKhK1atVpuzjjEqTXS9Uk0JocshMYm6yMjVZQOYsx4XqAJocMv1z6INz6dV5VJp9qmtiJv1wHKiFYQl1ocHI5kuUzZfHIpNoZr399KWFbN7YAN/UFB97k7rs5wI65k2V4+8zP6NKGUj9CqkdkB4lGJD0aMMh704HnmHPTwKh+jPpAKnfcGQPlpM+twtAqrWFUu2hsN4YQLpIxbo/VI/QWawKRNXKQBqoG50TIE0Go1BI/WNAo86ngs58hUKfTwCkmNCUzdkHAykriQz1M/wd2EtAqsPiThyHK6R+GA2648PAMm6/5WyTOaL7jOrwaTqefyDdHG/x1LZIw0+qmIYopJWQfQbS6RXRINQqEFUrAykDaShgRsGn6RoDaUBB9WpIGaZmCFOstE6vtDKQJm+Cryuj6jgNhVTC6HTwuW+AtJUOkIZBpnG/uU6VsYhzysdf3xspe786CrU0CJFpnisQVSsDKQPpPAFpJlckY3DKfnroYHDjn2HY7wADKQPpeE2pqYZ00tS7zXMGhXQXgHRaJTTseQbScYVVgahaGUgZSOcOSBPBZ5HG0/lcQ8qKLCuyiX4HZgKkGB8aiGlNTW7vJBlT6N3wGlDbtH7SMaFKFdXXNBTSprNFpjCpnkn2pk/Zy9Gg6daNemNBq4BPU0yakteeMyqhM0rNRwJp01+LOn+mpr2skHapWA2PQoVNTboBKuigN50rU9ONWkMq1NEZAakwMMHE5Iscm5rCVDPev3EU1TAgjXPTh103g2fQXa/Oo132tkA57X3zAqQzS9k7WzSugh6J2NMVUhuFM/k98VOYdi5lHwaSqe03DpAEUDjr9VgVrZhsRn6G3ZPMTb9MpvvTGgeKlL5SPLFGpfj1+8S9YnTohC56K+CMg1I1m36ycaA2Lnsrd70aKZqCqSnp/HoFofqaFpCmpn6aakaDe3oNaWHoti+YR4SGmZpmCqRiPn0yAA267Sd12WcyGVKRSLliKLxxoHA3/64ZSG+AlD0DaeQc+9TAsxlST8pAOganDKSBFL0CUbUykIa76IMAGjxnIA01NSkYxcpAyun0ufsdYCBlIB1XT1khTRVSb1AgDUJn1Pk0NaR2KfmdVUhzCiwnXRlIGUgjlFRWSBkm5w4m01BWGUgZSBlIQ5TNMMUz6T4DqS+VbwJTBtKAYspAykDKQMoqbhqQt5fewUDKQMpAykAaVe+Z5JoJNm329huQZkttCkYi1ZSBlIGUgZSBdC/BZBrfFUAaZlBS+0HHfNR5pwejkn10+35jk9s9SV5M76CH4UmalqLW475RoObxn8ORoJjIZAoxMjR8UlPL3abYEI3x7fqQwjlvioazReMBA5Oeho87lq76ujO5u378Wc9VX2ub2jwF9yxMTSGTlfQpS5Eu++YBQksmkZ5vrE09kQnvqbQM0VRjQmFi0mNlclNTfZlKdbNJSRqXxkeBBkeDqvOZmZpgbKr2rKNYtTc1pZGmz5eVkUlfk5maChWX8hVv1KgwLpUDauckafuEQGpyyoft5UpNMkVyA9P47PpcEWNDvWlNmUJ1crAM1oZan5cJZqWxMIwIFSNDE7np7Vs5ZXIFyuS82fTSVT+dmckbG4pm93axsMD1ovsyvZ0GAM7bO/o9CyDtn6GuZUgYPUmdnk2conEgTQdCdee9sV1UBxCqAnPpvelLcROVJrmepE2Tzb3BVk4Nd4sQ42qnctPHQah3PY32ThKAPfd9vKt+MiCNBM6Q9k7qGb1OFO53/XzS40prjUwR5pKfaL++YnTL+x30422cgqNB1XkSBTTuXl0NnUb1jIPTuQbSSQA0+MwMgTRfapIpZgKk1hAZMQo08TvKMxoHmgBGs3kBo1lAKY5Vi6fUVE/PLa8blUzHDGNcb7pXfgf+P1Xy1tAxJ14lAAAAAElFTkSuQmCC;" vertex="1" parent="1">
          <mxGeometry x="263.15" y="624.9" width="136.85" height="50" as="geometry" />
        </mxCell>
        <mxCell id="79gVoxD1A6hShXNbsFjD-29" value="Deploy temporary Aws resources" style="text;html=1;strokeColor=none;fillColor=none;align=center;verticalAlign=middle;whiteSpace=wrap;rounded=0;" vertex="1" parent="1">
          <mxGeometry x="284.08" y="690" width="95" height="30" as="geometry" />
        </mxCell>
        <mxCell id="79gVoxD1A6hShXNbsFjD-27" value="" style="endArrow=classic;html=1;rounded=0;" edge="1" parent="1">
          <mxGeometry width="50" height="50" relative="1" as="geometry">
            <mxPoint x="330" y="560" as="sourcePoint" />
            <mxPoint x="329.75" y="610" as="targetPoint" />
          </mxGeometry>
        </mxCell>
        <mxCell id="79gVoxD1A6hShXNbsFjD-30" value="API Call to turnon/deploy" style="text;html=1;strokeColor=none;fillColor=none;align=center;verticalAlign=middle;whiteSpace=wrap;rounded=0;" vertex="1" parent="1">
          <mxGeometry x="263.15" y="60" width="130" height="30" as="geometry" />
        </mxCell>
      </root>
    </mxGraphModel>
  </diagram>
</mxfile>
